<?xml version="1.0" encoding="utf-8"?>
<!-- Generator: Adobe Illustrator 24.0.0, SVG Export Plug-In . SVG Version: 6.00 Build 0)  -->
<svg version="1.1" id="Capa_1" xmlns="http://www.w3.org/2000/svg" xmlns:xlink="http://www.w3.org/1999/xlink" x="0px" y="0px"
	 viewBox="0 0 393 215" style="enable-background:new 0 0 393 215;" xml:space="preserve">
<style type="text/css">
	.st0{fill:#F9F6EC;}
</style>
<title>bed</title>
<g>
	<path class="st0" d="M379.7,96.5L379.7,96.5h-23.2V19.3c0.8-6.5-3.1-12.5-9.1-14.5c-1.4-0.7-2.9-1.2-4.4-1.4H59.2
		c-3.7,0.5-6.9,2.4-9,5.1c-3.3,2.5-5.5,6.3-5.6,10.7v77.3H13.5c-3.2,0.4-6,1.9-8.1,4.1c-2.9,2.1-4.9,5.4-5.4,9.2v88.9
		c0.1,7.4,6.1,13.3,13.5,13.3c7.3,0,13.3-6,13.3-13.3v-75.3h339.3v75.3c0.1,7.4,6.1,13.3,13.5,13.3c7.3,0,13.3-6,13.3-13.3v0v-88.9
		C393,102.5,387,96.5,379.7,96.5z M71.5,30.2h258.2v66.3H71.5V30.2z"/>
	<path class="st0" d="M185.4,63.7h-84.4c-6.5,0-11.8,5.3-11.8,11.8c0,6.5,5.3,11.8,11.8,11.8h84.4c6.5,0,11.8-5.3,11.8-11.8
		C197.3,69,192,63.7,185.4,63.7z"/>
	<path class="st0" d="M302,62.8h-84.4c-6.5,0-11.8,5.3-11.8,11.8c0,6.5,5.3,11.8,11.8,11.8H302c6.5-0.1,11.7-5.3,11.8-11.8
		C313.8,68.1,308.5,62.8,302,62.8z"/>
</g>
</svg>
