<?xml version="1.0" encoding="utf-8"?>
<!-- Generator: Adobe Illustrator 24.0.0, SVG Export Plug-In . SVG Version: 6.00 Build 0)  -->
<svg version="1.1" id="Capa_1" xmlns="http://www.w3.org/2000/svg" xmlns:xlink="http://www.w3.org/1999/xlink" x="0px" y="0px"
	 viewBox="0 0 330 330" style="enable-background:new 0 0 330 330;" xml:space="preserve">
<style type="text/css">
	.st0{fill:#FFFEF4;}
</style>
<title>bedlamp</title>
<g>
	<path class="st0" d="M120.7,78.9l-1.9,17.7v4.2c-0.1,3.6,2.8,6.5,6.4,6.6c0,0,0.1,0,0.1,0c0.7,0,1.3-0.1,1.9-0.3
		c0.1,0,0.3-0.1,0.4-0.1L156,96.3l4.1-1.6c0.6-0.2,1.2-0.4,1.7-0.8c0.7-0.3,1.3-0.7,1.8-1.2c2.5-2.6,2.5-6.7,0-9.3v-0.1l-21.5-21.2
		l-1-1c-1.9-3.3-6.1-5.6-10.6-3.6l-0.1,0.3L41.7,98.7l-12.3,5.9c-3,1.5-4.2,4-3.8,6.5c0,0.2-0.1,0.3-0.1,0.5v153
		c0.5,4.2,4.4,7.2,8.6,6.6c3.5-0.5,6.2-3.2,6.6-6.6V116.1L120.7,78.9z M134.9,73.5l12.2,12.2L133,91L134.9,73.5z"/>
	<path class="st0" d="M304.4,264.4V214c0-3.8-2.9-7-6.7-7.5c-0.3-0.1-0.6-0.2-0.9-0.2h-13.3v-44c-0.3-4.3-3.4-8-7.6-9.1H114.5
		c-2.7,0.4-5,2.1-6.1,4.5c-1.2,1.2-2,2.8-2.2,4.5v44H88.4c-1.9,0.3-3.7,1.2-5,2.7c-1.5,1.2-2.5,3-2.8,5v50.4
		c0.1,4.2,3.4,7.5,7.6,7.7c4.2-0.1,7.5-3.5,7.7-7.7v-42.9h193.1v42.9c-0.7,4.2,2.2,8.1,6.4,8.8c4.2,0.7,8.1-2.2,8.8-6.4
		c0-0.1,0-0.3,0.1-0.4C304.5,265.7,304.5,265.1,304.4,264.4z M121.4,168.6h146.9v37.8H121.4C121.4,206.3,121.4,168.6,121.4,168.6z"
		/>
	<path class="st0" d="M186.2,187.6h-48c-3.7,0.1-6.7,3.1-6.7,6.7c0,3.7,3,6.7,6.7,6.7h48c3.7,0,6.7-3,6.7-6.7
		C193,190.6,190,187.6,186.2,187.6z"/>
	<path class="st0" d="M252.5,187.2h-48c-3.7,0-6.7,3-6.7,6.7s3,6.7,6.7,6.7h48c3.7-0.1,6.7-3.1,6.7-6.7
		C259.2,190.2,256.2,187.2,252.5,187.2z"/>
</g>
</svg>
