<?xml version="1.0" encoding="utf-8"?>
<!-- Generator: Adobe Illustrator 24.0.0, SVG Export Plug-In . SVG Version: 6.00 Build 0)  -->
<svg version="1.1" id="Capa_1" xmlns="http://www.w3.org/2000/svg" xmlns:xlink="http://www.w3.org/1999/xlink" x="0px" y="0px"
	 viewBox="0 0 330 330" style="enable-background:new 0 0 330 330;" xml:space="preserve">
<style type="text/css">
	.st0{fill:#FFFEF4;}
</style>
<title>bedtable</title>
<g>
	<path class="st0" d="M321.4,157.8h-14.7v-49.2c0.5-4-1.9-7.9-5.8-9.2c-0.9-0.5-1.9-0.7-2.9-0.8H117.6c-0.7,0.1-1.4,0.2-2,0.5
		c-3.8,0.6-6.8,3.6-7.3,7.5c-0.1,0.7-0.1,1.5,0,2.2v49.2H88.5c-2,0.2-3.8,1.1-5.2,2.5c-1.9,1.4-3.1,3.5-3.4,5.9v56.5
		c0.6,4.7,4.9,8.1,9.6,7.5c3.9-0.5,7-3.6,7.5-7.5v-47.9h215.9v47.9c0.1,4.7,3.9,8.5,8.6,8.5c4.7,0,8.4-3.8,8.5-8.4c0,0,0,0,0,0l0,0
		v-56.5C330,161.6,326.1,157.8,321.4,157.8C321.4,157.8,321.4,157.8,321.4,157.8z M125.4,115.6h164.3v42.2H125.4V115.6z"/>
	<path class="st0" d="M197.9,136.9h-53.7c-4.2,0-7.5,3.4-7.5,7.5c0,4.2,3.4,7.5,7.5,7.5h53.7c4.2,0,7.5-3.4,7.5-7.5
		C205.4,140.3,202,136.9,197.9,136.9z"/>
	<path class="st0" d="M61.3,158.9H7.6c-4.2,0-7.6,3.4-7.6,7.6c0,4.2,3.4,7.6,7.6,7.6h18.7v48.9c0.1,4.7,3.9,8.5,8.6,8.5
		c4.7,0,8.4-3.8,8.5-8.4c0,0,0,0,0-0.1v-49h17.9c4.1,0.2,7.6-3.1,7.8-7.2c0.2-4.1-3.1-7.6-7.2-7.8C61.7,158.9,61.5,158.9,61.3,158.9
		z"/>
	<path class="st0" d="M272,136.4h-53.7c-4.2-0.2-7.7,3.1-7.8,7.2c-0.2,4.2,3.1,7.7,7.2,7.8c0.2,0,0.4,0,0.6,0H272
		c4.2-0.2,7.4-3.7,7.2-7.8C279.1,139.7,276,136.5,272,136.4z"/>
</g>
</svg>
