<?xml version="1.0" encoding="utf-8"?>
<!-- Generator: Adobe Illustrator 24.0.0, SVG Export Plug-In . SVG Version: 6.00 Build 0)  -->
<svg version="1.1" id="Capa_1" xmlns="http://www.w3.org/2000/svg" xmlns:xlink="http://www.w3.org/1999/xlink" x="0px" y="0px"
	 viewBox="0 0 41.9 41.9" style="enable-background:new 0 0 41.9 41.9;" xml:space="preserve">
<style type="text/css">
	.st0{fill:#A69E93;}
</style>
<path class="st0" d="M40.4,17.3L24.6,1.5c-1-1-2.3-1.5-3.6-1.5c-1.4,0-2.7,0.5-3.6,1.5L1.5,17.3c-1,1-1.5,2.3-1.5,3.6
	c0,1.4,0.5,2.7,1.5,3.6l15.8,15.8c1,1,2.3,1.5,3.6,1.5c1.4,0,2.7-0.5,3.6-1.5l15.8-15.8c1-1,1.5-2.3,1.5-3.6
	C41.9,19.6,41.3,18.3,40.4,17.3z M20.9,31.7c-2.8,0-5.6-1.1-7.6-3.1s-3.1-4.7-3.1-7.6c0-2.8,1.1-5.6,3.1-7.6s4.7-3.1,7.6-3.1
	c2.8,0,5.6,1.1,7.6,3.1s3.1,4.7,3.1,7.6c0,2.8-1.1,5.6-3.1,7.6S23.8,31.7,20.9,31.7z"/>
</svg>
