<?xml version="1.0" encoding="utf-8"?>
<!-- Generator: Adobe Illustrator 24.0.0, SVG Export Plug-In . SVG Version: 6.00 Build 0)  -->
<svg version="1.1" id="Capa_1" xmlns="http://www.w3.org/2000/svg" xmlns:xlink="http://www.w3.org/1999/xlink" x="0px" y="0px"
	 viewBox="0 0 444 444" style="enable-background:new 0 0 444 444;" xml:space="preserve">
<style type="text/css">
	.st0{fill:#939393;}
</style>
<title>close</title>
<path class="st0" d="M222,0C99.3,0,0,99.3,0,222s99.3,222,222,222s222-99.3,222-222S344.6,0,222,0z M321.3,308.6
	c1.7,1.7,2.5,3.9,2.4,6.3c0.3,4.6-3.1,8.5-7.7,8.9c-0.4,0-0.8,0-1.2,0c-2.3,0.1-4.6-0.8-6.3-2.4L222,234.6L135.6,321
	c-1.7,1.8-4,2.7-6.5,2.6c-2.3,0.1-4.6-0.8-6.3-2.4c-1.7-1.7-2.7-4-2.6-6.5c0-2.4,1-4.6,2.6-6.3l86.4-86.4l-86.4-86.4
	c-3.5-3.6-3.5-9.2,0-12.8c1.6-1.8,3.9-2.7,6.3-2.6c2.4,0,4.7,0.9,6.5,2.6l86.4,86.4l86.6-86.4c1.6-1.8,3.9-2.7,6.3-2.6
	c2.4,0,4.7,0.9,6.5,2.6c1.6,1.7,2.5,3.9,2.4,6.3c0.1,2.4-0.8,4.7-2.4,6.5L234.8,222L321.3,308.6z"/>
</svg>
