<svg id="Capa_1" data-name="Capa 1" xmlns="http://www.w3.org/2000/svg" viewBox="0 0 444 444">
  <defs>
    <style>
      .cls-1 {
        fill: #fff;
      }
    </style>
  </defs>
  <title>closewhite</title>
  <path class="cls-1" d="M222,0A222,222,0,1,0,444,222C444,99.3,344.6,0,222,0Zm99.3,308.6a8.21,8.21,0,0,1,2.4,6.3,8.36,8.36,0,0,1-7.7,8.9h-1.2a8.74,8.74,0,0,1-6.3-2.4L222,234.6,135.6,321a8.31,8.31,0,0,1-6.5,2.6,8.56,8.56,0,0,1-8.9-8.9,9.19,9.19,0,0,1,2.6-6.3L209.2,222l-86.4-86.4a9.11,9.11,0,0,1,0-12.8,7.9,7.9,0,0,1,6.3-2.6,9.41,9.41,0,0,1,6.5,2.6L222,209.2l86.6-86.4a7.9,7.9,0,0,1,6.3-2.6,9.41,9.41,0,0,1,6.5,2.6,8.59,8.59,0,0,1,2.4,6.3,9.22,9.22,0,0,1-2.4,6.5L234.8,222Z" transform="translate(0 0)"/>
</svg>
