<?xml version="1.0" encoding="utf-8"?>
<!-- Generator: Adobe Illustrator 24.0.0, SVG Export Plug-In . SVG Version: 6.00 Build 0)  -->
<svg version="1.1" id="Capa_1" xmlns="http://www.w3.org/2000/svg" xmlns:xlink="http://www.w3.org/1999/xlink" x="0px" y="0px"
	 viewBox="0 0 752 752" style="enable-background:new 0 0 752 752;" xml:space="preserve">
<style type="text/css">
	.st0{fill:#FFFEF4;}
</style>
<path class="st0" d="M637.8,55.5l-67.6,67.6c-0.3,0-0.6-0.1-0.9-0.1h-80.2l24.7-47c3.3-1.8,6.3-4.8,8.5-8.6
	c2.6-4.4,3.5-9.3,3.1-13.5l7.2-13.8L547,13c5.1-9.9-9.6-18.5-14.7-8.6l-19.5,37.3c-1.8,0.1-3.6,0.4-5.5,1.2
	c-4.2,1.8-7.9,5.2-10.5,9.6c-2.6,4.4-3.6,9.4-3.1,13.9c0.3,2.6,1.2,4.9,2.6,6.8l-26,49.7H174.9c-0.6,0.1-1.2,0.2-1.8,0.3L147.8,98
	l-34.3-32.5c-8.3-8.3-21.8-8.3-30.1,0c-8.3,8.3-8.3,21.8,0,30.1v-2.7L313,323.7l34.3,34.3c0.7,0.7,1.3,1.2,2.1,1.8v349.4H242.4
	c-11.8,1.5-20.2,12.3-18.7,24.1c1.2,9.8,8.9,17.5,18.7,18.7h261.8c11.8-1.5,20.2-12.3,18.7-24.1c-1.2-9.8-8.9-17.5-18.7-18.7h-112
	V361.2c0.6-0.5,1.2-1,1.7-1.5l0.3,0L634,119.9l34.3-34.3C687.8,66.1,657.3,35.9,637.8,55.5z M371.4,321.8L215.6,165.8h232.2
	l-15.6,29.8l-14.4,27.1c-4.8,9.9,9.9,18.5,15.1,8.6l-0.7,0l34.4-65.4h60.9L398,295.3L371.4,321.8z"/>
</svg>
