<svg xmlns="http://www.w3.org/2000/svg" viewBox="0 0 40.68 40.68"><defs><style>.cls-1{fill:#a0978d;}.cls-2{fill:#f9f6ec;}.cls-3{fill:none;stroke:#f9f6ec;stroke-miterlimit:10;stroke-width:0.75px;}</style></defs><g id="Layer_2" data-name="Layer 2"><g id="Capa_1" data-name="Capa 1"><circle class="cls-1" cx="20.34" cy="20.34" r="20.34"/><path class="cls-2" d="M19.58,19.57V30.62a.63.63,0,0,0,1.25,0v-11a.63.63,0,0,0-1.25,0Z"/><path class="cls-2" d="M11.82,12.26,18.52,19l1,1a.62.62,0,0,0,.88-.88l-6.7-6.71-1-.95a.62.62,0,0,0-.88.88Z"/><path class="cls-2" d="M20.89,20.05l7-7,1-1c.57-.57-.32-1.45-.89-.88l-7,7-1,1a.62.62,0,0,0,.88.88Z"/><path class="cls-2" d="M14.49,14.39H26a.63.63,0,0,0,0-1.25H14.49a.63.63,0,0,0,0,1.25Z"/><path class="cls-2" d="M16.46,31.5H24.1a.63.63,0,0,0,0-1.25H16.46a.63.63,0,0,0,0,1.25Z"/><path class="cls-2" d="M22,16.3l2.93-5.58.42-.79c.15-.29-.28-.54-.43-.25L22,15.26l-.42.79c-.14.29.29.54.44.25Z"/><ellipse class="cls-3" cx="24.26" cy="11.3" rx="0.55" ry="0.42" transform="translate(2.34 26.66) rotate(-60)"/></g></g></svg>