<?xml version="1.0" encoding="utf-8"?>
<!-- Generator: Adobe Illustrator 24.0.0, SVG Export Plug-In . SVG Version: 6.00 Build 0)  -->
<svg version="1.1" id="Capa_1" xmlns="http://www.w3.org/2000/svg" xmlns:xlink="http://www.w3.org/1999/xlink" x="0px" y="0px"
	 viewBox="0 0 33.4 9.7" style="enable-background:new 0 0 33.4 9.7;" xml:space="preserve">
<style type="text/css">
	.st0{fill:#FFFEF4;}
</style>
<g>
	<path class="st0" d="M17.9,4.4c-0.1,0-0.1-0.1-0.2-0.1h-1.1V0.8c0-0.1,0-0.2-0.1-0.3C16.4,0.2,16.2,0,16,0H2.8
		C2.6,0,2.4,0.1,2.3,0.3C2.2,0.4,2.1,0.5,2.1,0.7v3.6H0.6c-0.1,0-0.2,0-0.2,0.1C0.2,4.5,0,4.7,0,5v4.1c0,0.3,0.3,0.6,0.6,0.6
		c0.3,0,0.6-0.3,0.6-0.6V5.6h15.8v3.5c0,0.3,0.3,0.6,0.6,0.6c0.3,0,0.6-0.3,0.6-0.6V5C18.3,4.7,18.1,4.5,17.9,4.4z M3.3,1.3h12v3.1
		h-12V1.3z"/>
	<path class="st0" d="M8.6,2.8H4.7c-0.3,0-0.6,0.2-0.6,0.5s0.2,0.5,0.6,0.5h3.9c0.3,0,0.5-0.2,0.5-0.5C9.2,3.1,8.9,2.8,8.6,2.8z"/>
	<path class="st0" d="M14.1,2.8h-3.9C9.8,2.8,9.6,3,9.6,3.3c0,0.3,0.2,0.5,0.5,0.5h3.9c0.3,0,0.5-0.2,0.5-0.6
		C14.6,3,14.4,2.8,14.1,2.8z"/>
	<path class="st0" d="M23.1,4.4L23.1,4.4c0.7-0.5,1.5-0.7,2.3-0.8c0.9,0,1.7,0.2,2.6,0.5c1.6,0.6,3.5,0.6,5.1-0.1
		c0.7-0.3,0.1-1.4-0.6-1.1c-0.8,0.4-1.7,0.5-2.5,0.4C29,3.2,28.2,3,27.3,2.6c-1.6-0.4-3.4-0.2-4.8,0.7C21.8,3.8,22.5,4.9,23.1,4.4z"
		/>
	<path class="st0" d="M32.5,5.6c-0.8,0.4-1.7,0.5-2.5,0.4c-0.9-0.2-1.7-0.4-2.6-0.7c-1.6-0.4-3.4-0.2-4.8,0.7
		c-0.7,0.4-0.1,1.5,0.6,1.1h0c0.7-0.4,1.5-0.7,2.3-0.8c0.9,0,1.7,0.2,2.6,0.5c1.6,0.6,3.5,0.6,5.1-0.2C33.8,6.4,33.2,5.3,32.5,5.6z"
		/>
</g>
</svg>
