<svg id="Capa_1" data-name="Capa 1" xmlns="http://www.w3.org/2000/svg" viewBox="0 0 110 5.46">
  <defs>
    <style>
      .cls-1 {
        fill: #f9f6ed;
      }
    </style>
  </defs>
  <title>separator</title>
  <path class="cls-1" d="M110,5.46V1.11a3.63,3.63,0,0,1-1.44,0c-1.06-.26-2,.92-2.9.7l-.24-.12-.75-.29h-1.18c-.63.16-1.27.31-2,.46a7.15,7.15,0,0,1-3.54,0c-.09,0-.14.05-.19.18L97.6,2l-.1.15a2.08,2.08,0,0,1-.13.3h-.08a23.62,23.62,0,0,0-3-.7.79.79,0,0,0-.56.12c-1.07-.15-2.13-.26-3.19-.34a2.11,2.11,0,0,1-.68-.46H90c.77,0,1.51,0,2.24.08s1.2.16,1.79.22l.56.09-.36-.06c.72.08,1.45.15,2.28.19A24.34,24.34,0,0,0,90.11.79c-1.49,0-3.51.91-5.32.78a67.34,67.34,0,0,0-8.24-.8C65.14.87,55.09-.64,44.24.33c-2,0-4-.12-5.65,0-7,.79-15.07-2-20.76,1.35-2.71,1.59-7,1.55-8,1a4,4,0,0,1,.75-.36h.21l.1-.3-.42.15v0l-.85.19c0-.16.28-.33.84-.51-.44.13-.85.23-1.25.32a.34.34,0,0,1,0-.16l.1-.15c-1.48.45-3,0-4.57.18C2.4,2.29.82,1,0,1.88c0,.05,0,3.58,0,3.58Z" transform="translate(0.02)"/>
</svg>
