<svg xmlns="http://www.w3.org/2000/svg" viewBox="0 0 40.68 40.68"><defs><style>.cls-1{fill:#a0978d;}.cls-2{fill:#f9f6ec;}</style></defs><g id="Layer_2" data-name="Layer 2"><g id="Capa_1" data-name="Capa 1"><circle class="cls-1" cx="20.34" cy="20.34" r="20.34"/><path class="cls-2" d="M13.45,24.44v4.13a.64.64,0,0,0,.62.63.65.65,0,0,0,.63-.63V24.44a.63.63,0,0,0-1.25,0Z"/><path class="cls-2" d="M8.93,16.05V28.57a.63.63,0,0,0,1.25,0V16.05a.63.63,0,0,0-1.25,0Z"/><path class="cls-2" d="M17.5,11.64,10.25,15l-1,.48c-.72.34-.09,1.42.64,1.08l7.25-3.38,1-.48c.73-.34.1-1.41-.63-1.08Z"/><path class="cls-2" d="M20.22,13.74,18.46,12l-.25-.25a.54.54,0,0,0-.76,0,.56.56,0,0,0,0,.76l1.76,1.76.25.25a.56.56,0,0,0,.76,0,.55.55,0,0,0,0-.76Z"/><path class="cls-2" d="M17.63,15.17l.28-2.46,0-.36a.53.53,0,0,0-.54-.53.54.54,0,0,0-.54.53l-.27,2.47,0,.35a.54.54,0,0,0,.53.54.54.54,0,0,0,.54-.54Z"/><path class="cls-2" d="M17.28,15.68l2.33-.87.33-.13a.56.56,0,0,0,.38-.66.54.54,0,0,0-.67-.37l-2.32.87-.33.13a.56.56,0,0,0-.38.66.55.55,0,0,0,.66.37Z"/><path class="cls-2" d="M15.53,20.21v4.05a.62.62,0,0,0,.62.62.63.63,0,0,0,.63-.62V20.21a.63.63,0,0,0-1.25,0Z"/><path class="cls-2" d="M28.8,20.21v4.05a.63.63,0,0,0,1.25,0V20.21a.62.62,0,0,0-.62-.62.63.63,0,0,0-.63.62Z"/><path class="cls-2" d="M30.51,24.44v4.13a.63.63,0,1,0,1.25,0V24.44a.62.62,0,0,0-.62-.62.63.63,0,0,0-.63.62Z"/><path class="cls-2" d="M14.08,25.06H31.14a.63.63,0,0,0,0-1.25H14.08a.63.63,0,0,0,0,1.25Z"/><path class="cls-2" d="M16.21,20.72H29.43a.63.63,0,0,0,0-1.25H16.21a.63.63,0,0,0,0,1.25Z"/><path class="cls-2" d="M18.16,23.38h3.93a.56.56,0,0,0,.55-.55.57.57,0,0,0-.55-.55H18.16a.56.56,0,0,0-.55.55.55.55,0,0,0,.55.55Z"/><path class="cls-2" d="M23.58,23.35h3.93a.56.56,0,0,0,.55-.55.55.55,0,0,0-.55-.55H23.58a.56.56,0,0,0-.55.55.57.57,0,0,0,.55.55Z"/></g></g></svg>