<svg xmlns="http://www.w3.org/2000/svg" viewBox="0 0 40.68 40.68"><defs><style>.cls-1{fill:#a0978d;}.cls-2{fill:#f9f6ec;}</style></defs><g id="Layer_2" data-name="Layer 2"><g id="Capa_1" data-name="Capa 1"><circle class="cls-1" cx="20.34" cy="20.34" r="20.34"/><path class="cls-2" d="M11.18,20.44v4.14a.63.63,0,0,0,.63.62.62.62,0,0,0,.62-.62V20.44a.63.63,0,0,0-1.25,0Z"/><path class="cls-2" d="M13.26,16.22v4a.63.63,0,1,0,1.25,0v-4a.64.64,0,0,0-.62-.63.65.65,0,0,0-.63.63Z"/><path class="cls-2" d="M26.54,16.22v4a.63.63,0,0,0,.62.63.65.65,0,0,0,.63-.63v-4a.63.63,0,1,0-1.25,0Z"/><path class="cls-2" d="M28.24,20.44v4.14a.63.63,0,0,0,.63.62.62.62,0,0,0,.62-.62V20.44a.62.62,0,0,0-.62-.62.63.63,0,0,0-.63.62Z"/><path class="cls-2" d="M11.81,21.07H28.87a.63.63,0,0,0,0-1.25H11.81a.63.63,0,0,0,0,1.25Z"/><path class="cls-2" d="M13.94,16.73H27.16a.63.63,0,0,0,0-1.25H13.94a.63.63,0,0,0,0,1.25Z"/><path class="cls-2" d="M15.89,19.39h3.93a.55.55,0,0,0,0-1.1H15.89a.55.55,0,0,0,0,1.1Z"/><path class="cls-2" d="M21.32,19.35h3.93a.56.56,0,0,0,.55-.55.55.55,0,0,0-.55-.55H21.32a.55.55,0,0,0,0,1.1Z"/></g></g></svg>