<svg id="Capa_1" data-name="Capa 1" xmlns="http://www.w3.org/2000/svg" viewBox="0 0 14.69 19.23">
  <defs>
    <style>
      .cls-1 {
        fill: #f9f6ec;
      }
    </style>
  </defs>
  <title>HomasAddedValue_icon</title>
  <g>
    <path class="cls-1" d="M14.43,12.65a4.53,4.53,0,0,0-.07-1.42c0-.13-.08-.31.09-.42a.61.61,0,0,1,.64,0,1.08,1.08,0,0,1,.45.84c.06.66.08,1.33.13,2a1.58,1.58,0,0,1-.38,1c-.35.52-.71,1-1.08,1.55a2.49,2.49,0,0,1-.4.46,2.51,2.51,0,0,0-.78.9c-.11.26-.43.37-.71.47a2.24,2.24,0,0,0-.55.35,3.72,3.72,0,0,1-1.54.66,7.2,7.2,0,0,1-2.07.18A4.84,4.84,0,0,1,6,18.51c-.39-.24-1.42-.73-1.56-.88s-1.39-1.22-1.87-1.78a6.71,6.71,0,0,1-1-1.25,3,3,0,0,1-.33-1A14,14,0,0,1,1.1,9.53,8.76,8.76,0,0,1,2.2,7.15a5.07,5.07,0,0,1,3-2.36,20.18,20.18,0,0,1,2.39-.56,6.58,6.58,0,0,1,2.38.2,8.93,8.93,0,0,1,1.43.4,1.85,1.85,0,0,1,.8.52,2,2,0,0,0,.77.48,1.08,1.08,0,0,1,.75.89c0,.4.17.91-.27,1.22A1.48,1.48,0,0,1,12,8.26a6.86,6.86,0,0,1-1.81-.82,2.61,2.61,0,0,0-.87-.28,4.31,4.31,0,0,0-1.51-.25A3.72,3.72,0,0,0,4.57,8.64c-.34.58-.72,1.15-1,1.76a2,2,0,0,0-.22.83c0,.46-.06.91-.09,1.37a1.34,1.34,0,0,0,.41,1.12,1.55,1.55,0,0,1,.33.39,15.53,15.53,0,0,0,1.44,1.6c0,.06.15.09.19.16.45.75,1.27.94,2,1.27a2.1,2.1,0,0,0,1.21.13A4.51,4.51,0,0,1,10,17.18c.23,0,.36-.16.55-.23a8.26,8.26,0,0,0,2.42-1.28A3.13,3.13,0,0,0,14.41,13C14.42,12.93,14.43,12.79,14.43,12.65Z" transform="translate(-0.99 0)"/>
    <path class="cls-1" d="M3.29,1.36a.65.65,0,0,0,0-.24c-.11-.31,0-.5.32-.51.09,0,.19,0,.19-.14,0-.42.35-.42.64-.45A1.38,1.38,0,0,1,5.53.26.65.65,0,0,0,6.2.37a.83.83,0,0,1,.69,0c.11,0,.22.14.34.1A2.75,2.75,0,0,1,9.18.77a.83.83,0,0,0,.34.07.63.63,0,0,1,.64.21c.09.11.25.08.39.09a3.42,3.42,0,0,1,1.35.26c.09,0,.2.07.25.17a.14.14,0,0,1-.1.23.7.7,0,0,1-.35-.06,4.53,4.53,0,0,0-2.16.17c-.12,0-.26.06-.3.18-.13.39-.46.31-.73.31a4.75,4.75,0,0,1-.91-.13,1,1,0,0,0-.7.08,4.25,4.25,0,0,1-2.78.35.25.25,0,0,1-.18-.08C3.63,2.23,3.18,1.91,3.29,1.36Z" transform="translate(-0.99 0)"/>
  </g>
</svg>
