<svg xmlns="http://www.w3.org/2000/svg" viewBox="0 0 16.07 21.09"><defs><style>.cls-1{fill:#f9f6ec;}</style></defs><g id="Layer_2" data-name="Layer 2"><g id="Capa_1" data-name="Capa 1"><path class="cls-1" d="M8,0A8,8,0,0,0,0,8c0,2.86.87,4,5.05,9.52.73,1,1.55,2,2.49,3.3a.63.63,0,0,0,1,0c.93-1.25,1.75-2.33,2.48-3.28C15.2,12,16.07,10.89,16.07,8A8,8,0,0,0,8,0Zm2,16.82L8,19.45,6,16.8C2,11.44,1.24,10.48,1.24,8A6.8,6.8,0,0,1,14.83,8c0,2.44-.73,3.41-4.81,8.79Z"/><path class="cls-1" d="M8,3.71A4.33,4.33,0,1,0,12.36,8,4.33,4.33,0,0,0,8,3.71Zm0,7.41A3.09,3.09,0,1,1,11.12,8,3.09,3.09,0,0,1,8,11.12Z"/></g></g></svg>