<svg xmlns="http://www.w3.org/2000/svg" viewBox="0 0 17.6 21.29"><defs><style>.cls-1{fill:#f9f6ec;}</style></defs><g id="Layer_2" data-name="Layer 2"><g id="Capa_1" data-name="Capa 1"><path class="cls-1" d="M2.13,18.44c-.49-4.15-.35-9.38,3.54-12,3.17-2.09,7.8-1.83,9.8-5.55L14.33.79a25.59,25.59,0,0,1,1.92,7.49,12.34,12.34,0,0,1-.06,3.79,8,8,0,0,1-1.94,3.28c-1.52,1.8-3.07,3.41-5.48,3.87a16.25,16.25,0,0,1-7-.65l.37.92a65.84,65.84,0,0,1,8-9.94.63.63,0,0,0-.89-.88A67.88,67.88,0,0,0,1.07,18.85a.63.63,0,0,0,.38.92,17.82,17.82,0,0,0,7.5.68c2.69-.47,4.49-2.21,6.19-4.22a10.92,10.92,0,0,0,2-3.06,9.63,9.63,0,0,0,.4-4,26.86,26.86,0,0,0-2-8.69A.64.64,0,0,0,14.39.3c-1,1.89-3.05,2.68-5,3.31S5.36,4.89,3.8,6.4C.6,9.52.39,14.27.88,18.44c.09.79,1.34.8,1.25,0Z"/><path class="cls-1" d="M1.32,18.45c-.42.62-.84,1.26-1.24,1.9a.64.64,0,0,0,.23.86A.63.63,0,0,0,1.16,21c.4-.64.81-1.27,1.24-1.9a.62.62,0,0,0,.07-.48.67.67,0,0,0-.29-.37.64.64,0,0,0-.86.22Z"/></g></g></svg>