<svg xmlns="http://www.w3.org/2000/svg" viewBox="0 0 40.68 40.68"><defs><style>.cls-1{fill:#a0978d;}.cls-2{fill:#f6f7e7;}.cls-3{fill:#f9f6ec;}</style></defs><g id="Layer_2" data-name="Layer 2"><g id="Capa_1" data-name="Capa 1"><circle class="cls-1" cx="20.34" cy="20.34" r="20.34"/><line class="cls-2" x1="19.37" y1="11.07" x2="10.18" y2="20.26"/><path class="cls-3" d="M18.93,10.63l-8,8L9.74,19.82a.62.62,0,0,0,.88.88l8.05-8,1.14-1.15a.62.62,0,0,0-.88-.88Z"/><line class="cls-2" x1="19.35" y1="29.61" x2="10.12" y2="20.38"/><path class="cls-3" d="M19.79,29.17l-8.08-8.08-1.15-1.15a.62.62,0,0,0-.88.88l8.08,8.08,1.15,1.15a.62.62,0,0,0,.88-.88Z"/><line class="cls-2" x1="21.31" y1="29.61" x2="30.5" y2="20.42"/><path class="cls-3" d="M21.75,30.05l8.05-8,1.14-1.15a.62.62,0,0,0-.88-.88l-8,8-1.14,1.15a.62.62,0,0,0,.88.88Z"/><line class="cls-2" x1="21.33" y1="11.07" x2="30.56" y2="20.3"/><path class="cls-3" d="M20.89,11.51,29,19.59l1.15,1.15a.62.62,0,0,0,.88-.88l-8.08-8.08-1.15-1.15a.62.62,0,0,0-.88.88Z"/><line class="cls-2" x1="16.74" y1="18.75" x2="23.91" y2="18.75"/><path class="cls-3" d="M16.74,19.37h7.17a.63.63,0,0,0,0-1.25H16.74a.63.63,0,0,0,0,1.25Z"/><line class="cls-2" x1="16.74" y1="21.55" x2="23.91" y2="21.55"/><path class="cls-3" d="M16.74,22.18h7.17a.63.63,0,0,0,0-1.25H16.74a.63.63,0,0,0,0,1.25Z"/></g></g></svg>