<svg xmlns="http://www.w3.org/2000/svg" viewBox="0 0 40.68 40.68"><defs><style>.cls-1{fill:#a0978d;}.cls-2{fill:#f9f6ec;}</style></defs><g id="Layer_2" data-name="Layer 2"><g id="Capa_1" data-name="Capa 1"><circle class="cls-1" cx="20.34" cy="20.34" r="20.34"/><path class="cls-2" d="M31.87,20.34a1.75,1.75,0,0,0-1.56-1.73,10.15,10.15,0,0,0-1.69-4.09,1.73,1.73,0,0,0,.45-1.16,1.75,1.75,0,0,0-1.74-1.76,1.73,1.73,0,0,0-1.18.47,9.93,9.93,0,0,0-4.08-1.7,1.74,1.74,0,0,0-3.46,0,10.15,10.15,0,0,0-4.09,1.69,1.74,1.74,0,0,0-2.46,2.46,10.15,10.15,0,0,0-1.69,4.09,1.74,1.74,0,0,0,0,3.46,10.05,10.05,0,0,0,1.69,4.08,1.78,1.78,0,0,0-.45,1.17,1.73,1.73,0,0,0,2.92,1.29,9.93,9.93,0,0,0,4.08,1.7,1.74,1.74,0,0,0,3.46,0,10.15,10.15,0,0,0,4.09-1.69,1.73,1.73,0,0,0,1.17.46,1.75,1.75,0,0,0,1.74-1.76,1.72,1.72,0,0,0-.46-1.17,9.93,9.93,0,0,0,1.7-4.08A1.75,1.75,0,0,0,31.87,20.34Zm-4.54,5.24a1.65,1.65,0,0,0-1,.29L24.53,24a5.68,5.68,0,0,0,1.38-3.35h2.5A1.73,1.73,0,0,0,29.62,22a9.5,9.5,0,0,1-1.57,3.74A1.76,1.76,0,0,0,27.33,25.58Zm-10-1.38v-.07a3.71,3.71,0,0,1,0-.47.75.75,0,0,1,0-.16,1.32,1.32,0,0,1,.07-.3,1,1,0,0,1,.06-.18,1.62,1.62,0,0,1,.11-.28l.08-.17.14-.25.11-.16a2.15,2.15,0,0,1,.18-.24l.11-.12a2.61,2.61,0,0,1,.22-.24l.13-.1a2.43,2.43,0,0,1,.25-.2l.13-.07,0,0a2.09,2.09,0,0,0,1.29.46,2.14,2.14,0,0,0,1.29-.46c.05,0,.12.06.17.1h0a2.54,2.54,0,0,1,.36.29h0a2.5,2.5,0,0,1,.31.34h0a2.09,2.09,0,0,1,.27.39s0,0,0,0a1.94,1.94,0,0,1,.22.4,0,0,0,0,1,0,0,3.89,3.89,0,0,1,.16.44s0,0,0,0a3.13,3.13,0,0,1,.1.44h0a3.57,3.57,0,0,1,0,.46s0,.05,0,.07A4.86,4.86,0,0,1,17.35,24.2Zm-3,1.67a1.7,1.7,0,0,0-1.69-.12A9.37,9.37,0,0,1,11.07,22a1.74,1.74,0,0,0,1.2-1.31h2.5A5.51,5.51,0,0,0,16.15,24Zm-1-10.77a1.73,1.73,0,0,0,1-.29l1.84,1.83A5.53,5.53,0,0,0,14.77,20h-2.5a1.74,1.74,0,0,0-1.2-1.31,9.51,9.51,0,0,1,1.55-3.75A1.66,1.66,0,0,0,13.35,15.1Zm7,.35a4.84,4.84,0,0,1,3.45,1.43,4.9,4.9,0,0,1,.2,6.71h0a3,3,0,0,0-.09-.43s0-.05,0-.07-.09-.27-.14-.4l0-.06c0-.14-.12-.27-.18-.41l0,0a4.49,4.49,0,0,0-.54-.8h0a4.1,4.1,0,0,0-.86-.75,2.44,2.44,0,0,0,.43-1.39,2.2,2.2,0,0,0-4.4,0,2.44,2.44,0,0,0,.43,1.39,4.29,4.29,0,0,0-1.62,2l0,.05a3.17,3.17,0,0,0-.14.4.2.2,0,0,0,0,.07,3.29,3.29,0,0,0-.09.43h0a4.89,4.89,0,0,1,3.66-8.14Zm6-.64a1.73,1.73,0,0,0,1,.29,1.66,1.66,0,0,0,.73-.17,9.51,9.51,0,0,1,1.55,3.75A1.72,1.72,0,0,0,28.41,20h-2.5a5.68,5.68,0,0,0-1.38-3.35Zm-7.53,4.44a1.5,1.5,0,0,1,3,0,1.51,1.51,0,1,1-3,0Zm12.33,1.09a1.05,1.05,0,1,1-1.05-1.05A1,1,0,0,1,31.17,20.34Zm-3.84-8a1,1,0,1,1-1,1A1,1,0,0,1,27.33,12.31ZM22,11.06a9.1,9.1,0,0,1,3.74,1.57,1.77,1.77,0,0,0-.16.73,1.72,1.72,0,0,0,.29,1L24,16.16a5.47,5.47,0,0,0-3.34-1.39v-2.5A1.72,1.72,0,0,0,22,11.06ZM20.34,9.51a1,1,0,1,1-1.05,1.05A1,1,0,0,1,20.34,9.51ZM20,12.27v2.5a5.45,5.45,0,0,0-3.34,1.39l-1.84-1.85a1.7,1.7,0,0,0,.12-1.69,9.31,9.31,0,0,1,3.75-1.55A1.72,1.72,0,0,0,20,12.27Zm-6.64,0a1,1,0,1,1,0,2.09,1,1,0,0,1,0-2.09Zm-3.84,8a1.05,1.05,0,1,1,1.05,1A1,1,0,0,1,9.51,20.34Zm3.84,8a1,1,0,1,1,1.05-1.05A1,1,0,0,1,13.35,28.37Zm5.32,1.24a9.32,9.32,0,0,1-3.74-1.55,1.7,1.7,0,0,0-.12-1.69l1.83-1.84.14.12A5.51,5.51,0,0,0,20,25.91v2.5A1.77,1.77,0,0,0,18.67,29.61Zm1.67,1.56a1,1,0,1,1,1.05-1.05A1,1,0,0,1,20.34,31.17Zm.35-2.76v-2.5a5.48,5.48,0,0,0,3.2-1.26h0a.87.87,0,0,0,.14-.12l1.84,1.84a1.72,1.72,0,0,0-.29.95,1.86,1.86,0,0,0,.16.74A9.21,9.21,0,0,1,22,29.61,1.74,1.74,0,0,0,20.69,28.41Zm6.64,0a1,1,0,1,1,1-1.05A1,1,0,0,1,27.33,28.37Z"/></g></g></svg>