<svg xmlns="http://www.w3.org/2000/svg" viewBox="0 0 40.68 40.68"><defs><style>.cls-1{fill:#a0978d;}.cls-2{fill:#f9f6ec;}</style></defs><g id="Layer_2" data-name="Layer 2"><g id="Capa_1" data-name="Capa 1"><circle class="cls-1" cx="20.34" cy="20.34" r="20.34"/><path class="cls-2" d="M21.36,24.58l.07-.06.06,0c2.34-2.5,3.43-5.09,3.22-7.7A10.28,10.28,0,0,0,21,10.13a.45.45,0,0,0-.6,0C18,12.72,16.93,15.34,17.15,18a10.13,10.13,0,0,0,3.74,6.58h0a.49.49,0,0,0,.24.08h.05l.07,0Zm0-8.06a.42.42,0,0,0-.07-.33A.44.44,0,0,0,21,16a.44.44,0,0,0-.33.07.44.44,0,0,0-.19.29,28,28,0,0,0,.1,6.69A8.84,8.84,0,0,1,18,17.87c-.19-2.25.73-4.52,2.73-6.76a9.31,9.31,0,0,1,3.05,5.76A8.74,8.74,0,0,1,21.5,23.1,29.42,29.42,0,0,1,21.38,16.52Z"/><path class="cls-2" d="M31.65,15.74a1.61,1.61,0,0,0-1.06-.56,1.57,1.57,0,0,0-1.14.35,1.61,1.61,0,0,0-.56,1l-.75,4.64a1.65,1.65,0,0,0-.83.26l-3,1.62a2.68,2.68,0,0,0-.95.85L21.88,26a2.7,2.7,0,0,0,.69,3.73l.88.6a1.49,1.49,0,0,0,.89.28,1.55,1.55,0,0,0,.94-.32L29,27.49a3.81,3.81,0,0,0,1.29-1.75l1.18-3.32a2.2,2.2,0,0,0,.15-.71L32,16.88A1.59,1.59,0,0,0,31.65,15.74Zm-2,.94.09,0a.71.71,0,0,1,.75-.61.73.73,0,0,1,.47.25.72.72,0,0,1,.15.49l-.35,4.86a1.65,1.65,0,0,1-.1.48L29.5,25.44a3,3,0,0,1-1,1.36l-3.75,2.83a.69.69,0,0,1-.8,0L23.07,29a1.73,1.73,0,0,1-.75-1.16,1.81,1.81,0,0,1,.28-1.36L24,24.43a1.86,1.86,0,0,1,.64-.57l3.06-1.64a.8.8,0,0,1,.43-.13.65.65,0,0,1,.54.32.7.7,0,0,1-.17.94l-3.24,1.9a.44.44,0,0,0,.45.75L29,24.09a1.57,1.57,0,0,0,.43-2.17,1.64,1.64,0,0,0-.45-.46l.78-4.76-.09,0Z"/><path class="cls-2" d="M18.28,23.8a2.68,2.68,0,0,0-1.05-.71L14,21.91a1.62,1.62,0,0,0-.88-.14l-1.39-4.51a1.54,1.54,0,0,0-.7-.94,1.52,1.52,0,0,0-1.18-.19,1.49,1.49,0,0,0-1,.7A1.54,1.54,0,0,0,8.71,18l1,4.75a2.31,2.31,0,0,0,.25.68l1.63,3.12a3.75,3.75,0,0,0,1.52,1.56l4.1,2.29a1.6,1.6,0,0,0,.76.2A1.55,1.55,0,0,0,19,30.18l.78-.72A2.68,2.68,0,0,0,20,25.67Zm-8.71-6a.61.61,0,0,1,.08-.51.68.68,0,0,1,.43-.31.64.64,0,0,1,.52.08.7.7,0,0,1,.3.43s0,0,0,0l1.42,4.6a1.65,1.65,0,0,0-.39.51,1.56,1.56,0,0,0-.06,1.2,1.59,1.59,0,0,0,.81.9l3.46,1.43a.38.38,0,0,0,.33,0,.39.39,0,0,0,.24-.23.44.44,0,0,0-.23-.57l-3.44-1.43a.69.69,0,0,1-.32-.92.66.66,0,0,1,.95-.3l3.23,1.19a1.76,1.76,0,0,1,.72.48l1.71,1.87a1.83,1.83,0,0,1,.47,1.3,1.79,1.79,0,0,1-.59,1.26l-.78.72a.7.7,0,0,1-.8.09l-4.11-2.29a2.94,2.94,0,0,1-1.17-1.2L10.74,23a2,2,0,0,1-.17-.46l-1-4.73h0Zm0,0Z"/></g></g></svg>