<svg xmlns="http://www.w3.org/2000/svg" viewBox="0 0 22.75 16.38"><defs><style>.cls-1{fill:#f9f6ec;stroke:#f9f6ec;stroke-miterlimit:10;stroke-width:0.18px;}</style></defs><g id="Layer_2" data-name="Layer 2"><g id="Capa_1" data-name="Capa 1"><path class="cls-1" d="M11.41,12.34a2,2,0,1,0,2,2A2,2,0,0,0,11.41,12.34Z"/><path class="cls-1" d="M11.34,8.27A7.49,7.49,0,0,0,6,10.48a.43.43,0,0,0-.13.3.44.44,0,0,0,.13.31.42.42,0,0,0,.3.12h0a.43.43,0,0,0,.31-.12,6.74,6.74,0,0,1,4.8-2,6.65,6.65,0,0,1,4.73,2,.45.45,0,0,0,.61,0,.44.44,0,0,0,.13-.31.43.43,0,0,0-.13-.3A7.56,7.56,0,0,0,11.34,8.27Z"/><path class="cls-1" d="M11.34.09A15.63,15.63,0,0,0,.22,4.7a.43.43,0,0,0,0,.61.41.41,0,0,0,.3.12.42.42,0,0,0,.3-.12,15,15,0,0,1,21.11,0,.43.43,0,0,0,.61-.61A15.73,15.73,0,0,0,11.34.09Z"/><path class="cls-1" d="M11.34,4.57a11.15,11.15,0,0,0-7.95,3.3.41.41,0,0,0,0,.6.42.42,0,0,0,.3.13h0A.43.43,0,0,0,4,8.47a10.43,10.43,0,0,1,7.42-3,10.32,10.32,0,0,1,7.35,3,.43.43,0,0,0,.61,0,.44.44,0,0,0,0-.6A11.26,11.26,0,0,0,11.34,4.57Z"/></g></g></svg>