<svg xmlns="http://www.w3.org/2000/svg" viewBox="0 0 20.9 24.04"><defs><style>.cls-1{fill:#f9f6ec;stroke:#f9f6ec;stroke-miterlimit:10;stroke-width:0.18px;}</style></defs><g id="Layer_2" data-name="Layer 2"><g id="Capa_1" data-name="Capa 1"><path class="cls-1" d="M10.45,6.29a3.1,3.1,0,1,1,3.1-3.1A3.1,3.1,0,0,1,10.45,6.29Zm0-5.22a2.13,2.13,0,1,0,2.12,2.12A2.13,2.13,0,0,0,10.45,1.07Z"/><path class="cls-1" d="M1.86,17.18a2.76,2.76,0,0,1-1.55-.52A.48.48,0,0,1,.17,16a.49.49,0,0,1,.68-.14,1.58,1.58,0,0,0,1.53.25c.83-.36,1.48-1.6,1.78-3.41C5,7.84,6.68,7.06,10.45,7.06a.49.49,0,0,1,.49.49.48.48,0,0,1-.49.48c-3.21,0-4.59.44-5.33,4.82C4.76,15,3.93,16.49,2.77,17A2.25,2.25,0,0,1,1.86,17.18Z"/><path class="cls-1" d="M19,17.18a2.22,2.22,0,0,1-.91-.19c-1.16-.5-2-2-2.35-4.14C15,8.47,13.66,8,10.45,8A.48.48,0,0,1,10,7.55a.49.49,0,0,1,.49-.49c3.77,0,5.48.78,6.29,5.63.3,1.81,1,3.05,1.78,3.41a1.55,1.55,0,0,0,1.53-.25.49.49,0,0,1,.68.14.48.48,0,0,1-.14.67A2.76,2.76,0,0,1,19,17.18Z"/><path class="cls-1" d="M4.33,24a3.37,3.37,0,0,1-2-.52A2.88,2.88,0,0,1,1.25,20.9c0-1.82,1.81-2.81,3.4-3.68,1.24-.68,2.41-1.32,2.41-2.12V11.61a.49.49,0,0,1,.49-.49.48.48,0,0,1,.48.49V15.1c0,1.38-1.48,2.19-2.91,3S2.23,19.66,2.23,20.9a1.93,1.93,0,0,0,.69,1.73c.87.6,2.63.43,5.09-.5a.5.5,0,0,1,.63.29.49.49,0,0,1-.29.63A11.92,11.92,0,0,1,4.33,24Z"/><path class="cls-1" d="M16.56,24a16,16,0,0,1-6.32-1.89.49.49,0,0,1,.42-.89c3.54,1.69,6.12,2.22,7.27,1.5a1.92,1.92,0,0,0,.74-1.77c0-1.15-1.28-1.79-2.63-2.46s-3.18-1.59-3.18-3.34V11.61a.49.49,0,1,1,1,0V15.1c0,1.14,1.28,1.78,2.63,2.46s3.18,1.59,3.18,3.34a2.84,2.84,0,0,1-1.2,2.59A3.48,3.48,0,0,1,16.56,24Z"/><path class="cls-1" d="M10.45,22.1a.52.52,0,0,1-.21,0c-2-.94-3.47-1.86-3.53-1.9a.5.5,0,0,1-.16-.68.48.48,0,0,1,.67-.15s1.52.93,3.44,1.84a.5.5,0,0,1,.23.66A.49.49,0,0,1,10.45,22.1Z"/></g></g></svg>