<svg xmlns="http://www.w3.org/2000/svg" viewBox="0 0 24.75 18.79"><defs><style>.cls-1{fill:#f9f6ec;stroke:#f9f6ec;stroke-miterlimit:10;stroke-width:0.18px;}</style></defs><g id="Layer_2" data-name="Layer 2"><g id="Capa_1" data-name="Capa 1"><path class="cls-1" d="M24.55,12.11,22.8,10.36a5.72,5.72,0,0,0,1.14-.79,2,2,0,0,0-1.4-3.39,2,2,0,0,0-1.41.58,5.72,5.72,0,0,0-.79,1.14L18.59,6.15,12.64.2a.37.37,0,0,0-.53,0L10.36,1.94A5.52,5.52,0,0,0,9.58.81a2,2,0,0,0-2.82,0,2,2,0,0,0,0,2.8,5.73,5.73,0,0,0,1.15.79L6.16,6.15,4.05,8.26a.36.36,0,0,0-.11.32.34.34,0,0,0,.21.28,6.08,6.08,0,0,1,1.4.89A1.24,1.24,0,0,1,3.79,11.5a5.89,5.89,0,0,1-.88-1.4.37.37,0,0,0-.6-.1L.2,12.11a.39.39,0,0,0-.11.27.34.34,0,0,0,.11.25L2,14.39a5.36,5.36,0,0,0-1.14.78,2,2,0,0,0-.59,1.4A2,2,0,0,0,.81,18a2,2,0,0,0,1.4.57A2,2,0,0,0,3.61,18a5.34,5.34,0,0,0,.79-1.15l1.76,1.75a.36.36,0,0,0,.26.11.38.38,0,0,0,.26-.11l5.69-5.69,1.49,1.49a5.94,5.94,0,0,0-1.14.78,2,2,0,0,0-.59,1.4A2,2,0,0,0,15.53,18a6.17,6.17,0,0,0,.79-1.15l1.75,1.75a.36.36,0,0,0,.52,0l6-6a.34.34,0,0,0,.11-.25A.39.39,0,0,0,24.55,12.11ZM8.79,4.56a.36.36,0,0,0,.11-.32A.41.41,0,0,0,8.69,4a6.2,6.2,0,0,1-1.4-.89,1.23,1.23,0,0,1-.37-.87,1.32,1.32,0,0,1,.37-.89,1.29,1.29,0,0,1,1.76,0,6.47,6.47,0,0,1,.88,1.42.41.41,0,0,0,.28.2.37.37,0,0,0,.32-.11L12.37,1,17.8,6.41,16,8.18,16,8.26a.37.37,0,0,0,.1.6,5.86,5.86,0,0,1,1.4.89,1.23,1.23,0,0,1,0,1.75,1.27,1.27,0,0,1-1.76,0,6.23,6.23,0,0,1-.88-1.4.38.38,0,0,0-.27-.21h-.06a.35.35,0,0,0-.27.11l-.17.17h0l-1.68,1.67-1.48-1.48A6,6,0,0,0,12,9.57,2,2,0,1,0,9.22,6.76,5.72,5.72,0,0,0,8.43,7.9L7,6.41ZM6.42,17.8,4.57,16a.41.41,0,0,0-.33-.12.4.4,0,0,0-.27.22,6.48,6.48,0,0,1-.88,1.4,1.27,1.27,0,0,1-1.76,0A1.23,1.23,0,0,1,1,16.57a1.19,1.19,0,0,1,.36-.87,6.35,6.35,0,0,1,1.41-.88.38.38,0,0,0,.1-.6L1,12.38l1.49-1.5A4.7,4.7,0,0,0,3.27,12a2,2,0,1,0,2.8-2.8,5.33,5.33,0,0,0-1.14-.79L6.42,6.94,8.05,8.57l.22.21a.33.33,0,0,0,.32.11.34.34,0,0,0,.27-.21,6.44,6.44,0,0,1,.89-1.4,1.26,1.26,0,0,1,1.75,0A1.24,1.24,0,0,1,11.5,9a5.89,5.89,0,0,1-1.4.88.41.41,0,0,0-.2.28.33.33,0,0,0,.1.32l1.85,1.86Zm11.91,0L16.48,16a.38.38,0,0,0-.32-.12.38.38,0,0,0-.27.22,6.44,6.44,0,0,1-.89,1.4,1.26,1.26,0,0,1-1.75,0,1.24,1.24,0,0,1-.37-.89,1.19,1.19,0,0,1,.37-.87,6.23,6.23,0,0,1,1.4-.88.39.39,0,0,0,.2-.28.36.36,0,0,0-.1-.32L12.9,12.38l1.49-1.5A5,5,0,0,0,15.18,12a1.92,1.92,0,0,0,1.4.59A1.94,1.94,0,0,0,18,12a2,2,0,0,0,0-2.8,5.45,5.45,0,0,0-1.15-.79l1.49-1.49,1.85,1.84a.34.34,0,0,0,.33.11.36.36,0,0,0,.27-.21,6.11,6.11,0,0,1,.88-1.4,1.29,1.29,0,0,1,1.76,0,1.26,1.26,0,0,1,0,1.76A6,6,0,0,1,22,9.92a.41.41,0,0,0-.2.28.38.38,0,0,0,.1.32l1.85,1.86Z"/></g></g></svg>