<svg xmlns="http://www.w3.org/2000/svg" viewBox="0 0 23.3 20.77"><defs><style>.cls-1{fill:#f9f6ec;stroke:#f9f6ec;stroke-miterlimit:10;stroke-width:0.18px;}</style></defs><g id="Layer_2" data-name="Layer 2"><g id="Capa_1" data-name="Capa 1"><path class="cls-1" d="M1.83,10.54H2a.39.39,0,0,0,.38-.26L4.18,8.73a.37.37,0,0,0,.14-.29.41.41,0,0,0-.1-.27.41.41,0,0,0-.56,0l-1.19,1A9.5,9.5,0,0,1,21.39,10a.39.39,0,0,0,.41.38.4.4,0,0,0,.38-.39v0a10.29,10.29,0,0,0-20.5-.93L.82,7.81A.41.41,0,0,0,.26,7.7a.4.4,0,0,0-.1.55l1.43,2.13h0v0h0l0,0,0,0,0,0h0l0,0Z"/><path class="cls-1" d="M23.16,14.14,22,11.87v0h0v0l0,0,0,0,0,0,0,0,0,0h-.39l-2.18,1.5a.4.4,0,0,0-.1.55.39.39,0,0,0,.55.1l1.38-1a9.58,9.58,0,0,1-8,6.88c2.62-2.94,3.84-6,3.59-9-.39-4.92-4.38-8-4.55-8.18a.43.43,0,0,0-.59,0C8.52,5.77,7.18,9,7.45,12.21a12.13,12.13,0,0,0,4.1,7.66,9.55,9.55,0,0,1-9-7.64.4.4,0,0,0-.47-.31.4.4,0,0,0-.31.46,10.29,10.29,0,0,0,20,.85l.68,1.28a.41.41,0,0,0,.54.17.43.43,0,0,0,.21-.35A.45.45,0,0,0,23.16,14.14Zm-14.82-2c-.25-2.85.93-5.72,3.48-8.55a11.67,11.67,0,0,1,3.9,7.29c.21,2.68-.83,5.37-3.07,8-.59-6-.18-8.43-.17-8.45a.45.45,0,0,0-.88-.16c0,.1-.43,2.53.16,8.58A11.14,11.14,0,0,1,8.34,12.12Z"/></g></g></svg>