<svg xmlns="http://www.w3.org/2000/svg" viewBox="0 0 22.45 18.28"><defs><style>.cls-1{fill:#f9f6ec;}</style></defs><g id="Layer_2" data-name="Layer 2"><g id="Capa_1" data-name="Capa 1"><path class="cls-1" d="M11.26,11.72h0a4,4,0,0,1-2.87-1.21A4,4,0,0,1,7.19,7.62C7.21,3.88,10.81.29,11,.14a.5.5,0,0,1,.71,0c.15.15,3.69,3.79,3.67,7.53h0A4.08,4.08,0,0,1,11.26,11.72Zm.05-10.48c-.89,1-3.1,3.71-3.12,6.39a3.06,3.06,0,0,0,3.05,3.09h0a3.08,3.08,0,0,0,3.08-3.05C14.36,5,12.18,2.23,11.31,1.24Zm3.53,6.43h0Z"/><path class="cls-1" d="M11.34,15.3h-.13a15,15,0,0,1-4.58-.67c-1.79-.61-2.16-1.41-2.16-2s.37-1.31,2.08-1.9a.5.5,0,1,1,.33,1c-1.11.37-1.41.78-1.41.95s.46.67,1.48,1a13.89,13.89,0,0,0,4.26.62c3.75,0,5.77-1,5.77-1.55,0-.17-.29-.58-1.39-1a.5.5,0,1,1,.34-.94c1.7.6,2.06,1.38,2.05,1.92C18,14.44,14.65,15.3,11.34,15.3Z"/><path class="cls-1" d="M11.39,18.28h-.2a19.84,19.84,0,0,1-7.91-1.5C1.16,15.79,0,14.43,0,12.93c0-2,2.16-3.73,5.74-4.6a.51.51,0,0,1,.61.37A.5.5,0,0,1,6,9.3c-3.06.74-5,2.14-5,3.64C1,14,2,15.06,3.7,15.87a18.73,18.73,0,0,0,7.49,1.41c6.42,0,10.24-2.1,10.26-4.19,0-1.52-1.9-2.94-5-3.73a.5.5,0,0,1-.36-.6.51.51,0,0,1,.61-.37c3.61.92,5.75,2.68,5.74,4.7C22.43,16.11,17.79,18.28,11.39,18.28Z"/></g></g></svg>