<svg xmlns="http://www.w3.org/2000/svg" viewBox="0 0 26.7 16.97"><defs><style>.cls-1{fill:#f9f6ec;}</style></defs><g id="Layer_2" data-name="Layer 2"><g id="Capa_1" data-name="Capa 1"><path class="cls-1" d="M23.88,8h-3.5l-2.2-4.5A2.48,2.48,0,0,0,16,2.16H10.19A2.48,2.48,0,0,0,7.83,3.93L6.5,8.46a.27.27,0,0,0,0,.09.24.24,0,0,0,0,.08v0a.5.5,0,0,0,0,.12l0,.1L6.6,9a.36.36,0,0,0,.08.09.24.24,0,0,0,.08.06l.11.06H7l.08,0h9.52a.59.59,0,1,0,0-1.18H7.85L9,4.26a1.29,1.29,0,0,1,1.23-.92H16a1.28,1.28,0,0,1,1.15.71l2.36,4.84a.6.6,0,0,0,.53.33h3.87a1.65,1.65,0,0,1,1.65,1.64v2.26a.49.49,0,0,1-.48.48.59.59,0,0,0-.59.58,1.62,1.62,0,1,1-3.23,0,.58.58,0,0,0-.59-.58H12.4a.58.58,0,0,0-.59.58,1.62,1.62,0,1,1-3.23,0A.59.59,0,0,0,8,13.6H3.79A1.57,1.57,0,0,1,2.23,12v-1.7A7.38,7.38,0,0,0,5.78,5.75,7.77,7.77,0,0,0,4.55.11.28.28,0,0,0,4.19,0C1.91,1.36.54,3,.13,5a7.38,7.38,0,0,0,.92,5v2a2.74,2.74,0,0,0,2.74,2.74H7.47a2.79,2.79,0,0,0,5.45,0h7.2a2.79,2.79,0,0,0,5.47-.09,1.65,1.65,0,0,0,1.11-1.56V10.86A2.82,2.82,0,0,0,23.88,8ZM.94,5.1A6.15,6.15,0,0,1,4.09,1.21,6.34,6.34,0,0,1,5,5.6,5.81,5.81,0,0,1,2.36,9.12a14.79,14.79,0,0,1,1.28-4.3.5.5,0,1,0-.93-.39A17.74,17.74,0,0,0,1.42,8.6,5.73,5.73,0,0,1,.94,5.1Z"/></g></g></svg>