<svg id="Capa_1" data-name="Capa 1" xmlns="http://www.w3.org/2000/svg" viewBox="0 0 264.3 114.83">
  <defs>
    <style>
      .cls-1 {
        fill: #fff;
      }
    </style>
  </defs>
  <title>homakah-white</title>
  <g>
    <g>
      <path class="cls-1" d="M40.9,26.2V76.6H33.3V52.4H8V76.6H.4V26.2H8V49.7H33.3V26.2Z" transform="translate(-0.4 -0.12)"/>
      <path class="cls-1" d="M201.5,76.6h-7.4l-6-34.6L169.4,76.6,152.3,44.3l-3.7,32.3h-3.1l5.8-50.4,20.6,39.1,21.3-39.1,8.7,50.3Z" transform="translate(-0.4 -0.12)"/>
      <path class="cls-1" d="M219,76.6l22.6-50.4,23.1,50.4h-8.3l-4.3-9.5H226.7l-4.3,9.5Zm8.8-12.1h23L239.2,39.2Z" transform="translate(-0.4 -0.12)"/>
    </g>
    <g>
      <path class="cls-1" d="M121.9,57.9c0-2.2.4-4.3-.3-6.5-.2-.6-.4-1.4.4-1.9a2.57,2.57,0,0,1,2.9.2,5.25,5.25,0,0,1,2.1,3.8c.3,3,.4,6,.6,9,.1,1.7-.8,3.1-1.7,4.5-1.6,2.4-3.3,4.7-4.9,7.1a9.09,9.09,0,0,1-1.8,2.1c-1.4,1.2-2.8,2.3-3.5,4.1-.5,1.2-2,1.7-3.2,2.2A10.37,10.37,0,0,0,110,84a16.76,16.76,0,0,1-7,3,33.64,33.64,0,0,1-9.5.8,23.12,23.12,0,0,1-9.9-3.2c-1.8-1.1-6.5-3.3-7.1-4S70.1,75,68,72.4s-2.3-2-4.6-5.7A12.28,12.28,0,0,1,61.9,62c-.5-2.3-1.8-13.5-.6-18.5s3.1-7.4,5-10.9c3-5.4,7.6-8.8,13.5-10.8a101.6,101.6,0,0,1,10.9-2.6c3.7-.7,7.3.3,10.9.9a37.18,37.18,0,0,1,6.5,1.9,8.91,8.91,0,0,1,3.7,2.3,8.66,8.66,0,0,0,3.5,2.2,5.08,5.08,0,0,1,3.4,4.1c.1,1.8.8,4.1-1.2,5.5s-4,2.4-6.5,1.5c-2.8-1.1-5.8-1.9-8.3-3.7-1.2-.9-2.6-.9-4-1.3a20,20,0,0,0-6.9-1.1c-6,.6-11.4,2.1-14.7,7.9-1.6,2.7-3.3,5.3-4.7,8a8.61,8.61,0,0,0-1,3.8c-.1,2.1-.3,4.2-.4,6.3a6.21,6.21,0,0,0,1.9,5.1,6.55,6.55,0,0,1,1.5,1.8c1.8,2.8,4.5,4.7,6.6,7.3.2.3.7.4.9.7,2.1,3.4,5.8,4.3,9.1,5.8a10.23,10.23,0,0,0,5.5.6,19,19,0,0,1,5.3-.4c1.1.1,1.7-.7,2.5-1.1a39.52,39.52,0,0,0,11.1-5.9c3.8-3,7.1-6.6,6.8-12C121.8,59.1,121.9,58.5,121.9,57.9Z" transform="translate(-0.4 -0.12)"/>
      <path class="cls-1" d="M71,6.3a4.1,4.1,0,0,0,.1-1.1c-.5-1.4-.2-2.3,1.5-2.3.4,0,.9-.2.9-.6C73.7.4,75.1.4,76.4.2a5.91,5.91,0,0,1,4.8,1.1,3.11,3.11,0,0,0,3.1.5,4.42,4.42,0,0,1,3.2.1c.5.2,1,.7,1.5.5,3.2-1.2,6,.3,8.9,1.3a4.15,4.15,0,0,0,1.6.3,2.78,2.78,0,0,1,2.9,1c.4.5,1.1.4,1.8.4a14.15,14.15,0,0,1,6.1,1.2c.4.2.9.3,1.1.8a.73.73,0,0,1-.5,1.1,4.15,4.15,0,0,1-1.6-.3c-3.4-.7-6.6-.1-9.9.8a1.46,1.46,0,0,0-1.3.7c-.6,1.8-2.1,1.4-3.3,1.4a18.44,18.44,0,0,1-4.1-.6,4,4,0,0,0-3.2.4c-4,2.4-8.3,2.1-12.7,1.5A.91.91,0,0,1,74,12C72.5,10.3,70.5,8.8,71,6.3Z" transform="translate(-0.4 -0.12)"/>
    </g>
  </g>
  <g>
    <g>
      <g>
        <path class="cls-1" d="M248.5,107.6a9.61,9.61,0,0,1-3.4-.3c.5.1.5.3-.1.3l-.5-.3a4.42,4.42,0,0,1,3,.1l.6-.2c.3,0,.3.2.4.4h.7a11.76,11.76,0,0,0-2-.7c-2.9.1-5.6.1-8.2.1-.2.1-.3.3-.6.2a1.42,1.42,0,0,0-.6-.2h-1.2l-.4.1h0c-.2.1-.1.2,0,.3s.3.1.4.2c-.1-.1-.3-.1-.4-.2s-.4-.1-.6-.2h-.5l.4-.1h.1l.5-.1h.1l.2-.1h-2.6a.75.75,0,0,0-.5.1,2.42,2.42,0,0,1-1.7-.1h-.5l.1.1-.2-.1h-2l-4-.1c-8.6-.3-16.6-.1-25.5-.2-4.9-.1-9.5-.3-14.1-.6-9.1-.6-17.4.4-26.7-1-3.5-.5-10.1-.1-13.5,0-4.5,1.1-2.1,3.7-1.9,3.9,2.8,2.2,4.9,1,10.4,2.1-3.1-.7,3.3-1.4,6.9.1,5.4,2.3,12.9.3,19.5.8,1.6.1,3.4,0,5.3,0,10.2.6,19.6-.5,30.3-.5,2.8-.1,5.3-.7,7.7-1,1.7-.1,3.6.1,5,.1a30.53,30.53,0,0,0,6-.6c-2.1.1-3.5.3-5.8.5-1.5.1,1-.8,2.1-1,.4-.1,1.1.5,1.6.4a27.41,27.41,0,0,0,2.8-.5c.4-.1.4.5.6.4,1.4-.2,2.4-1,3.3-.8.7.1,1.3.2,1.9.3H242l.7-.2a28.86,28.86,0,0,1,5.8-1.4Zm-22-.5a3.86,3.86,0,0,1-2.1-.3A2.63,2.63,0,0,1,226.5,107.1Z" transform="translate(-0.4 -0.12)"/>
        <path class="cls-1" d="M167.5,112a17.26,17.26,0,0,1-6.9-1.1c-2.8-1.1-7.2-.9-7.6-.5h0a2.5,2.5,0,0,0,.8.3v.1a44.29,44.29,0,0,0-5.1-.6c-2.1-.1-3.6-.2-5.3-1.5a2.49,2.49,0,0,1-.8-2c.2-.9,1.1-1.5,2.7-1.9l1.9-.1a74.72,74.72,0,0,1,11.6,0,99.87,99.87,0,0,0,16.2.8c3.4,0,6.9,0,10.5.2,4.6.3,9.2.5,14.1.6,3.9.1,7.6.1,11.2.1,4.9,0,9.5,0,14.4.1l4,.1h2.6a2.15,2.15,0,0,0,1.6.1,1.09,1.09,0,0,0,.5-.1h4a2.54,2.54,0,0,1,.7.2.9.9,0,0,0,.5-.1l.1-.1h0c2.9,0,5.6,0,8.2-.1h0a11.76,11.76,0,0,1,2,.7l.1.1H249a1.27,1.27,0,0,0-.6.1v.1h-.1c-2.2.3-4.2.7-5.8,1h-.1l-.7.2h-1.2c-.7-.1-1.2-.2-1.9-.3a4.53,4.53,0,0,0-1.6.3,10.93,10.93,0,0,1-1.7.5.22.22,0,0,1-.2-.2c-.1-.2-.2-.3-.3-.2-.3.1-.6.1-.9.2a6.28,6.28,0,0,1-1.9.3,1.08,1.08,0,0,1-.8-.2,1.85,1.85,0,0,0-.7-.2,8.35,8.35,0,0,0-2.5.9h.4c1.3-.1,2.4-.2,3.5-.3.7-.1,1.5-.1,2.4-.2v.1q-3,.45-6,.6a12.75,12.75,0,0,1-1.9-.1,16.05,16.05,0,0,0-3.1,0l-2,.3a37,37,0,0,1-5.7.7c-4.3,0-8.4.2-12.4.4a152.71,152.71,0,0,1-17.9.1H180a64.53,64.53,0,0,0-7.6.1A20.4,20.4,0,0,1,167.5,112Zm-12.1-2a15.38,15.38,0,0,1,5.2.9c3.4,1.4,7.5,1.2,11.9.9a48.06,48.06,0,0,1,7.6-.1,17.09,17.09,0,0,0,3.2,0h2.1a178,178,0,0,0,17.9-.1c3.9-.2,8-.4,12.2-.4h.2a34.29,34.29,0,0,0,5.6-.7l2-.3c1-.1,2.1,0,3.1,0,.7,0,1.3.1,1.9.1a30,30,0,0,0,4.3-.3l-.7.1c-1,.1-2.1.2-3.5.3-.4,0-.5,0-.5-.1,0-.3,2-.9,2.6-1a1.08,1.08,0,0,1,.8.2,1.85,1.85,0,0,0,.7.2h0a6.28,6.28,0,0,0,1.9-.3c.3-.1.6-.1.9-.2s.4.1.5.3l.1.1a4.8,4.8,0,0,0,1.7-.5,2.32,2.32,0,0,1,1.6-.3c.6.1,1.2.2,1.9.3h1.1l.7-.1h.1c1.5-.3,3.3-.6,5.3-1a10.55,10.55,0,0,1-2.5-.2h0s0,.2-.5.2h0l-.5-.3-.1-.1h.1a5.11,5.11,0,0,1,3,0l.5-.2c-.4-.1-.7-.2-.8-.2-2.6.1-5.3.1-8.2.1l-.1.1a.66.66,0,0,1-.6.1,1.42,1.42,0,0,0-.6-.2h-1.1l-.4.1h0a.1.1,0,0,0-.1.1l.1.1c.1.1.3.1.4.2l-.1.1-.1-.1c-.1,0-.2-.1-.3-.1s-.4-.1-.6-.2h-.5v-.1l.4-.1h.1l.3-.1h-2.2a.9.9,0,0,0-.5.1,2.42,2.42,0,0,1-1.7-.1H231l.2.1-.3-.1-.2-.1-2-.1-3.6-.1a4.87,4.87,0,0,1,1.1.4l.2.1h-.2a3.73,3.73,0,0,1-2.1-.3l-.1-.1h.1a.9.9,0,0,1,.5-.1c-4.8-.1-9.4-.1-14.2-.1-3.6,0-7.3,0-11.2-.1-4.9-.1-9.5-.3-14.1-.6-3.6-.2-7.1-.2-10.5-.2a112.63,112.63,0,0,1-16.2-.8,74.72,74.72,0,0,0-11.6,0l-1.9.1c-1.6.4-2.5,1-2.7,1.9s.7,1.8.8,1.9c1.7,1.3,3.1,1.4,5.3,1.5a29.75,29.75,0,0,1,4.3.5l-.1-.1c0-.1,0-.1.1-.2C153.1,110.1,154.1,110,155.4,110Zm89.8-2.8a8.52,8.52,0,0,0,3.2.3h0a.27.27,0,0,0-.3-.3l-.6.2h0a4.44,4.44,0,0,0-2.3-.2Zm-.6.1.3.2a.58.58,0,0,0,.4-.1h0l-.2-.1H245v-.1Zm3.8,0c0,.1.1.1.1.2v.1h.5a.86.86,0,0,0-.6-.3Zm-23.9-.4a3.33,3.33,0,0,0,1.7.2,2,2,0,0,0-1.7-.2Zm11.4.1h0Z" transform="translate(-0.4 -0.12)"/>
      </g>
      <g>
        <path class="cls-1" d="M153.7,110.8l.4.1Z" transform="translate(-0.4 -0.12)"/>
        <path class="cls-1" d="M154.1,110.9l-.4-.1v-.1h.3Z" transform="translate(-0.4 -0.12)"/>
      </g>
    </g>
    <g>
      <g>
        <path class="cls-1" d="M49.1,101.9l-.2-.1Z" transform="translate(-0.4 -0.12)"/>
        <path class="cls-1" d="M49,101.9h0l-.2-.1v-.1l.2.1Z" transform="translate(-0.4 -0.12)"/>
      </g>
      <g>
        <path class="cls-1" d="M53.9,103.7c-1.5-2.1-2.3-.9-4.9-1.8,1.5.6-1.4,1.5-3.1.1-2.6-2.1-5.8,0-8.8-.3a19.27,19.27,0,0,0-2.4.1c-4.6-.4-8.8,1-13.6,1.2a12.46,12.46,0,0,0-3.4,1.2,17.63,17.63,0,0,1-2.3,0,7.71,7.71,0,0,0-2.6.7c.9-.2,1.6-.4,2.6-.6.7-.1-.4.8-.8,1-.2.2-.6-.5-.7-.3a3.38,3.38,0,0,0-1.2.6c-.2.2-.2-.5-.3-.4-.6.2-1,1-1.4.9s-.6-.1-.9-.2H9.6l-.3.2c-.5.2-.9.5-1.4.7l-.6.3-.5.2v.1a2.26,2.26,0,0,1,1.6.2c-.2-.1-.2-.3,0-.3l.2.3c-.4.2-.9.4-1.3,0l-.3.1a.4.4,0,0,1-.2-.4.37.37,0,0,0-.3.1,2.36,2.36,0,0,0,.9.6l3.7-.3c.1-.1.1-.3.3-.2s.2.2.3.2h.5l.2-.1h0a.19.19,0,0,0,0-.3l-.2-.2c0,.1.1.1.2.2s.2.1.3.2.1,0,.2-.1l-.2.1h0l-.2.1h-.1l-.1.1h1.2c.1,0,.2,0,.2-.1.3-.1.5-.2.8.1h.2v-.1l.1.1h2.7c3.9.1,7.5-.3,11.5-.4,2.2,0,4.3.1,6.4.2,4.2.4,7.8-.8,12.1.4,1.6.4,4.5-.1,6.1-.3C55.3,106.4,54,103.8,53.9,103.7Zm-37.2,3.5a1.23,1.23,0,0,1,1,.2C17.3,107.7,17,107.5,16.7,107.2Z" transform="translate(-0.4 -0.12)"/>
        <path class="cls-1" d="M48.8,108.1a7.57,7.57,0,0,1-1.5-.1,23.07,23.07,0,0,0-7.3-.5,36.84,36.84,0,0,1-4.7,0,45.16,45.16,0,0,0-6.4-.2c-1.7,0-3.4.1-5,.2-2.2.1-4.2.2-6.5.2h-3a.59.59,0,0,0-.7-.1c-.1,0-.1,0-.2.1h-2c-.1,0-.2-.1-.3-.2a.1.1,0,0,0-.1.1v.1h0c-1.3.1-2.5.1-3.7.3h0a2.07,2.07,0,0,1-1-.6l-.1-.1h.1l.2-.1h.1c.2-.1.4-.1.5-.2l.6-.3c.5-.2,1-.5,1.4-.7h0l.3-.2H10c.3.1.5.1.9.2.2.1.4-.1.6-.4a3,3,0,0,1,.7-.5h.1c.1,0,.1.1.1.2a.35.35,0,0,0,.1.2h0c.1-.1.3-.1.4-.2a2.47,2.47,0,0,1,.9-.4c.1-.1.3.1.4.2s.2.2.3.2h0c.4-.2,1.1-.8,1-.9h-.2q-.9.15-1.5.3l-1,.3v-.1a7.71,7.71,0,0,1,2.6-.7h.9a6.55,6.55,0,0,0,1.4,0,3.55,3.55,0,0,0,.9-.4,10.64,10.64,0,0,1,2.5-.9,51.36,51.36,0,0,0,5.5-.6,36.41,36.41,0,0,1,8.1-.6,2.77,2.77,0,0,0,.9-.1,3.79,3.79,0,0,1,1.5,0,9.82,9.82,0,0,0,3.4-.3c1.9-.4,3.8-.7,5.5.6a3.34,3.34,0,0,0,3.2.5c.1-.1.2-.1.2-.2s-.1-.2-.4-.3v-.1a8.56,8.56,0,0,0,2.3.5,2.81,2.81,0,0,1,2.6,1.4,4.19,4.19,0,0,1,.5,2.5,2.26,2.26,0,0,1-1,1.5h0l-.8.1A24.33,24.33,0,0,1,48.8,108.1Zm-5.9-.8a17.4,17.4,0,0,1,4.5.6,18.42,18.42,0,0,0,5.2-.2l.8-.1a2.07,2.07,0,0,0,1-1.4,4,4,0,0,0-.5-2.4h0a2.67,2.67,0,0,0-2.5-1.4,5.82,5.82,0,0,1-1.9-.3.35.35,0,0,1,.1.2c0,.1,0,.2-.3.3a3.53,3.53,0,0,1-3.3-.5c-1.6-1.3-3.5-1-5.4-.6a9.82,9.82,0,0,1-3.4.3H35.8c-.3,0-.6.1-1,.1a35.53,35.53,0,0,0-8,.6,50.5,50.5,0,0,1-5.6.6,7.32,7.32,0,0,0-2.5.8c-.3.1-.6.3-.9.4a3.3,3.3,0,0,1-1.4,0h-.8a5.92,5.92,0,0,0-1.9.5l.3-.1c.5-.1.9-.2,1.5-.3a.37.37,0,0,1,.3.1c.1.3-.8.9-1.1,1.1-.1.1-.3,0-.5-.2s-.2-.2-.3-.2h0a6.89,6.89,0,0,0-.8.3.76.76,0,0,1-.4.2h-.1c-.1,0-.1-.2-.2-.3v-.1a1.79,1.79,0,0,0-.7.5c-.3.2-.5.5-.7.4s-.6-.1-.9-.2H9.6l-.3.2h0c-.4.2-.9.5-1.4.7l-.6.3-.3.1a1.47,1.47,0,0,1,1.1.2h0a.22.22,0,0,1,.2-.2h0l.2.3v.1H8.4c-.5.2-.9.4-1.4,0-.1,0-.1.1-.2.2.2.1.3.2.4.2l3.6-.3h0c.1-.1.1-.2.3-.2h0c.1.1.2.1.3.2h.5c.1,0,.1,0,.2-.1s.1-.1,0-.2l-.2-.2h0l.1-.1a.1.1,0,0,0,.1.1l.1.1a.31.31,0,0,0,.2.1c.1,0,.1,0,.2-.1v.1l-.2.1h-.1l-.1.1h.9c.1,0,.1,0,.2-.1.3-.1.6-.2.8.1h.1l-.1-.2.2.1h2.6a1,1,0,0,1-.5-.4l-.1-.1h.1c.4-.1.8-.1,1,.2h0a.31.31,0,0,1-.2.1c2.2,0,4.2-.1,6.4-.2,1.6-.1,3.3-.2,5-.2,2.2,0,4.3.1,6.4.2a36.85,36.85,0,0,0,4.7,0A17.64,17.64,0,0,0,42.9,107.3Zm-35.6.1h0a.77.77,0,0,0,1,.1h0a2.2,2.2,0,0,0-1.4-.2h0c0,.1.1.2.1.3l.3-.2Zm-.7,0,.2.2v-.2H6.6Zm5.9.2Zm4.3-.3c.2.2.5.4.8.2a.78.78,0,0,0-.8-.2Zm-8.5.1h.2l-.2-.2c0,.1-.1.1,0,.2Z" transform="translate(-0.4 -0.12)"/>
      </g>
    </g>
    <g>
      <path class="cls-1" d="M75.5,91.9c-3.3,6-6.5,12.1-10.7,17.6a54.5,54.5,0,0,1-3.8,4.6l2.4-.5v-.2c.4-.4.1-.8-.4-.8a2.43,2.43,0,0,0-1.8.9,1.28,1.28,0,0,0-.4,1c.1,1.1,2.1-.1,2.4-.5A92.75,92.75,0,0,0,75,96.7c1-1.8,1.9-3.5,2.9-5.3.3-.6-.5-.6-.8-.6A2.49,2.49,0,0,0,75.5,91.9Z" transform="translate(-0.4 -0.12)"/>
      <path class="cls-1" d="M82.9,97.3a157.1,157.1,0,0,1-22.3,7.3l1.6,2.1c.9-.3,1.8.3,2.6.7,1,.5,2,1,3,1.4a50.18,50.18,0,0,0,6.5,2.3,49.07,49.07,0,0,0,13.2,2,8.65,8.65,0,0,0,6-1.9c.5-.5.2-1.1-.3-1.5s-1.4-.9-1.8-.4a6.3,6.3,0,0,1-4.7,1.6,44.57,44.57,0,0,1-6.3-.5,49.43,49.43,0,0,1-12.6-3.7c-1.1-.5-2.2-1.1-3.4-1.6a5,5,0,0,0-3.8-.5.76.76,0,0,0-.2,1.3,1.84,1.84,0,0,0,1.8.8,145.33,145.33,0,0,0,22.3-7.3c1.5-.6-.5-2.5-1.6-2.1Z" transform="translate(-0.4 -0.12)"/>
      <path class="cls-1" d="M102.2,105a10.05,10.05,0,0,0-4.7,2.4c-1.1,1-2.5,2.6-2.3,4.2a1.88,1.88,0,0,0,2,1.6,4.36,4.36,0,0,0,2.9-1.1c1.6-1.3,3.2-2.7,4.7-4.1l-2.4-.3c.5,1.4-.3,3,.6,4.4a4.68,4.68,0,0,0,4.5,1.8,16.94,16.94,0,0,0,5.2-1.8,43.91,43.91,0,0,0,4.7-2.7.71.71,0,0,0,.3-1l-.3-.3a2,2,0,0,0-2,.1,27.06,27.06,0,0,1-3.7,2.1,19.66,19.66,0,0,1-4,1.6,1.7,1.7,0,0,1-2.2-1,5.46,5.46,0,0,1-.1-1.8,6.45,6.45,0,0,0-.3-2c-.3-.8-1.9-.8-2.4-.3-1.1,1-2.3,2.1-3.5,3.1a21,21,0,0,0-1.7,1.4.31.31,0,0,1-.2.1l.6.1c.1.1.1.2.1.1s-.1-.4,0-.5a5.52,5.52,0,0,1,1.9-2.6A7.46,7.46,0,0,1,103,107c.5-.1,1.2-.6.9-1.2a1.28,1.28,0,0,0-1.7-.8Z" transform="translate(-0.4 -0.12)"/>
      <path class="cls-1" d="M125.3,93.3a113,113,0,0,1-6.9,19.5l2.7-.4a10.09,10.09,0,0,1,5.1-6.3c.1-.1.1-.1.2,0a1.69,1.69,0,0,1,.3,1c.1.8-.1,1.7,0,2.5a3.63,3.63,0,0,0,2.3,3.5c2,.7,4.1,0,6-.8.4-.2,1.3-.6,1.1-1.2s-1.2-.4-1.6-.2c-1.3.6-2.9,1.3-4.1.2-1.4-1.2-.7-3.2-.8-4.8a2.09,2.09,0,0,0-1.3-2,4,4,0,0,0-3,.6,15.3,15.3,0,0,0-4.1,3.1,12.88,12.88,0,0,0-2.6,4.9c-.2.6.8.6,1.1.6a2.6,2.6,0,0,0,1.6-.9,117.9,117.9,0,0,0,7.1-19.9c.2-.6-.9-.6-1.3-.5-1,.1-1.6.5-1.8,1.1Z" transform="translate(-0.4 -0.12)"/>
    </g>
  </g>
</svg>
