<?xml version="1.0" encoding="utf-8"?>
<!-- Generator: Adobe Illustrator 24.0.0, SVG Export Plug-In . SVG Version: 6.00 Build 0)  -->
<svg version="1.1" id="Capa_1" xmlns="http://www.w3.org/2000/svg" xmlns:xlink="http://www.w3.org/1999/xlink" x="0px" y="0px"
	 viewBox="0 0 576.5 191.6" style="enable-background:new 0 0 576.5 191.6;" xml:space="preserve">
<style type="text/css">
	.st0{fill:#767B60;}
</style>
<title>homa</title>
<g>
	<g>
		<path class="st0" d="M88.3,56.9v109.9H71.8V114H16.5v52.8H0V56.9h16.5v51.3h55.2V56.9H88.3z"/>
		<path class="st0" d="M438.6,166.8h-16.1l-13.1-75.4l-40.8,75.4l-37.4-70.4l-8.1,70.4h-6.8L329,56.9l44.9,85.3l46.4-85.3
			l18.9,109.8L438.6,166.8z"/>
		<path class="st0" d="M476.8,166.8L526,56.9l50.5,109.9h-18.2l-9.5-20.7h-55.4l-9.3,20.7H476.8z M496,140.4h50.2l-25.4-55.3
			L496,140.4z"/>
	</g>
	<g>
		<path class="st0" d="M264.9,126c-0.1-4.7,0.9-9.5-0.7-14.2c-0.4-1.3-0.8-3.1,0.9-4.2c2-1.1,4.5-1,6.4,0.3c2.7,2,4.4,5,4.5,8.4
			c0.6,6.6,0.8,13.2,1.3,19.7c0.3,3.6-1.8,6.9-3.8,9.8c-3.5,5.2-7.1,10.3-10.8,15.4c-1.1,1.7-2.5,3.2-4,4.6c-3.1,2.6-6,5.1-7.7,9
			c-1.1,2.6-4.3,3.7-7.1,4.7c-2,0.8-3.9,2-5.5,3.4c-4.5,3.3-9.8,5.6-15.3,6.6c-6.8,1.3-13.7,2.5-20.7,1.8c-7.6-0.6-15-3-21.5-7
			c-3.9-2.4-14.1-7.2-15.5-8.7s-13.9-12.2-18.6-17.8s-5.1-4.3-10.1-12.4c-1.5-2.4-2.3-5.3-3.3-10.2s-4-29.5-1.3-40.3s6.8-16,11-23.7
			c6.5-11.8,16.6-19.3,29.4-23.5c7.8-2.6,15.8-4,23.8-5.6s15.9,0.7,23.7,2c4.8,0.9,9.6,2.3,14.2,4c3.1,1,5.8,2.7,8,5.1
			c2.2,2.2,4.8,3.8,7.7,4.8c4,1.6,7.2,4.9,7.4,8.9s1.7,9-2.7,12.1c-4.2,2.9-8.7,5.3-14.1,3.2c-6.2-2.3-12.6-4.1-18-8.1
			c-2.5-1.9-5.8-1.9-8.7-2.8c-4.9-1.4-9.9-2.9-15-2.5c-13.1,1.2-24.8,4.7-32.1,17.2c-3.4,5.8-7.2,11.5-10.3,17.5
			c-1.3,2.6-2.1,5.4-2.2,8.3c-0.2,4.6-0.6,9.1-0.9,13.7c-0.2,4.2,0.8,8.1,4.1,11.1c1.3,1.1,2.4,2.4,3.3,3.9
			c3.8,6.2,9.8,10.4,14.3,15.9c0.5,0.6,1.5,0.9,1.9,1.6c4.5,7.5,12.7,9.4,19.8,12.7c3.8,1.6,8,2.1,12,1.3c3.8-0.8,7.7-1.1,11.6-0.9
			c2.3,0.2,3.6-1.6,5.5-2.3c8.6-3.2,17-7,24.1-12.8c8.2-6.6,15.5-14.3,14.8-26.3C264.8,128.7,264.9,127.4,264.9,126z"/>
		<path class="st0" d="M153.9,13.5c0.2-0.8,0.3-1.6,0.2-2.4c-1.1-3.1-0.4-5,3.2-5.1c0.9,0,1.9-0.5,1.9-1.4c0.3-4.2,3.5-4.2,6.4-4.5
			c3.8-0.4,7.4-0.2,10.6,2.4c1.8,1.6,4.5,2,6.7,1.1c2.2-0.9,4.7-0.8,6.9,0.3c1.1,0.4,2.2,1.4,3.4,1c7-2.7,13.2,0.6,19.4,2.7
			c1.1,0.5,2.3,0.7,3.4,0.7c2.4-0.3,4.7-0.1,6.4,2.1c0.9,1.1,2.5,0.8,3.9,0.9c4.6,0.3,9.2,0.5,13.4,2.6c0.9,0.4,2,0.7,2.5,1.7
			s0.3,2-1,2.3s-2.3-0.3-3.5-0.6c-7.3-1.5-14.4-0.3-21.5,1.7c-1.2,0.3-2.6,0.6-3,1.8c-1.3,3.8-4.6,3-7.3,3c-3-0.1-6-0.5-9-1.2
			c-2.3-0.6-4.8-0.3-7,0.8c-8.8,5.1-18.2,4.5-27.7,3.4c-0.7,0-1.3-0.3-1.8-0.8C157.3,22.2,152.8,19,153.9,13.5z"/>
	</g>
</g>
</svg>
