<?xml version="1.0" encoding="utf-8"?>
<!-- Generator: Adobe Illustrator 24.0.0, SVG Export Plug-In . SVG Version: 6.00 Build 0)  -->
<svg version="1.1" id="Capa_1" xmlns="http://www.w3.org/2000/svg" xmlns:xlink="http://www.w3.org/1999/xlink" x="0px" y="0px"
	 viewBox="0 0 300 300" style="enable-background:new 0 0 300 300;" xml:space="preserve">
<style type="text/css">
	.st0{display:none;}
	.st1{display:inline;fill:#E6007E;}
	.st2{display:inline;fill:#BE1622;}
	.st3{fill:#D2C59E;}
	.st4{fill:#EEEADE;}
	.st5{fill:#626240;}
	.st6{fill:#FFFFFF;}
	.st7{fill:none;stroke:#FFFFFF;stroke-linecap:round;stroke-miterlimit:10;}
	.st8{fill:#FFFFFF;stroke:#FFFFFF;stroke-width:0.25;stroke-miterlimit:10;}
	.st9{fill:#FFFFFF;stroke:#FFFFFF;stroke-width:0.18;stroke-miterlimit:10;}
	.st10{fill:none;stroke:#FFFFFF;stroke-width:1.2;stroke-linecap:round;stroke-linejoin:round;stroke-miterlimit:10;}
	.st11{fill-rule:evenodd;clip-rule:evenodd;fill:#F9F6ED;}
	.st12{fill:#F9F6ED;}
</style>
<g id="Fondos" class="st0">
	<rect class="st1" width="50" height="50"/>
	<rect x="50" class="st2" width="50" height="50"/>
	<rect x="100" class="st1" width="50" height="50"/>
	<rect x="150" class="st2" width="50" height="50"/>
	<rect x="200" class="st1" width="50" height="50"/>
	<rect x="250" class="st2" width="50" height="50"/>
	<rect y="50" class="st2" width="50" height="50"/>
	<rect x="50" y="50" class="st1" width="50" height="50"/>
	<rect x="100" y="50" class="st2" width="50" height="50"/>
	<rect x="150" y="50" class="st1" width="50" height="50"/>
	<rect x="200" y="50" class="st2" width="50" height="50"/>
	<rect x="250" y="50" class="st1" width="50" height="50"/>
	<rect y="100" class="st1" width="50" height="50"/>
	<rect x="50" y="100" class="st2" width="50" height="50"/>
	<rect x="100" y="100" class="st1" width="50" height="50"/>
	<rect x="150" y="100" class="st2" width="50" height="50"/>
	<rect x="200" y="100" class="st1" width="50" height="50"/>
	<rect x="250" y="100" class="st2" width="50" height="50"/>
	<rect y="150" class="st2" width="50" height="50"/>
	<rect x="50" y="150" class="st1" width="50" height="50"/>
	<rect x="100" y="150" class="st2" width="50" height="50"/>
	<rect x="150" y="150" class="st1" width="50" height="50"/>
	<rect x="200" y="150" class="st2" width="50" height="50"/>
	<rect x="250" y="150" class="st1" width="50" height="50"/>
	<rect y="200" class="st1" width="50" height="50"/>
	<rect x="50" y="200" class="st2" width="50" height="50"/>
	<rect x="100" y="200" class="st1" width="50" height="50"/>
	<rect x="150" y="200" class="st2" width="50" height="50"/>
	<rect x="200" y="200" class="st1" width="50" height="50"/>
	<rect x="250" y="200" class="st2" width="50" height="50"/>
	<rect y="250" class="st2" width="50" height="50"/>
	<rect x="50" y="250" class="st1" width="50" height="50"/>
	<rect x="100" y="250" class="st2" width="50" height="50"/>
	<rect x="150" y="250" class="st1" width="50" height="50"/>
	<rect x="200" y="250" class="st2" width="50" height="50"/>
	<rect x="250" y="250" class="st1" width="50" height="50"/>
</g>
<g id="Iconos">
	<circle class="st3" cx="25" cy="175" r="25"/>
	<circle class="st3" cx="75" cy="175" r="25"/>
	<circle class="st3" cx="125" cy="175" r="25"/>
	<g>
		<path class="st4" d="M34.3,279.5c0-0.7,0.1-1.4-0.1-2.1c0-0.2-0.1-0.5,0.1-0.6c0.3-0.2,0.8-0.1,1,0c0.4,0.3,0.6,0.7,0.7,1.3
			c0.1,1,0.1,2,0.2,3c0,0.5-0.3,1-0.6,1.5c-0.5,0.8-1.1,1.6-1.7,2.3c-0.2,0.3-0.4,0.5-0.6,0.7c-0.5,0.4-0.9,0.8-1.2,1.4
			c-0.2,0.4-0.7,0.6-1.1,0.7c-0.3,0.1-0.6,0.3-0.9,0.5c-0.7,0.5-1.5,0.9-2.3,1c-1,0.2-2.1,0.4-3.1,0.3c-1.2-0.1-2.2-0.4-3.3-1.1
			c-0.6-0.4-2.1-1.1-2.3-1.3s-2.1-1.9-2.8-2.7c-0.8-0.9-0.9-0.7-1.6-1.9c-0.2-0.4-0.3-0.8-0.5-1.6c-0.2-0.8-0.6-4.5-0.2-6.1
			c0.4-1.7,1-2.5,1.7-3.6c1-1.8,2.5-2.9,4.5-3.6c1.2-0.4,2.4-0.6,3.6-0.9c1.2-0.2,2.4,0.1,3.6,0.3c0.8,0.1,1.4,0.4,2.1,0.6
			c0.4,0.2,0.9,0.4,1.2,0.8c0.3,0.3,0.8,0.6,1.2,0.8c0.6,0.2,1.1,0.8,1.1,1.3c0,0.6,0.3,1.4-0.4,1.9c-0.6,0.4-1.3,0.8-2.1,0.5
			c-1-0.3-1.9-0.6-2.7-1.2c-0.4-0.3-0.9-0.3-1.3-0.4c-0.8-0.2-1.5-0.4-2.3-0.4c-2,0.2-3.8,0.7-4.9,2.6c-0.5,0.9-1.1,1.8-1.6,2.7
			c-0.2,0.4-0.3,0.8-0.3,1.3c0,0.7-0.1,1.4-0.1,2.1c0,0.6,0.1,1.2,0.6,1.7c0.2,0.2,0.4,0.4,0.5,0.6c0.6,1,1.5,1.6,2.2,2.4
			c0,0.1,0.2,0.1,0.3,0.2c0.7,1.1,2,1.4,3,1.9c0.5,0.2,1.2,0.3,1.8,0.2c0.6-0.1,1.2-0.2,1.8-0.1c0.4,0,0.6-0.2,0.9-0.3
			c1.3-0.5,2.6-1.1,3.7-2c1.2-1,2.3-2.2,2.2-4C34.3,280,34.3,279.7,34.3,279.5z"/>
		<path class="st4" d="M17.4,262.4c0-0.2,0-0.3,0-0.4c-0.2-0.5,0-0.8,0.5-0.8c0.1,0,0.3,0,0.3-0.2c0-0.6,0.5-0.6,1-0.7
			c0.6,0,1.1,0,1.6,0.3c0.3,0.2,0.7,0.3,1,0.2c0.4-0.2,0.7-0.1,1,0c0.2,0,0.3,0.2,0.5,0.1c1.1-0.4,2,0.1,3,0.4
			c0.2,0,0.3,0.1,0.5,0.1c0.4,0,0.7,0,1,0.3c0.1,0.2,0.4,0.1,0.6,0.1c0.7,0,1.4,0,2,0.4c0.1,0,0.3,0.1,0.4,0.3
			c0.1,0.2,0,0.3-0.1,0.3c-0.2,0-0.4,0-0.5-0.1c-1.1-0.2-2.2,0-3.3,0.3c-0.2,0-0.4,0.1-0.4,0.3c-0.2,0.6-0.7,0.5-1.1,0.5
			c-0.5,0-0.9-0.1-1.4-0.2c-0.4,0-0.8,0-1.1,0.1c-1.3,0.8-2.8,0.7-4.2,0.5c-0.1,0-0.2,0-0.3-0.1C17.9,263.7,17.2,263.2,17.4,262.4z"
			/>
	</g>
	<g>
		<path class="st5" d="M180.8,275.8c0-0.5,0.1-1-0.1-1.4c0-0.1-0.1-0.3,0.1-0.4c0.2-0.1,0.5-0.1,0.6,0c0.3,0.2,0.4,0.5,0.5,0.9
			c0.1,0.7,0.1,1.4,0.1,2c0,0.4-0.2,0.7-0.4,1c-0.4,0.5-0.7,1.1-1.1,1.6c-0.1,0.2-0.3,0.4-0.4,0.5c-0.3,0.3-0.6,0.5-0.8,0.9
			c-0.1,0.3-0.5,0.4-0.7,0.5s-0.4,0.2-0.6,0.4c-0.5,0.4-1,0.6-1.6,0.7c-0.7,0.1-1.4,0.3-2.1,0.2c-0.8-0.1-1.5-0.3-2.2-0.7
			c-0.4-0.3-1.4-0.7-1.6-0.9c-0.1-0.2-1.4-1.3-1.9-1.8c-0.5-0.6-0.6-0.5-1.1-1.3c-0.2-0.3-0.2-0.5-0.4-1.1s-0.4-3.1-0.1-4.1
			c0.3-1.1,0.7-1.7,1.1-2.4c0.6-1.2,1.7-2,3-2.4c0.8-0.3,1.6-0.4,2.4-0.6c0.8-0.2,1.6,0.1,2.4,0.2c0.5,0.1,1,0.3,1.4,0.4
			c0.3,0.1,0.6,0.3,0.8,0.5s0.5,0.4,0.8,0.5c0.4,0.2,0.7,0.5,0.8,0.9c0,0.4,0.2,0.9-0.3,1.3c-0.4,0.3-0.9,0.5-1.4,0.4
			c-0.6-0.2-1.3-0.4-1.8-0.8c-0.3-0.2-0.6-0.2-0.9-0.3c-0.5-0.1-1-0.3-1.5-0.3c-1.4,0.1-2.5,0.5-3.3,1.8c-0.4,0.6-0.7,1.2-1.1,1.8
			c-0.1,0.3-0.2,0.5-0.2,0.9c0,0.5-0.1,0.9-0.1,1.4c0,0.4,0.1,0.8,0.4,1.1c0.1,0.1,0.3,0.3,0.4,0.4c0.4,0.6,1,1.1,1.5,1.6
			c0,0.1,0.2,0.1,0.2,0.2c0.5,0.8,1.3,1,2.1,1.3c0.4,0.2,0.8,0.2,1.2,0.1s0.8-0.1,1.2-0.1c0.3,0,0.4-0.2,0.6-0.2
			c0.9-0.3,1.7-0.7,2.5-1.3c0.8-0.7,1.6-1.5,1.5-2.7C180.8,276.1,180.8,275.9,180.8,275.8z"/>
		<path class="st5" d="M169.4,264.2c0-0.1,0-0.2,0-0.3c-0.1-0.3,0-0.5,0.3-0.5c0.1,0,0.2,0,0.2-0.1c0-0.4,0.4-0.4,0.6-0.5
			c0.4,0,0.8,0,1.1,0.2c0.2,0.2,0.5,0.2,0.7,0.1c0.3-0.1,0.5-0.1,0.7,0c0.1,0,0.2,0.1,0.4,0.1c0.7-0.3,1.4,0.1,2,0.3
			c0.1,0,0.2,0.1,0.4,0.1c0.3,0,0.5,0,0.6,0.2c0.1,0.1,0.3,0.1,0.4,0.1c0.5,0,1,0,1.4,0.3c0.1,0,0.2,0.1,0.3,0.2s0,0.2-0.1,0.2
			s-0.3,0-0.4-0.1c-0.7-0.2-1.5,0-2.2,0.2c-0.1,0-0.3,0.1-0.3,0.2c-0.1,0.4-0.5,0.3-0.7,0.3c-0.3,0-0.6-0.1-0.9-0.1
			c-0.3,0-0.5,0-0.7,0.1c-0.9,0.5-1.9,0.5-2.8,0.4c-0.1,0-0.2,0-0.2-0.1C169.7,265.1,169.2,264.7,169.4,264.2z"/>
	</g>
	<g>
		<g>
			<path class="st6" d="M25,18.8c-2.2,0-3.9-1.8-3.9-3.9S22.9,11,25,11c2.2,0,3.9,1.8,3.9,3.9S27.1,18.8,25,18.8z M25,12.1
				c-1.5,0-2.7,1.2-2.7,2.7s1.2,2.7,2.7,2.7s2.7-1.2,2.7-2.7S26.5,12.1,25,12.1z"/>
		</g>
		<g>
			<path class="st7" d="M37.5,26.3"/>
		</g>
		<g>
			<path class="st6" d="M14,32.6c-0.7,0-1.3-0.2-2-0.7c-0.3-0.2-0.4-0.6-0.2-0.9s0.6-0.4,0.9-0.2c0.7,0.5,1.4,0.6,1.9,0.3
				c1.1-0.5,1.9-2,2.3-4.3c1-6.2,3.2-7.2,8-7.2c0.3,0,0.6,0.3,0.6,0.6S25.3,21,25,21c-4.1,0-5.8,0.6-6.8,6.1c-0.5,2.8-1.5,4.6-3,5.3
				C14.8,32.5,14.4,32.6,14,32.6z"/>
		</g>
		<g>
			<path class="st6" d="M35.9,32.6c-0.4,0-0.8-0.1-1.2-0.2c-1.5-0.6-2.5-2.5-3-5.3C30.8,21.5,29.1,21,25,21c-0.3,0-0.6-0.3-0.6-0.6
				s0.3-0.6,0.6-0.6c4.8,0,7,1,8,7.2c0.4,2.3,1.2,3.9,2.3,4.3c0.6,0.3,1.2,0.2,1.9-0.3c0.3-0.2,0.7-0.1,0.9,0.2
				c0.2,0.3,0.1,0.7-0.2,0.9C37.2,32.4,36.5,32.6,35.9,32.6z"/>
		</g>
		<g>
			<g>
				<path class="st6" d="M17.2,41.2c-1,0-1.9-0.2-2.5-0.7c-0.9-0.6-1.4-1.7-1.4-3.2c0-2.3,2.3-3.6,4.3-4.7c1.6-0.9,3.1-1.7,3.1-2.7
					v-4.4c0-0.3,0.3-0.6,0.6-0.6c0.3,0,0.6,0.3,0.6,0.6V30c0,1.8-1.9,2.8-3.7,3.8c-1.8,1-3.7,2-3.7,3.6c0,1.1,0.3,1.8,0.9,2.2
					c1.1,0.8,3.3,0.5,6.5-0.6c0.3-0.1,0.7,0,0.8,0.4c0.1,0.3,0,0.7-0.4,0.8C20.3,40.9,18.6,41.2,17.2,41.2z"/>
			</g>
			<g>
				<path class="st6" d="M32.7,41.2c-2,0-4.7-0.8-8-2.4c-0.3-0.1-0.4-0.5-0.3-0.8s0.5-0.4,0.8-0.3c4.5,2.1,7.8,2.8,9.2,1.9
					c0.6-0.4,0.9-1.1,0.9-2.2c0-1.5-1.6-2.3-3.4-3.1c-1.9-0.9-4-2-4-4.3v-4.4c0-0.3,0.3-0.6,0.6-0.6s0.6,0.3,0.6,0.6V30
					c0,1.5,1.6,2.3,3.4,3.1c1.9,0.9,4,2,4,4.3c0,1.5-0.5,2.7-1.5,3.3C34.5,41,33.7,41.2,32.7,41.2z"/>
			</g>
			<g>
				<path class="st6" d="M25,38.9c-0.1,0-0.2,0-0.3-0.1c-2.5-1.2-4.4-2.4-4.5-2.4c-0.3-0.2-0.4-0.6-0.2-0.9c0.2-0.3,0.6-0.4,0.9-0.2
					c0,0,1.9,1.2,4.4,2.4c0.3,0.1,0.4,0.5,0.3,0.8C25.4,38.8,25.2,38.9,25,38.9z"/>
			</g>
		</g>
	</g>
	<g>
		<path class="st6" d="M90.9,30.3l-2.2-2.2c0.6-0.4,1.2-0.7,1.4-1c1-1,1-2.6,0-3.6c-0.5-0.5-1.1-0.7-1.8-0.7c-0.7,0-1.3,0.3-1.8,0.7
			c-0.3,0.3-0.7,0.8-1,1.4l-2.2-2.2l-7.6-7.6c-0.2-0.2-0.5-0.2-0.7,0l-2.2,2.2c-0.4-0.6-0.7-1.2-1-1.4c-0.5-0.5-1.1-0.7-1.8-0.7
			s-1.3,0.3-1.8,0.7c-0.5,0.5-0.7,1.1-0.7,1.8c0,0.7,0.3,1.3,0.7,1.8c0.3,0.3,0.8,0.7,1.5,1l-2.2,2.2l-2.7,2.7
			c-0.1,0.1-0.2,0.3-0.1,0.4c0,0.2,0.1,0.3,0.3,0.4c0.8,0.4,1.5,0.8,1.8,1.1c0.6,0.6,0.6,1.6,0,2.2s-1.6,0.6-2.2,0
			c-0.3-0.3-0.8-1-1.1-1.8c-0.1-0.1-0.2-0.2-0.3-0.3c-0.2,0-0.3,0-0.4,0.1l-2.7,2.7C60,30.3,60,30.4,60,30.5s0,0.2,0.1,0.3l2.2,2.2
			c-0.6,0.4-1.2,0.7-1.5,1c-0.6,0.7-0.8,1.3-0.8,2s0.3,1.3,0.7,1.8c0.5,0.5,1.1,0.7,1.8,0.7s1.3-0.3,1.8-0.7c0.3-0.3,0.7-0.8,1-1.5
			l2.2,2.2c0.1,0.1,0.2,0.1,0.3,0.1c0.1,0,0.2,0,0.3-0.1l7.2-7.2l1.9,1.9c-0.6,0.4-1.2,0.7-1.5,1C75.2,34.7,75,35.3,75,36
			s0.3,1.3,0.7,1.8c0.5,0.5,1.1,0.7,1.8,0.7s1.3-0.3,1.8-0.7c0.3-0.3,0.7-0.8,1-1.5l2.2,2.2c0.1,0.1,0.2,0.1,0.3,0.1
			c0.1,0,0.2,0,0.3-0.1l7.6-7.6c0.1-0.1,0.1-0.2,0.1-0.3S91,30.4,90.9,30.3z M70.9,20.7c0.1-0.1,0.2-0.3,0.1-0.4
			c0-0.1-0.1-0.3-0.3-0.4c-0.8-0.4-1.5-0.8-1.8-1.1c-0.3-0.3-0.5-0.7-0.5-1.1s0.2-0.8,0.5-1.1c0.6-0.6,1.6-0.6,2.2,0
			c0.3,0.3,0.7,1,1.1,1.8c0.1,0.1,0.2,0.2,0.4,0.3c0.1,0,0.3,0,0.4-0.1l2.3-2.3l6.9,6.9l-2.3,2.2H80c-0.1,0.1-0.2,0.3-0.1,0.4
			c0,0.2,0.1,0.3,0.3,0.4c0.8,0.4,1.5,0.8,1.8,1.1c0.6,0.6,0.6,1.6,0,2.2s-1.6,0.6-2.2,0c-0.3-0.3-0.7-1-1.1-1.8
			c-0.1-0.1-0.2-0.2-0.3-0.3h-0.1c-0.1,0-0.2,0-0.3,0.1l-0.2,0.2l0,0L75.4,30l-1.9-1.9c0.6-0.4,1.2-0.7,1.5-1c1-1,1-2.6,0-3.6
			s-2.6-1-3.6,0c-0.3,0.3-0.7,0.8-1,1.4L68.5,23L70.9,20.7z M67.9,37.5l-2.3-2.3c-0.1-0.1-0.3-0.2-0.4-0.1c-0.1,0-0.3,0.1-0.3,0.3
			c-0.4,0.8-0.8,1.5-1.1,1.8c-0.6,0.6-1.6,0.6-2.2,0c-0.3-0.3-0.5-0.7-0.5-1.1s0.2-0.8,0.5-1.1s1-0.7,1.8-1.1
			c0.1-0.1,0.2-0.2,0.3-0.4c0-0.1,0-0.3-0.1-0.4l-2.3-2.3l1.9-1.9c0.4,0.6,0.7,1.2,1,1.4c1,1,2.6,1,3.6,0s1-2.6,0-3.6
			c-0.3-0.3-0.8-0.6-1.5-1l1.9-1.9l2.1,2.1l0.3,0.3c0.1,0.1,0.3,0.2,0.4,0.1c0.1,0,0.3-0.1,0.3-0.3c0.4-0.8,0.8-1.5,1.1-1.8
			c0.6-0.6,1.6-0.6,2.2,0s0.6,1.6,0,2.2c-0.3,0.3-1,0.8-1.8,1.1c-0.1,0.1-0.2,0.2-0.3,0.4c0,0.2,0,0.3,0.1,0.4l2.3,2.4L67.9,37.5z
			 M83,37.5l-2.4-2.3c-0.1-0.1-0.3-0.2-0.4-0.1c-0.2,0-0.3,0.1-0.4,0.3c-0.4,0.8-0.8,1.5-1.1,1.8c-0.6,0.6-1.6,0.6-2.2,0
			c-0.3-0.3-0.5-0.7-0.5-1.1s0.2-0.8,0.5-1.1s1-0.7,1.8-1.1c0.1-0.1,0.2-0.2,0.3-0.4c0-0.1,0-0.3-0.1-0.4l-2.3-2.3l1.9-1.9
			c0.4,0.6,0.7,1.2,1,1.4c0.5,0.5,1.1,0.7,1.8,0.7c0.7,0,1.3-0.3,1.8-0.7c1-1,1-2.6,0-3.6c-0.3-0.3-0.8-0.6-1.5-1l1.9-1.9l2.3,2.3
			c0.1,0.1,0.3,0.2,0.4,0.1c0.1,0,0.3-0.1,0.3-0.3c0.4-0.8,0.8-1.5,1.1-1.8c0.6-0.6,1.6-0.6,2.2,0s0.6,1.6,0,2.2
			c-0.3,0.3-1,0.8-1.8,1.1c-0.1,0.1-0.2,0.2-0.3,0.4c0,0.2,0,0.3,0.1,0.4l2.3,2.4L83,37.5z"/>
	</g>
	<g>
		<g>
			<path class="st6" d="M125,30.1L125,30.1c-1.4,0-2.7-0.6-3.7-1.5c-1-1-1.5-2.3-1.5-3.7c0-4.8,4.6-9.3,4.8-9.5
				c0.2-0.2,0.7-0.2,0.9,0c0.2,0.2,4.7,4.8,4.7,9.6l0,0C130.1,27.8,127.8,30.1,125,30.1z M125,16.8c-1.1,1.3-3.9,4.7-4,8.1
				c0,1,0.4,2,1.1,2.8c0.7,0.7,1.7,1.2,2.8,1.2l0,0c2.1,0,3.9-1.7,3.9-3.9C128.9,21.6,126.1,18,125,16.8z M129.5,25L129.5,25
				L129.5,25z"/>
		</g>
		<g>
			<g>
				<path class="st6" d="M125.1,34.7c-0.1,0-0.1,0-0.2,0c-2.2,0-4.3-0.3-5.8-0.9c-2.3-0.8-2.8-1.8-2.7-2.5c0-0.7,0.5-1.7,2.6-2.4
					c0.3-0.1,0.7,0.1,0.8,0.4c0.1,0.3-0.1,0.7-0.4,0.8c-1.4,0.5-1.8,1-1.8,1.2c0,0.3,0.6,0.8,1.9,1.3c1.4,0.5,3.4,0.8,5.4,0.8
					c4.8,0.1,7.3-1.3,7.3-2c0-0.2-0.4-0.7-1.8-1.2c-0.3-0.1-0.5-0.5-0.4-0.8s0.5-0.5,0.8-0.4c2.2,0.8,2.6,1.8,2.6,2.4
					C133.5,33.6,129.3,34.7,125.1,34.7z"/>
			</g>
		</g>
		<g>
			<g>
				<path class="st6" d="M125.1,38.5c-0.1,0-0.2,0-0.3,0c-3.9,0-7.5-0.7-10.1-1.9c-2.7-1.3-4.2-3-4.2-4.9c0-2.6,2.8-4.7,7.3-5.8
					c0.3-0.1,0.7,0.1,0.8,0.5c0.1,0.3-0.1,0.7-0.5,0.8c-3.9,0.9-6.3,2.7-6.3,4.6c0,1.4,1.2,2.7,3.4,3.7c2.4,1.1,5.8,1.8,9.5,1.8
					c8.2,0,13-2.7,13-5.3c0-1.9-2.4-3.7-6.3-4.7c-0.3-0.1-0.5-0.4-0.5-0.8c0.1-0.3,0.4-0.5,0.8-0.5c4.6,1.2,7.3,3.4,7.3,6
					C139.2,35.7,133.3,38.5,125.1,38.5z"/>
			</g>
		</g>
	</g>
	<g>
		<g>
			<path class="st8" d="M175,32.1c-1.4,0-2.5,1.1-2.5,2.5s1.1,2.5,2.5,2.5s2.5-1.1,2.5-2.5S176.4,32.1,175,32.1z"/>
		</g>
		<g>
			<path class="st8" d="M175,26.9c-2.6,0-5,1-6.8,2.8c-0.1,0.1-0.2,0.2-0.2,0.4c0,0.1,0.1,0.3,0.2,0.4c0.1,0.1,0.2,0.2,0.4,0.2l0,0
				c0.1,0,0.3-0.1,0.4-0.2c1.6-1.6,3.8-2.5,6.1-2.5s4.4,0.9,6,2.5c0.2,0.2,0.6,0.2,0.8,0c0.1-0.1,0.2-0.2,0.2-0.4
				c0-0.1-0.1-0.3-0.2-0.4C180,27.9,177.6,26.9,175,26.9z"/>
		</g>
		<g>
			<path class="st8" d="M175,16.5c-5.3,0-10.4,2.1-14.2,5.9c-0.2,0.2-0.2,0.6,0,0.8c0.1,0.1,0.2,0.2,0.4,0.2s0.3-0.1,0.4-0.2
				c3.6-3.6,8.4-5.5,13.5-5.5s9.8,2,13.4,5.5c0.2,0.2,0.6,0.2,0.8,0s0.2-0.6,0-0.8C185.4,18.6,180.4,16.5,175,16.5z"/>
		</g>
		<g>
			<path class="st8" d="M175,22.2c-3.8,0-7.4,1.5-10.1,4.2c-0.1,0.1-0.2,0.2-0.2,0.4c0,0.1,0.1,0.3,0.2,0.4c0.1,0.1,0.2,0.2,0.4,0.2
				l0,0c0.1,0,0.3-0.1,0.4-0.2c2.5-2.5,5.9-3.9,9.4-3.9s6.9,1.4,9.3,3.9c0.2,0.2,0.6,0.2,0.8,0s0.2-0.6,0-0.8
				C182.5,23.7,178.8,22.2,175,22.2z"/>
		</g>
	</g>
	<path class="st6" d="M238.4,25.3h-4.5l-2.8-5.7c-0.5-1.1-1.6-1.7-2.8-1.7H221c-1.4,0-2.6,0.9-3,2.2l-1.7,5.8V26v0.1l0,0
		c0,0.1,0,0.1,0,0.2v0.1c0,0,0,0.1,0.1,0.1l0.1,0.1l0.1,0.1l0.1,0.1l0,0h0.1h0.1H229c0.4,0,0.7-0.3,0.7-0.7c0-0.4-0.3-0.7-0.7-0.7
		h-11l1.4-4.8c0.2-0.7,0.8-1.2,1.6-1.2h7.4c0.6,0,1.2,0.4,1.5,0.9l3,6.1c0.1,0.3,0.4,0.4,0.7,0.4h4.9c1.2,0,2.1,0.9,2.1,2.1v2.9
		c0,0.3-0.3,0.6-0.6,0.6c-0.4,0-0.7,0.3-0.7,0.7c0,1.1-0.9,2.1-2.1,2.1c-1.1,0-2.1-0.9-2.1-2.1c0-0.4-0.3-0.7-0.7-0.7h-10.5
		c-0.4,0-0.7,0.3-0.7,0.7c0,1.1-0.9,2.1-2.1,2.1c-1.1,0-2.1-0.9-2.1-2.1c0-0.4-0.3-0.7-0.7-0.7H213c-1.1,0-2-0.9-2-2v-2.2
		c2.5-1.6,4-3.5,4.5-5.8c0.8-3.8-1.5-7-1.6-7.2c-0.1-0.1-0.3-0.2-0.5-0.1c-2.9,1.7-4.7,3.8-5.2,6.3c-0.6,2.8,0.5,5.2,1.2,6.4v2.6
		c0,1.9,1.6,3.5,3.5,3.5h4.7c0.3,1.6,1.8,2.8,3.5,2.8s3.1-1.2,3.5-2.8h9.2c0.3,1.6,1.8,2.8,3.5,2.8s3.2-1.3,3.5-2.9
		c0.8-0.3,1.4-1.1,1.4-2v-2.9C242,26.9,240.4,25.3,238.4,25.3z M209.2,21.6c0.4-1.9,1.8-3.6,4-5c0.4,0.7,1.7,3.1,1.1,5.6
		c-0.4,1.7-1.5,3.2-3.3,4.5c0-0.7,0.3-2.3,1.6-5.5c0.1-0.3,0-0.7-0.3-0.8s-0.7,0-0.8,0.3c-1.1,2.7-1.5,4.3-1.6,5.3
		C209.3,25,208.8,23.3,209.2,21.6z"/>
	<g>
		<path class="st9" d="M262.5,26.2L262.5,26.2C262.6,26.2,262.6,26.2,262.5,26.2c0.1,0,0.1,0,0.1,0s0,0,0.1,0c0.2,0,0.4-0.1,0.5-0.3
			l2.3-2c0.1-0.1,0.2-0.2,0.2-0.4c0-0.1,0-0.2-0.1-0.3c-0.2-0.2-0.5-0.2-0.7-0.1l-1.5,1.3c0.8-6,6-10.7,12.3-10.5
			c6.4,0.1,11.6,5.3,11.8,11.6c0,0.3,0.2,0.5,0.5,0.5s0.5-0.2,0.5-0.5l0,0c-0.2-6.9-5.9-12.5-12.8-12.6c-6.8-0.2-12.5,4.9-13.3,11.4
			l-1.1-1.6c-0.2-0.2-0.5-0.3-0.7-0.1c-0.2,0.2-0.3,0.5-0.1,0.7l1.8,2.7l0,0l0,0l0,0l0,0l0,0l0,0C262.4,26.1,262.4,26.1,262.5,26.2
			C262.4,26.1,262.4,26.1,262.5,26.2L262.5,26.2z"/>
		<path class="st9" d="M289.6,30.7l-1.5-2.9l0,0l0,0l0,0l0,0l0,0l0,0l0,0l0,0l0,0l0,0l0,0l0,0l0,0l0,0l0,0l0,0l0,0l0,0l0,0l0,0
			l-2.8,1.9c-0.2,0.2-0.3,0.5-0.1,0.7c0.2,0.2,0.5,0.3,0.7,0.1l1.8-1.2c-1.3,4.7-5.4,8.2-10.2,8.7c3.3-3.7,4.9-7.6,4.6-11.5
			c-0.5-6.3-5.6-10.2-5.8-10.4c-0.2-0.2-0.6-0.2-0.8,0.1c-3.7,4-5.5,8.1-5.1,12.2c0.4,5,3.8,8.5,5.2,9.8c-5.6-0.2-10.4-4.3-11.4-9.7
			c-0.1-0.3-0.3-0.5-0.6-0.4c-0.3,0.1-0.4,0.3-0.4,0.6c1.2,6,6.5,10.4,12.6,10.6c5.9,0.1,11.3-3.9,12.9-9.5l0.9,1.6
			c0.1,0.2,0.4,0.3,0.7,0.2c0.2-0.1,0.3-0.3,0.3-0.4C289.7,30.9,289.7,30.8,289.6,30.7z M270.8,28.2c-0.3-3.6,1.2-7.3,4.4-10.9
			c1.2,1,4.6,4.5,5,9.3c0.3,3.4-1.1,6.8-3.9,10.2c-0.7-7.6-0.2-10.7-0.2-10.8c0.1-0.3-0.1-0.6-0.5-0.7c-0.3-0.1-0.6,0.1-0.7,0.5
			c0,0.1-0.6,3.2,0.2,10.9C273.7,35.3,271.1,32.2,270.8,28.2z"/>
	</g>
	<g>
		<g>
			<path class="st6" d="M39,175.3c0-1.1-0.8-2-1.9-2.1c-0.3-1.8-1-3.5-2.1-5c0.3-0.4,0.6-0.9,0.6-1.4c0-1.2-1-2.1-2.1-2.1
				c-0.6,0-1.1,0.2-1.4,0.6c-1.5-1-3.2-1.8-5-2.1c-0.1-1.1-1-1.9-2.1-1.9s-2,0.8-2.1,1.9c-1.8,0.3-3.5,1-5,2.1
				c-0.4-0.3-0.9-0.6-1.4-0.6c-1.2,0-2.1,1-2.1,2.1c0,0.5,0.2,1,0.6,1.4c-1,1.5-1.7,3.2-2.1,5c-1.1,0.1-1.9,1-1.9,2.1s0.8,2,1.9,2.1
				c0.3,1.8,1,3.5,2.1,5c-0.3,0.4-0.6,0.9-0.6,1.4c0,1.2,1,2.1,2.1,2.1c0.6,0,1.1-0.2,1.4-0.6c1.5,1,3.2,1.8,5,2.1
				c0.1,1.1,1,1.9,2.1,1.9s2-0.8,2.1-1.9c1.8-0.3,3.5-1,5-2.1c0.4,0.3,0.9,0.6,1.4,0.6c1.2,0,2.1-1,2.1-2.1c0-0.5-0.2-1.1-0.6-1.4
				c1-1.5,1.8-3.2,2.1-5C38.2,177.3,39,176.4,39,175.3z M33.5,181.7c-0.4,0-0.8,0.1-1.2,0.4l-2.2-2.2c1-1.2,1.6-2.6,1.7-4.1h3.1
				c0.2,0.8,0.7,1.4,1.5,1.6c-0.3,1.7-1,3.2-1.9,4.6C34.1,181.8,33.8,181.7,33.5,181.7z M21.3,180C21.3,180,21.3,179.9,21.3,180
				c0-0.3,0-0.5,0-0.7c0-0.1,0-0.1,0.1-0.2c0-0.1,0-0.3,0.1-0.4c0-0.1,0.1-0.1,0.1-0.2c0-0.1,0.1-0.2,0.1-0.3s0.1-0.1,0.1-0.2
				c0.1-0.1,0.1-0.2,0.2-0.3c0-0.1,0.1-0.1,0.1-0.2c0.1-0.1,0.1-0.2,0.2-0.3c0-0.1,0.1-0.1,0.1-0.2c0.1-0.1,0.2-0.2,0.3-0.3
				c0.1,0,0.1-0.1,0.2-0.1c0.1-0.1,0.2-0.2,0.3-0.3c0.1,0,0.1-0.1,0.2-0.1l0,0c0.4,0.3,1,0.6,1.6,0.6s1.1-0.2,1.6-0.6
				c0.1,0,0.1,0.1,0.2,0.1l0,0c0.2,0.1,0.3,0.2,0.4,0.4l0,0c0.1,0.1,0.3,0.3,0.4,0.4l0,0c0.1,0.2,0.2,0.3,0.3,0.5l0,0
				c0.1,0.2,0.2,0.3,0.3,0.5l0,0c0.1,0.2,0.1,0.4,0.2,0.5l0,0c0.1,0.2,0.1,0.4,0.1,0.5l0,0c0,0.2,0,0.4,0,0.6v0.1
				C26.5,181.7,23.5,181.7,21.3,180z M17.6,182c-0.3-0.2-0.7-0.4-1.2-0.4c-0.3,0-0.6,0.1-0.9,0.2c-0.9-1.3-1.6-2.9-1.9-4.6
				c0.7-0.2,1.3-0.8,1.5-1.6h3.1c0.1,1.5,0.7,3,1.7,4.1L17.6,182z M16.4,168.9c0.4,0,0.8-0.1,1.2-0.4l2.2,2.2
				c-1,1.2-1.6,2.6-1.7,4.1H15c-0.2-0.8-0.7-1.4-1.5-1.6c0.3-1.7,1-3.2,1.9-4.6C15.8,168.8,16.1,168.9,16.4,168.9z M25,169.3
				c1.6,0,3.1,0.6,4.2,1.7c2.2,2.3,2.3,5.8,0.2,8.2l0,0c0-0.2-0.1-0.4-0.1-0.5v-0.1c-0.1-0.2-0.1-0.3-0.2-0.5V178
				c-0.1-0.2-0.1-0.3-0.2-0.5l0,0c-0.2-0.4-0.4-0.7-0.7-1l0,0c-0.3-0.4-0.7-0.7-1-0.9c0.3-0.5,0.5-1.1,0.5-1.7
				c0-1.5-1.1-2.6-2.7-2.6s-2.7,1.1-2.7,2.6c0,0.6,0.2,1.2,0.5,1.7c-0.9,0.6-1.6,1.5-2,2.4c0,0,0,0,0,0.1c-0.1,0.2-0.1,0.3-0.2,0.5
				v0.1c0,0.2-0.1,0.3-0.1,0.5l0,0c-1-1.1-1.5-2.5-1.5-4c0-1.6,0.6-3.1,1.7-4.2C21.9,169.9,23.4,169.3,25,169.3z M32.3,168.5
				c0.3,0.2,0.7,0.4,1.2,0.4c0.3,0,0.6-0.1,0.9-0.2c0.9,1.3,1.6,2.9,1.9,4.6c-0.7,0.2-1.3,0.8-1.5,1.6h-3.1
				c-0.1-1.5-0.7-2.9-1.7-4.1L32.3,168.5z M23.1,174c0-1.1,0.8-1.8,1.8-1.8c1.1,0,1.8,0.7,1.8,1.8s-0.8,2.1-1.8,2.1
				C24,176,23.1,175.1,23.1,174z M38.2,175.3c0,0.7-0.6,1.3-1.3,1.3s-1.3-0.6-1.3-1.3s0.6-1.3,1.3-1.3
				C37.6,174,38.2,174.6,38.2,175.3z M33.5,165.5c0.7,0,1.3,0.6,1.3,1.3s-0.6,1.3-1.3,1.3s-1.3-0.6-1.3-1.3S32.8,165.5,33.5,165.5z
				 M27,164c1.7,0.3,3.2,1,4.6,1.9c-0.1,0.3-0.2,0.6-0.2,0.9c0,0.4,0.1,0.8,0.4,1.2l-2.2,2.3c-1.1-1-2.6-1.6-4.1-1.7v-3.1
				C26.2,165.3,26.8,164.7,27,164z M25,162.1c0.7,0,1.3,0.6,1.3,1.3s-0.6,1.3-1.3,1.3c-0.7,0-1.3-0.6-1.3-1.3
				C23.7,162.6,24.3,162.1,25,162.1z M24.5,165.4v3.1c-1.5,0.1-2.9,0.7-4.1,1.7l-2.2-2.3c0.2-0.3,0.4-0.7,0.4-1.2
				c0-0.3-0.1-0.6-0.2-0.9c1.3-0.9,2.9-1.6,4.6-1.9C23.2,164.7,23.8,165.3,24.5,165.4z M16.4,165.5c0.7,0,1.3,0.6,1.3,1.3
				s-0.6,1.3-1.3,1.3c-0.7,0-1.3-0.6-1.3-1.3S15.7,165.5,16.4,165.5z M11.7,175.3c0-0.7,0.6-1.3,1.3-1.3s1.3,0.6,1.3,1.3
				s-0.6,1.3-1.3,1.3S11.7,176,11.7,175.3z M16.4,185.1c-0.7,0-1.3-0.6-1.3-1.3s0.6-1.3,1.3-1.3c0.7,0,1.3,0.6,1.3,1.3
				C17.7,184.5,17.1,185.1,16.4,185.1z M22.9,186.6c-1.7-0.3-3.2-1-4.6-1.9c0.1-0.3,0.2-0.6,0.2-0.9c0-0.4-0.1-0.8-0.4-1.2l2.2-2.2
				c0.1,0.1,0.1,0.1,0.2,0.1c1.1,0.9,2.5,1.5,3.9,1.5v3.1C23.8,185.3,23.2,185.9,22.9,186.6z M25,188.5c-0.7,0-1.3-0.6-1.3-1.3
				s0.6-1.3,1.3-1.3c0.7,0,1.3,0.6,1.3,1.3S25.7,188.5,25,188.5z M25.4,185.1V182c1.4-0.1,2.8-0.6,3.9-1.5l0,0
				c0.1-0.1,0.1-0.1,0.2-0.1l2.2,2.2c-0.2,0.3-0.4,0.7-0.4,1.2c0,0.3,0.1,0.6,0.2,0.9c-1.3,0.9-2.9,1.6-4.6,1.9
				C26.8,185.9,26.2,185.3,25.4,185.1z M33.5,185.1c-0.7,0-1.3-0.6-1.3-1.3s0.6-1.3,1.3-1.3s1.3,0.6,1.3,1.3S34.2,185.1,33.5,185.1z
				"/>
		</g>
	</g>
	<g>
		<path class="st6" d="M76,178.9C76.1,178.9,76.1,178.9,76,178.9c0.1-0.1,0.1-0.1,0.2-0.1c2.9-3,4.2-6.2,3.9-9.4
			c-0.4-4.9-4.4-8-4.5-8.1c-0.2-0.2-0.5-0.1-0.7,0.1c-2.9,3.1-4.3,6.3-4,9.5c0.4,4.9,4.4,7.9,4.6,8l0,0c0.1,0.1,0.2,0.1,0.3,0.1
			c0,0,0,0,0.1,0C75.9,179,75.9,179,76,178.9C76,179,76,179,76,178.9z M76.1,169.1c0-0.1,0-0.3-0.1-0.4c-0.1-0.1-0.2-0.2-0.3-0.2
			c-0.1,0-0.3,0-0.4,0.1s-0.2,0.2-0.2,0.4c0,0.1-0.4,2.4,0.1,8.2c-1.1-1.2-2.9-3.4-3.1-6.3c-0.2-2.7,0.9-5.5,3.3-8.3
			c0.9,0.8,3.4,3.4,3.7,7c0.2,2.5-0.8,5.1-2.8,7.6C75.7,171.5,76.1,169.1,76.1,169.1z"/>
		<path class="st6" d="M88.6,168.2c-0.3-0.4-0.8-0.6-1.3-0.7c-0.5-0.1-1,0.1-1.4,0.4c-0.4,0.3-0.6,0.8-0.7,1.3l-0.9,5.7
			c-0.3,0-0.7,0.1-1,0.3l-3.7,2c-0.5,0.2-0.9,0.6-1.2,1l-1.8,2.6c-1,1.5-0.6,3.5,0.8,4.6l1.1,0.7c0.3,0.2,0.7,0.3,1.1,0.3
			s0.8-0.1,1.1-0.4l4.6-3.5c0.7-0.5,1.3-1.3,1.6-2.1l1.4-4c0.1-0.3,0.2-0.6,0.2-0.9l0.4-5.9C89.1,169,88.9,168.5,88.6,168.2z
			 M86.2,169.3L86.2,169.3c0.1-0.2,0.2-0.4,0.4-0.6c0.2-0.1,0.4-0.2,0.6-0.2s0.4,0.1,0.6,0.3c0.1,0.2,0.2,0.4,0.2,0.6l-0.4,5.9
			c0,0.2-0.1,0.4-0.1,0.6l-1.4,4c-0.2,0.7-0.7,1.2-1.2,1.7l-4.6,3.5c-0.3,0.2-0.7,0.2-1,0l-1.1-0.7c-0.5-0.3-0.8-0.8-0.9-1.4
			s0-1.2,0.4-1.7l1.8-2.6c0.2-0.3,0.5-0.5,0.8-0.7l3.7-2c0.2-0.1,0.4-0.2,0.5-0.2c0.3,0,0.5,0.1,0.7,0.4c0.3,0.4,0.2,0.9-0.2,1.1
			l-3.9,2.3c-0.3,0.1-0.3,0.5-0.2,0.7c0.1,0.3,0.5,0.3,0.7,0.2l4-2.3c0.9-0.6,1.1-1.8,0.5-2.6c-0.2-0.2-0.3-0.4-0.6-0.6l0.9-5.8
			L86.2,169.3L86.2,169.3z"/>
		<path class="st6" d="M72.3,178c-0.4-0.4-0.8-0.7-1.3-0.9l-3.9-1.4c-0.4-0.2-0.7-0.2-1.1-0.2l-1.7-5.5c-0.1-0.5-0.4-0.9-0.8-1.2
			c-0.4-0.3-0.9-0.3-1.4-0.2s-0.9,0.4-1.2,0.9c-0.3,0.4-0.3,0.9-0.2,1.4l1.2,5.8c0.1,0.3,0.2,0.6,0.3,0.8l2,3.8
			c0.4,0.8,1.1,1.5,1.9,1.9l5,2.8c0.3,0.2,0.6,0.2,0.9,0.2c0.5,0,0.9-0.2,1.3-0.5l1-0.9c0.6-0.6,1-1.4,1.1-2.3
			c0-0.9-0.3-1.7-0.9-2.4L72.3,178z M61.6,170.7c-0.1-0.2,0-0.4,0.1-0.6c0.1-0.2,0.3-0.3,0.5-0.4c0.2-0.1,0.4,0,0.6,0.1
			c0.2,0.1,0.3,0.3,0.4,0.5c0,0,0,0,0,0.1l1.7,5.6c-0.2,0.2-0.3,0.4-0.5,0.6c-0.2,0.5-0.2,1-0.1,1.5c0.2,0.5,0.5,0.9,1,1.1l4.2,1.8
			c0.1,0.1,0.3,0.1,0.4,0s0.2-0.2,0.3-0.3c0.1-0.3,0-0.6-0.3-0.7l-4.2-1.7c-0.4-0.2-0.6-0.7-0.4-1.1c0.2-0.5,0.7-0.6,1.2-0.4
			l3.9,1.5c0.3,0.1,0.6,0.3,0.9,0.6l2.1,2.3c0.4,0.4,0.6,1,0.6,1.6s-0.3,1.1-0.7,1.5l-1,0.9c-0.3,0.2-0.7,0.3-1,0.1l-5-2.8
			c-0.6-0.3-1.1-0.8-1.4-1.5l-2-3.8c-0.1-0.2-0.2-0.4-0.2-0.6L61.6,170.7L61.6,170.7L61.6,170.7z M61.6,170.7L61.6,170.7L61.6,170.7
			L61.6,170.7z"/>
	</g>
	<g>
		<g>
			<polyline class="st10" points="116.4,170.4 110.7,175.1 116.8,180.1 			"/>
			<polyline class="st10" points="133.4,170.4 139.1,175.1 133,180.1 			"/>
		</g>
		<g>
			<line class="st10" x1="120.6" y1="172.1" x2="129.3" y2="172.1"/>
			<line class="st10" x1="120.6" y1="176.9" x2="129.3" y2="176.9"/>
		</g>
	</g>
	<g>
		<path class="st11" d="M225,256.8c-4.9,0-5.5,0-7.4,0.1s-3.2,0.4-4.4,0.8c-1.2,0.5-2.3,1.2-3.2,2.1s-1.6,2-2.1,3.2
			c-0.4,1.1-0.8,2.5-0.8,4.4c-0.1,1.9-0.1,2.5-0.1,7.4s0,5.5,0.1,7.4s0.4,3.2,0.8,4.4c0.5,1.2,1.2,2.3,2.1,3.2c1,1,2,1.6,3.2,2.1
			c1.1,0.4,2.5,0.8,4.4,0.8c1.9,0.1,2.5,0.1,7.4,0.1s5.5,0,7.4-0.1s3.2-0.4,4.4-0.8c1.2-0.5,2.3-1.2,3.2-2.1c1-1,1.6-2,2.1-3.2
			c0.4-1.1,0.8-2.5,0.8-4.4c0.1-1.9,0.1-2.5,0.1-7.4s0-5.5-0.1-7.4s-0.4-3.2-0.8-4.4c-0.5-1.2-1.2-2.3-2.1-3.2
			c-0.9-0.9-2-1.6-3.2-2.1c-1.1-0.4-2.5-0.8-4.4-0.8S229.9,256.8,225,256.8z M225,260.1c4.8,0,5.4,0,7.3,0.1
			c1.8,0.1,2.7,0.4,3.3,0.6c0.8,0.3,1.4,0.7,2.1,1.3c0.6,0.6,1,1.2,1.3,2.1c0.2,0.6,0.5,1.6,0.6,3.3c0.1,1.9,0.1,2.5,0.1,7.3
			s0,5.4-0.1,7.3c-0.1,1.8-0.4,2.7-0.6,3.3c-0.3,0.8-0.7,1.5-1.3,2.1s-1.2,1-2.1,1.3c-0.6,0.2-1.6,0.5-3.3,0.6
			c-1.9,0.1-2.5,0.1-7.3,0.1s-5.4,0-7.3-0.1c-1.8-0.1-2.7-0.4-3.3-0.6c-0.8-0.3-1.5-0.7-2.1-1.3c-0.6-0.6-1.1-1.3-1.3-2.1
			c-0.2-0.6-0.5-1.6-0.6-3.3c-0.1-1.9-0.1-2.5-0.1-7.3s0-5.4,0.1-7.3c0.1-1.8,0.4-2.7,0.6-3.3c0.3-0.8,0.7-1.4,1.3-2.1
			c0.6-0.6,1.2-1,2.1-1.3c0.6-0.2,1.6-0.5,3.3-0.6C219.6,260.1,220.2,260.1,225,260.1z"/>
		<path class="st11" d="M225,280.8c-3.3,0-6-2.7-6-6s2.7-6,6-6l0,0c3.3,0,6,2.7,6,6C231,278.2,228.3,280.8,225,280.8z M225,265.6
			c-5.1,0-9.3,4.1-9.3,9.2s4.1,9.3,9.2,9.3l0,0c5.1,0,9.3-4.1,9.3-9.3C234.3,269.7,230.1,265.6,225,265.6z M236.9,265.4
			c0,1.2-1,2.2-2.2,2.2s-2.2-1-2.2-2.2s1-2.2,2.2-2.2C236,263.2,236.9,264.2,236.9,265.4"/>
	</g>
	<g>
		<path class="st11" d="M275,256.8c-4.9,0-5.5,0-7.4,0.1s-3.2,0.4-4.4,0.8c-1.2,0.5-2.3,1.2-3.2,2.1c-0.9,0.9-1.6,2-2.1,3.2
			c-0.4,1.1-0.8,2.5-0.8,4.4c-0.1,1.9-0.1,2.5-0.1,7.4s0,5.5,0.1,7.4s0.4,3.2,0.8,4.4c0.5,1.2,1.2,2.3,2.1,3.2c1,1,2,1.6,3.2,2.1
			c1.1,0.4,2.5,0.8,4.4,0.8c1.9,0.1,2.5,0.1,7.4,0.1s5.5,0,7.4-0.1s3.2-0.4,4.4-0.8c1.2-0.5,2.3-1.2,3.2-2.1c1-1,1.6-2,2.1-3.2
			c0.4-1.1,0.8-2.5,0.8-4.4c0.1-1.9,0.1-2.5,0.1-7.4s0-5.5-0.1-7.4s-0.4-3.2-0.8-4.4c-0.5-1.2-1.2-2.3-2.1-3.2
			c-0.9-0.9-2-1.6-3.2-2.1c-1.1-0.4-2.5-0.8-4.4-0.8S279.9,256.8,275,256.8z M275,260.1c4.8,0,5.4,0,7.3,0.1
			c1.8,0.1,2.7,0.4,3.3,0.6c0.8,0.3,1.4,0.7,2.1,1.3c0.6,0.6,1,1.2,1.3,2.1c0.2,0.6,0.5,1.6,0.6,3.3c0.1,1.9,0.1,2.5,0.1,7.3
			s0,5.4-0.1,7.3c-0.1,1.8-0.4,2.7-0.6,3.3c-0.3,0.8-0.7,1.5-1.3,2.1c-0.6,0.6-1.2,1-2.1,1.3c-0.6,0.2-1.6,0.5-3.3,0.6
			c-1.9,0.1-2.5,0.1-7.3,0.1s-5.4,0-7.3-0.1c-1.8-0.1-2.7-0.4-3.3-0.6c-0.8-0.3-1.5-0.7-2.1-1.3c-0.6-0.6-1.1-1.3-1.3-2.1
			c-0.2-0.6-0.5-1.6-0.6-3.3c-0.1-1.9-0.1-2.5-0.1-7.3s0-5.4,0.1-7.3c0.1-1.8,0.4-2.7,0.6-3.3c0.3-0.8,0.7-1.4,1.3-2.1
			c0.6-0.6,1.2-1,2.1-1.3c0.6-0.2,1.6-0.5,3.3-0.6C269.6,260.1,270.2,260.1,275,260.1z"/>
		<path class="st12" d="M283.9,278.4l0.7-4.4h-4.2v-2.9c0-1.2,0.6-2.4,2.5-2.4h1.9V265c0,0-1.7-0.3-3.4-0.3c-3.5,0-5.7,2.1-5.7,5.9
			v3.4h-3.9v4.4h3.9V289c0.8,0.1,1.6,0.2,2.4,0.2s1.6-0.1,2.4-0.2v-10.6H283.9z"/>
	</g>
</g>
<g>
	<g>
		<path class="st6" d="M7.7,219.6v9.6H6.3v-4.6H1.4v4.6H0v-9.6h1.4v4.5h4.8v-4.5H7.7z"/>
		<path class="st6" d="M38.2,229.1h-1.4l-1.1-6.6l-3.6,6.6l-3.2-6.1l-0.7,6.1h-0.6l1.1-9.6l3.9,7.4l4-7.4L38.2,229.1L38.2,229.1z"/>
		<path class="st6" d="M41.5,229.1l4.3-9.6l4.4,9.6h-1.6l-0.8-1.8H43l-0.8,1.8H41.5z M43.2,226.8h4.4l-2.2-4.8L43.2,226.8z"/>
	</g>
	<g>
		<path class="st6" d="M23.1,225.6c0-0.4,0.1-0.8-0.1-1.2c0-0.1-0.1-0.3,0.1-0.4c0.2-0.1,0.4-0.1,0.6,0c0.2,0.2,0.4,0.4,0.4,0.7
			c0.1,0.6,0.1,1.1,0.1,1.7c0,0.3-0.2,0.6-0.3,0.9c-0.3,0.5-0.6,0.9-0.9,1.3c-0.1,0.2-0.2,0.3-0.3,0.4c-0.3,0.2-0.5,0.4-0.7,0.8
			c-0.1,0.2-0.4,0.3-0.6,0.4c-0.2,0.1-0.3,0.2-0.5,0.3c-0.4,0.3-0.9,0.5-1.3,0.6c-0.6,0.1-1.2,0.2-1.8,0.2c-0.7-0.1-1.3-0.3-1.9-0.6
			c-0.3-0.2-1.2-0.6-1.3-0.8c-0.1-0.1-1.2-1.1-1.6-1.6c-0.4-0.5-0.4-0.4-0.9-1.1c-0.1-0.2-0.2-0.5-0.3-0.9s-0.3-2.6-0.1-3.5
			c0.2-1,0.6-1.4,1-2.1c0.6-1,1.4-1.7,2.6-2.1c0.7-0.2,1.4-0.3,2.1-0.5c0.7-0.1,1.4,0.1,2.1,0.2c0.4,0.1,0.8,0.2,1.2,0.4
			c0.3,0.1,0.5,0.2,0.7,0.4s0.4,0.3,0.7,0.4c0.3,0.1,0.6,0.4,0.6,0.8s0.2,0.8-0.2,1c-0.4,0.2-0.8,0.5-1.2,0.3
			c-0.5-0.2-1.1-0.4-1.6-0.7c-0.2-0.2-0.5-0.2-0.8-0.2c-0.4-0.1-0.9-0.2-1.3-0.2c-1.1,0.1-2.2,0.4-2.8,1.5c-0.3,0.5-0.6,1-0.9,1.5
			c-0.1,0.2-0.2,0.5-0.2,0.7c0,0.4-0.1,0.8-0.1,1.2s0.1,0.7,0.4,1c0.1,0.1,0.2,0.2,0.3,0.3c0.3,0.5,0.9,0.9,1.3,1.4
			c0,0.1,0.1,0.1,0.2,0.1c0.4,0.6,1.1,0.8,1.7,1.1c0.3,0.1,0.7,0.2,1,0.1c0.3-0.1,0.7-0.1,1-0.1c0.2,0,0.3-0.1,0.5-0.2
			c0.7-0.3,1.5-0.6,2.1-1.1c0.7-0.6,1.3-1.3,1.3-2.3C23.1,225.8,23.1,225.7,23.1,225.6z"/>
		<path class="st6" d="M13.4,215.8c0-0.1,0-0.1,0-0.2c-0.1-0.3,0-0.4,0.3-0.4c0.1,0,0.2,0,0.2-0.1c0-0.4,0.3-0.4,0.6-0.4
			s0.6,0,0.9,0.2c0.2,0.1,0.4,0.2,0.6,0.1c0.2-0.1,0.4-0.1,0.6,0c0.1,0,0.2,0.1,0.3,0.1c0.6-0.2,1.1,0.1,1.7,0.2
			c0.1,0,0.2,0.1,0.3,0.1c0.2,0,0.4,0,0.6,0.2c0.1,0.1,0.2,0.1,0.3,0.1c0.4,0,0.8,0,1.2,0.2c0.1,0,0.2,0.1,0.2,0.2
			c0,0.1,0,0.2-0.1,0.2s-0.2,0-0.3-0.1c-0.6-0.1-1.3,0-1.9,0.2c-0.1,0-0.2,0-0.2,0.1c-0.1,0.3-0.4,0.3-0.6,0.3c-0.3,0-0.5,0-0.8-0.1
			c-0.2-0.1-0.4,0-0.6,0.1c-0.8,0.5-1.6,0.4-2.4,0.3c-0.1,0-0.1,0-0.2-0.1C13.7,216.5,13.3,216.2,13.4,215.8z"/>
	</g>
</g>
<g>
	<g>
		<g>
			<path class="st6" d="M47.1,235c-0.2,0-0.4,0-0.6-0.1c0.1,0,0.1,0.1,0,0.1l-0.1-0.1c0.2,0,0.4-0.1,0.6,0L47.1,235
				C47.1,234.9,47.1,235,47.1,235L47.1,235c0-0.1-0.1-0.1-0.3-0.1c-0.6,0-1.1,0-1.6,0c0,0-0.1,0.1-0.1,0H45h-0.2h-0.1l0,0
				c0,0,0,0,0,0.1h0.1h-0.1h-0.1h-0.1h0.1l0,0h0.1l0,0l0,0l0,0h-0.5h-0.1c-0.1,0-0.2,0-0.3,0h-0.1l0,0l0,0h-0.4h-0.8
				c-1.6-0.1-3.2,0-4.8,0c-0.9,0-1.8-0.1-2.7-0.1c-1.7-0.1-3.3,0.1-5.1-0.2c-0.7-0.1-1.9,0-2.6,0c-0.9,0.2-0.4,0.7-0.4,0.7
				c0.5,0.4,0.9,0.2,2,0.4c-0.6-0.1,0.6-0.3,1.3,0c1,0.4,2.5,0.1,3.7,0.2c0.3,0,0.6,0,1,0c1.9,0.1,3.7-0.1,5.8-0.1
				c0.5,0,1-0.1,1.5-0.2c0.3,0,0.7,0,1,0c0.4,0,0.8,0,1.1-0.1c-0.4,0-0.7,0.1-1.1,0.1c-0.3,0,0.2-0.2,0.4-0.2c0.1,0,0.2,0.1,0.3,0.1
				c0.2,0,0.4-0.1,0.5-0.1s0.1,0.1,0.1,0.1c0.3,0,0.5-0.2,0.6-0.2s0.2,0,0.4,0.1c0.1,0,0.2,0,0.2,0h0.1
				C46.4,235.2,46.8,235.1,47.1,235L47.1,235z M43,234.9c-0.1,0-0.3,0-0.4-0.1C42.7,234.8,42.8,234.9,43,234.9z"/>
			<path class="st6" d="M31.8,235.9c-0.5,0-0.9,0-1.3-0.2c-0.5-0.2-1.4-0.2-1.4-0.1l0,0c0,0,0,0,0.2,0.1l0,0c-0.3-0.1-0.6-0.1-1-0.1
				s-0.7,0-1-0.3c0,0-0.2-0.2-0.2-0.4s0.2-0.3,0.5-0.4H28c0.7,0,1.6-0.1,2.2,0c1.1,0.2,2.1,0.2,3.1,0.2c0.6,0,1.3,0,2,0
				c0.9,0.1,1.7,0.1,2.7,0.1c0.7,0,1.4,0,2.1,0c0.9,0,1.8,0,2.7,0h0.8H44l0,0l0,0l0,0l0,0l0,0c0.1,0.1,0.2,0,0.3,0h0.1l0,0h0.5H45
				h0.2h0.1h0.1l0,0l0,0l0,0c0.6,0,1.1,0,1.6,0l0,0c0.1,0,0.3,0.1,0.4,0.1l0,0h-0.1h-0.1l0,0l0,0c-0.4,0.1-0.8,0.1-1.1,0.2l0,0H46
				c-0.1,0-0.2,0-0.2,0c-0.1,0-0.2,0-0.4-0.1c-0.1,0-0.2,0-0.3,0.1c-0.1,0-0.2,0.1-0.3,0.1l0,0c0,0,0-0.1-0.1,0c-0.1,0-0.1,0-0.2,0
				c-0.1,0-0.2,0.1-0.4,0.1c-0.1,0-0.1,0-0.2,0h-0.1c-0.2,0-0.5,0.1-0.5,0.2h0.1c0.2,0,0.5,0,0.7-0.1c0.1,0,0.3,0,0.5,0l0,0
				c-0.4,0.1-0.8,0.1-1.1,0.1c-0.1,0-0.2,0-0.4,0s-0.4,0-0.6,0c-0.1,0-0.2,0-0.4,0.1c-0.4,0.1-0.7,0.1-1.1,0.1c-0.8,0-1.6,0-2.4,0.1
				c-1.2,0.1-2.2,0.1-3.4,0c-0.1,0-0.3,0-0.4,0c-0.2,0-0.4,0-0.6,0c-0.5,0-1,0-1.4,0C32.4,235.8,32.1,235.9,31.8,235.9z M29.5,235.5
				c0.3,0,0.7,0.1,1,0.2c0.6,0.3,1.4,0.2,2.3,0.2c0.5,0,1-0.1,1.4,0c0.2,0,0.4,0,0.6,0c0.1,0,0.3,0,0.4,0c1.2,0.1,2.3,0,3.4,0
				c0.7,0,1.5-0.1,2.3-0.1l0,0c0.4,0,0.7-0.1,1.1-0.1c0.1,0,0.3,0,0.4-0.1c0.2,0,0.4,0,0.6,0c0.1,0,0.2,0,0.4,0c0.3,0,0.6,0,0.8-0.1
				h-0.1c-0.2,0-0.4,0-0.7,0.1c-0.1,0-0.1,0-0.1,0c0-0.1,0.4-0.2,0.5-0.2s0.1,0,0.2,0h0.1l0,0c0.1,0,0.2,0,0.4-0.1
				c0.1,0,0.1,0,0.2,0c0.1,0,0.1,0,0.1,0.1l0,0c0.1,0,0.2,0,0.3-0.1s0.2-0.1,0.3-0.1s0.2,0,0.4,0.1c0.1,0,0.1,0,0.2,0h0.1l0,0
				c0.3-0.1,0.6-0.1,1-0.2c-0.2,0-0.3,0-0.5,0l0,0c0,0,0,0-0.1,0l0,0l0,0l-0.1-0.1l0,0l0,0c0.2,0,0.4-0.1,0.6,0h0.1
				c-0.1,0-0.1,0-0.2,0c-0.5,0-1,0-1.6,0l0,0h-0.1h-0.1h-0.2h-0.1l0,0l0,0l0,0h0.1l0,0l0,0c0,0,0,0-0.1,0h-0.1l0,0h-0.1l0,0h0.1l0,0
				h0.1h-0.4l0,0h-0.1c-0.1,0-0.2,0-0.3,0l0,0l0,0h-0.1l0,0h-0.4h-0.7c0.1,0,0.1,0,0.2,0.1l0,0l0,0c-0.1,0-0.3,0-0.4-0.1l0,0l0,0
				h0.1c-0.9,0-1.8,0-2.7,0c-0.7,0-1.4,0-2.1,0c-0.9,0-1.8-0.1-2.7-0.1c-0.7,0-1.3,0-2,0c-1,0-2,0-3.1-0.2c-0.6-0.1-1.5,0-2.2,0
				h-0.4c-0.3,0.1-0.5,0.2-0.5,0.4s0.1,0.3,0.2,0.4c0.3,0.2,0.6,0.3,1,0.3c0.3,0,0.6,0,0.8,0.1l0,0l0,0
				C29,235.5,29.2,235.5,29.5,235.5z M46.5,234.9c0.2,0.1,0.4,0.1,0.6,0.1l0,0c0,0,0-0.1-0.1-0.1h-0.1l0,0l0,0
				C46.8,234.9,46.7,234.9,46.5,234.9L46.5,234.9z M46.4,235L46.4,235C46.5,235,46.5,235,46.4,235L46.4,235
				C46.5,235,46.5,235,46.4,235L46.4,235L46.4,235L46.4,235z M47.1,235L47.1,235L47.1,235l0.1,0.1C47.2,235,47.2,235,47.1,235
				L47.1,235z M42.6,234.9c0.1,0,0.2,0.1,0.3,0C42.8,234.9,42.7,234.9,42.6,234.9L42.6,234.9z M44.7,234.9L44.7,234.9L44.7,234.9
				L44.7,234.9L44.7,234.9z"/>
		</g>
		<g>
			<path class="st6" d="M29.1,235.6L29.1,235.6L29.1,235.6z"/>
			<path class="st6" d="M29.2,235.7L29.2,235.7L29.2,235.7L29.2,235.7L29.2,235.7L29.2,235.7z"/>
		</g>
	</g>
	<g>
		<g>
			<path class="st6" d="M9.3,233.9L9.3,233.9L9.3,233.9z"/>
			<path class="st6" d="M9.2,233.9L9.2,233.9L9.2,233.9L9.2,233.9L9.2,233.9L9.2,233.9z"/>
		</g>
		<g>
			<path class="st6" d="M10.2,234.3c-0.3-0.4-0.4-0.2-0.9-0.3c0.3,0.1-0.3,0.3-0.6,0c-0.5-0.4-1.1,0-1.7-0.1c-0.2,0-0.3,0-0.5,0
				c-0.9-0.1-1.7,0.2-2.6,0.2c-0.2,0-0.4,0.2-0.6,0.2c-0.2,0-0.3,0-0.4,0c-0.2,0-0.3,0.1-0.5,0.1c0.2,0,0.3-0.1,0.5-0.1
				c0.1,0-0.1,0.2-0.2,0.2l-0.1-0.1c-0.1,0-0.2,0.1-0.2,0.1s0-0.1-0.1-0.1s-0.2,0.2-0.3,0.2c-0.1,0-0.1,0-0.2,0H1.7H1.6
				c-0.1,0-0.2,0.1-0.3,0.1c0,0-0.1,0-0.1,0.1H1.1l0,0c0.1,0,0.2,0,0.3,0v-0.1v0.1c-0.1,0-0.2,0.1-0.2,0H1.1v-0.1c0,0,0,0-0.1,0
				c0.1,0.1,0.1,0.1,0.2,0.1c0.2,0,0.5,0,0.7-0.1c0,0,0-0.1,0.1,0c0,0,0,0,0.1,0h0.1l0,0l0,0c0,0,0,0,0-0.1l0,0l0,0c0,0,0,0,0.1,0
				l0,0l0,0l0,0l0,0l0,0l0,0l0,0h0.2l0,0c0.1,0,0.1,0,0.2,0l0,0l0,0l0,0h0.5c0.7,0,1.4-0.1,2.2-0.1c0.4,0,0.8,0,1.2,0
				c0.8,0.1,1.5-0.2,2.3,0.1c0.3,0.1,0.9,0,1.2-0.1C10.4,234.8,10.2,234.3,10.2,234.3z M3.1,234.9c0.1,0,0.1,0,0.2,0
				C3.2,235,3.2,235,3.1,234.9z"/>
			<path class="st6" d="M9.2,235.1c-0.1,0-0.2,0-0.3,0C8.4,235,8,235,7.5,235c-0.3,0-0.6,0-0.9,0c-0.4,0-0.8-0.1-1.2,0
				c-0.3,0-0.6,0-1,0s-0.8,0-1.2,0H2.7l0,0H2.6l0,0l0,0H2.2l0,0H2.1l0,0c0,0,0,0-0.1,0l0,0l0,0l0,0l0,0c-0.2,0-0.5,0-0.7,0.1l0,0
				l0,0c-0.1,0-0.1-0.1-0.2-0.1l0,0l0,0l0,0l0,0l0,0h0.1c0,0,0.1,0,0.1-0.1c0.1,0,0.2-0.1,0.3-0.1l0,0h0.1l0,0h0.1
				c0.1,0,0.1,0,0.2,0c0,0,0.1,0,0.1-0.1l0.1-0.1l0,0l0,0l0,0l0,0l0,0h0.1c0.1,0,0.1-0.1,0.2-0.1h0.1c0,0,0,0,0.1,0l0,0
				c0.1,0,0.2-0.2,0.2-0.2l0,0c-0.1,0-0.2,0-0.3,0.1c-0.1,0-0.1,0-0.2,0.1l0,0c0.2-0.1,0.3-0.1,0.5-0.1c0.1,0,0.1,0,0.2,0
				c0.1,0,0.2,0,0.3,0s0.1,0,0.2-0.1c0.2-0.1,0.3-0.1,0.5-0.2c0.3,0,0.7-0.1,1-0.1c0.5-0.1,1-0.2,1.5-0.1c0.1,0,0.1,0,0.2,0
				s0.2,0,0.3,0c0.2,0,0.4,0,0.6-0.1c0.4-0.1,0.7-0.1,1,0.1c0.2,0.1,0.4,0.2,0.6,0.1l0,0c0,0,0,0-0.1-0.1l0,0
				c0.1,0.1,0.3,0.1,0.4,0.1c0.2,0,0.3,0,0.5,0.3c0.1,0.1,0.1,0.3,0.1,0.5c0,0.1-0.1,0.2-0.2,0.3l0,0H9.8
				C9.7,235.1,9.4,235.1,9.2,235.1z M8.1,235c0.3,0,0.6,0,0.9,0.1c0.3,0.1,0.7,0,1,0h0.2c0.1-0.1,0.2-0.2,0.2-0.3
				c0-0.2,0-0.3-0.1-0.5l0,0c-0.2-0.2-0.3-0.2-0.5-0.3c-0.1,0-0.2,0-0.4-0.1l0,0c0,0,0,0-0.1,0.1c-0.2,0.1-0.5,0-0.6-0.1
				c-0.3-0.2-0.7-0.2-1-0.1c-0.2,0.1-0.4,0.1-0.6,0.1c-0.1,0-0.2,0-0.3,0c-0.1,0-0.1,0-0.2,0c-0.5,0-1,0-1.5,0.1
				c-0.3,0.1-0.7,0.1-1.1,0.1c-0.2,0-0.3,0.1-0.5,0.2c-0.1,0-0.1,0.1-0.2,0.1c-0.1,0-0.2,0-0.3,0s-0.1,0-0.2,0c-0.1,0-0.2,0-0.4,0.1
				h0.1c0.1,0,0.2,0,0.3-0.1c0,0,0,0,0.1,0c0,0.1-0.2,0.2-0.2,0.2H2.6c0,0,0,0-0.1,0l0,0l0,0c-0.1,0-0.1,0-0.2,0.1H2.2l0,0
				c0,0,0,0,0-0.1l0,0c-0.1,0-0.1,0.1-0.1,0.1c-0.1,0-0.1,0.1-0.1,0.1c-0.1,0-0.1,0-0.2,0H1.7H1.6l0,0c-0.1,0-0.2,0.1-0.3,0.1
				c0,0-0.1,0-0.1,0.1H1.1c0.1,0,0.1,0,0.2,0l0,0l0,0l0,0l0,0v0.1l0,0l0,0c-0.1,0-0.2,0.1-0.3,0l0,0h0.1c0.2,0,0.4,0,0.7-0.1l0,0
				c0,0,0,0,0.1,0l0,0c0,0,0,0,0.1,0h0.1l0,0l0,0l0,0l0,0l0,0l0,0l0,0l0,0l0,0l0,0l0,0l0,0l0,0h0.2l0,0l0,0c0.1,0,0.1,0,0.2,0l0,0
				l0,0l0,0l0,0H3c0,0-0.1,0-0.1-0.1l0,0l0,0c0.1,0,0.2,0,0.2,0l0,0l0,0l0,0c0.4,0,0.8,0,1.2,0c0.3,0,0.6,0,1,0s0.8,0,1.2,0
				c0.3,0,0.6,0,0.9,0C7.7,235,7.9,235,8.1,235z M1.3,235L1.3,235c0.1,0.1,0.1,0.1,0.2,0l0,0C1.4,235,1.3,234.9,1.3,235L1.3,235
				C1.2,235,1.3,235,1.3,235L1.3,235L1.3,235z M1.2,235L1.2,235L1.2,235L1.2,235L1.2,235z M2.3,235L2.3,235z M3.1,235
				c0,0,0.1,0.1,0.2,0C3.2,235,3.2,234.9,3.1,235L3.1,235z M1.5,235L1.5,235L1.5,235L1.5,235L1.5,235L1.5,235L1.5,235z"/>
		</g>
	</g>
	<g>
		<path class="st6" d="M14.3,232c-0.6,1.1-1.2,2.3-2,3.3c-0.2,0.3-0.5,0.6-0.7,0.9l0.5-0.1l0,0c0.1-0.1,0-0.2-0.1-0.2
			s-0.3,0.1-0.3,0.2c-0.1,0.1-0.1,0.1-0.1,0.2c0,0.2,0.4,0,0.5-0.1c0.9-1,1.6-2.1,2.2-3.3c0.2-0.3,0.4-0.7,0.6-1
			c0.1-0.1-0.1-0.1-0.2-0.1C14.5,231.9,14.3,231.9,14.3,232z"/>
		<path class="st6" d="M15.7,233.1c-1.4,0.6-2.8,1-4.2,1.4l0.3,0.4c0.2-0.1,0.3,0.1,0.5,0.1c0.2,0.1,0.4,0.2,0.6,0.3
			c0.4,0.2,0.8,0.3,1.2,0.4c0.8,0.2,1.7,0.4,2.5,0.4c0.4,0,0.8-0.1,1.1-0.4c0.1-0.1,0-0.2-0.1-0.3s-0.3-0.2-0.3-0.1
			c-0.2,0.2-0.6,0.3-0.9,0.3c-0.4,0-0.8,0-1.2-0.1c-0.8-0.1-1.6-0.4-2.4-0.7c-0.2-0.1-0.4-0.2-0.6-0.3c-0.2-0.1-0.5-0.2-0.7-0.1
			c-0.1,0-0.1,0.2,0,0.2c0.1,0.1,0.2,0.2,0.3,0.2c1.4-0.3,2.9-0.8,4.2-1.4C16.3,233.4,15.9,233,15.7,233.1L15.7,233.1z"/>
		<path class="st6" d="M19.3,234.5c-0.3,0.1-0.6,0.2-0.9,0.5c-0.2,0.2-0.5,0.5-0.4,0.8c0,0.2,0.2,0.3,0.4,0.3c0.2,0,0.4-0.1,0.6-0.2
			c0.3-0.2,0.6-0.5,0.9-0.8l-0.5-0.1c0.1,0.3-0.1,0.6,0.1,0.8c0.2,0.3,0.6,0.4,0.9,0.3c0.3,0,0.7-0.2,1-0.3c0.3-0.2,0.6-0.3,0.9-0.5
			c0.1,0,0.1-0.1,0.1-0.2c0,0,0,0-0.1-0.1s-0.3-0.1-0.4,0c-0.2,0.2-0.5,0.3-0.7,0.4c-0.2,0.1-0.5,0.2-0.8,0.3c-0.2,0-0.4,0-0.4-0.2
			c0-0.1,0-0.2,0-0.3s0-0.3-0.1-0.4c-0.1-0.2-0.4-0.2-0.5-0.1c-0.2,0.2-0.4,0.4-0.7,0.6c-0.1,0.1-0.2,0.2-0.3,0.3l0,0h0.1l0,0v-0.1
			c0-0.2,0.2-0.4,0.4-0.5c0.2-0.1,0.4-0.2,0.6-0.3c0.1,0,0.2-0.1,0.2-0.2C19.6,234.5,19.4,234.5,19.3,234.5L19.3,234.5z"/>
		<path class="st6" d="M23.7,232.3c-0.3,1.3-0.8,2.5-1.3,3.7l0.5-0.1c0.1-0.5,0.5-1,1-1.2l0,0c0,0.1,0.1,0.1,0.1,0.2
			c0,0.2,0,0.3,0,0.5c0,0.3,0.2,0.6,0.4,0.7c0.4,0.1,0.8,0,1.1-0.2c0.1,0,0.2-0.1,0.2-0.2c0-0.1-0.2-0.1-0.3,0
			c-0.2,0.1-0.6,0.2-0.8,0c-0.3-0.2-0.1-0.6-0.2-0.9c0-0.2-0.1-0.3-0.2-0.4c-0.2-0.1-0.4,0-0.6,0.1c-0.3,0.2-0.6,0.3-0.8,0.6
			c-0.2,0.3-0.4,0.6-0.5,0.9c0,0.1,0.2,0.1,0.2,0.1c0.1,0,0.2-0.1,0.3-0.2c0.6-1.2,1-2.5,1.3-3.8c0-0.1-0.2-0.1-0.2-0.1
			C23.9,232.1,23.8,232.2,23.7,232.3L23.7,232.3z"/>
	</g>
</g>
</svg>
