<?xml version="1.0" encoding="utf-8"?>
<!-- Generator: Adobe Illustrator 24.0.0, SVG Export Plug-In . SVG Version: 6.00 Build 0)  -->
<svg version="1.1" id="Capa_1" xmlns="http://www.w3.org/2000/svg" xmlns:xlink="http://www.w3.org/1999/xlink" x="0px" y="0px"
	 viewBox="0 0 66.3 86.8" style="enable-background:new 0 0 66.3 86.8;" xml:space="preserve">
<style type="text/css">
	.st0{fill:#d3c59e;}
</style>
<g>
	<path class="st0" d="M60.6,57.1c0-2.1,0.4-4.3-0.3-6.4c-0.2-0.6-0.4-1.4,0.4-1.9c0.8-0.5,2.2-0.4,2.9,0.2c1.2,1,1.9,2.1,2.1,3.8
		c0.3,3,0.4,6,0.6,8.9c0.1,1.6-0.8,3.1-1.7,4.5c-1.6,2.4-3.2,4.7-4.9,7c-0.5,0.8-1.1,1.5-1.8,2.1c-1.4,1.2-2.7,2.3-3.5,4.1
		c-0.5,1.2-2,1.7-3.2,2.1c-0.9,0.3-1.7,0.9-2.5,1.5c-2,1.6-4.5,2.5-6.9,3c-3.1,0.6-6.2,1.1-9.4,0.8c-3.5-0.3-6.7-1.3-9.7-3.2
		c-1.8-1.1-6.4-3.3-7-3.9c-0.6-0.7-6.3-5.6-8.4-8.1C5,69.1,4.8,69.6,2.6,66c-0.7-1.1-1-2.4-1.5-4.6S-0.7,48,0.5,43.1s3.1-7.3,5-10.8
		C8.4,27,13,23.6,18.8,21.7c3.5-1.2,7.2-1.8,10.8-2.5c3.7-0.7,7.2,0.3,10.7,0.9c2.2,0.4,4.3,1.1,6.4,1.8c1.3,0.5,2.6,1.2,3.6,2.3
		c0.9,1,2.2,1.7,3.5,2.2c1.8,0.7,3.2,2.2,3.4,4c0.1,1.8,0.8,4.1-1.2,5.5c-1.9,1.3-3.9,2.4-6.4,1.5c-2.8-1-5.7-1.9-8.1-3.7
		c-1.2-0.9-2.6-0.9-3.9-1.3c-2.2-0.6-4.5-1.3-6.8-1.1c-5.9,0.5-11.2,2.1-14.6,7.8c-1.6,2.6-3.3,5.2-4.7,7.9c-0.6,1.2-0.9,2.4-1,3.8
		c-0.1,2.1-0.3,4.1-0.4,6.2c-0.1,1.9,0.4,3.7,1.8,5c0.6,0.5,1.1,1.1,1.5,1.8c1.7,2.8,4.4,4.7,6.5,7.2c0.2,0.3,0.7,0.4,0.9,0.7
		c2,3.4,5.8,4.3,9,5.7c1.6,0.7,3.6,0.9,5.4,0.6c1.7-0.3,3.5-0.6,5.3-0.4c1.1,0.1,1.7-0.7,2.5-1c3.9-1.4,7.7-3.2,10.9-5.8
		c3.7-3,7-6.5,6.7-11.9C60.6,58.3,60.6,57.7,60.6,57.1z"/>
	<path class="st0" d="M10.3,6.1c0-0.5,0.2-0.8,0.1-1.1c-0.5-1.4-0.2-2.2,1.4-2.3c0.4,0,0.8-0.2,0.9-0.6c0.2-1.9,1.6-1.9,2.9-2
		C17.3-0.1,19,0,20.4,1.1c0.9,0.7,2,0.9,3,0.5c1.1-0.5,2.1-0.3,3.1,0.1c0.5,0.2,1,0.6,1.5,0.4c3.2-1.2,6,0.3,8.8,1.2
		c0.5,0.2,1,0.4,1.6,0.3c1.1-0.1,2.1-0.1,2.9,0.9c0.4,0.5,1.1,0.4,1.7,0.4c2.1,0.1,4.2,0.2,6.1,1.2c0.4,0.2,0.9,0.3,1.1,0.8
		c0.2,0.5,0.1,0.9-0.4,1c-0.6,0.1-1.1-0.2-1.6-0.3c-3.3-0.7-6.5-0.1-9.7,0.8c-0.5,0.1-1.2,0.3-1.3,0.8c-0.6,1.7-2.1,1.4-3.3,1.4
		c-1.4,0-2.7-0.3-4.1-0.5c-1.1-0.2-2.2-0.2-3.2,0.4c-4,2.3-8.2,2.1-12.5,1.5c-0.3,0-0.7-0.1-0.8-0.4C11.9,10.1,9.8,8.6,10.3,6.1z"/>
</g>
</svg>
