<svg id="Capa_1" data-name="Capa 1" xmlns="http://www.w3.org/2000/svg" viewBox="0 0 66.3 86.87">
  <defs>
    <style>
      .cls-1 {
        fill: #eeeade;
      }
    </style>
  </defs>
  <title>homalogoisolight</title>
  <g>
    <path class="cls-1" d="M60.6,57.1c0-2.1.4-4.3-.3-6.4-.2-.6-.4-1.4.4-1.9a2.76,2.76,0,0,1,2.9.2,5.4,5.4,0,0,1,2.1,3.8c.3,3,.4,6,.6,8.9.1,1.6-.8,3.1-1.7,4.5-1.6,2.4-3.2,4.7-4.9,7a9.09,9.09,0,0,1-1.8,2.1,11.61,11.61,0,0,0-3.5,4.1c-.5,1.2-2,1.7-3.2,2.1A9.23,9.23,0,0,0,48.7,83a16.37,16.37,0,0,1-6.9,3,32.94,32.94,0,0,1-9.4.8,21.06,21.06,0,0,1-9.7-3.2c-1.8-1.1-6.4-3.3-7-3.9s-6.3-5.6-8.4-8.1C5,69.1,4.8,69.6,2.6,66a14.45,14.45,0,0,1-1.5-4.6C.6,59.2-.7,48,.5,43.1s3.1-7.3,5-10.8C8.4,27,13,23.6,18.8,21.7a80.47,80.47,0,0,1,10.8-2.5c3.7-.7,7.2.3,10.7.9a46.7,46.7,0,0,1,6.4,1.8,9.24,9.24,0,0,1,3.6,2.3,9.07,9.07,0,0,0,3.5,2.2,5.12,5.12,0,0,1,3.4,4c.1,1.8.8,4.1-1.2,5.5s-3.9,2.4-6.4,1.5c-2.8-1-5.7-1.9-8.1-3.7-1.2-.9-2.6-.9-3.9-1.3a19.78,19.78,0,0,0-6.8-1.1c-5.9.5-11.2,2.1-14.6,7.8-1.6,2.6-3.3,5.2-4.7,7.9a9.73,9.73,0,0,0-1,3.8c-.1,2.1-.3,4.1-.4,6.2a6.13,6.13,0,0,0,1.8,5,6.55,6.55,0,0,1,1.5,1.8c1.7,2.8,4.4,4.7,6.5,7.2.2.3.7.4.9.7,2,3.4,5.8,4.3,9,5.7a9.87,9.87,0,0,0,5.4.6,18.7,18.7,0,0,1,5.3-.4c1.1.1,1.7-.7,2.5-1a36.87,36.87,0,0,0,10.9-5.8c3.7-3,7-6.5,6.7-11.9Z" transform="translate(-0.01 -0.02)"/>
    <path class="cls-1" d="M10.3,6.1c0-.5.2-.8.1-1.1-.5-1.4-.2-2.2,1.4-2.3a.87.87,0,0,0,.9-.6C12.9.2,14.3.2,15.6.1a6.26,6.26,0,0,1,4.8,1,3,3,0,0,0,3,.5,3.72,3.72,0,0,1,3.1.1c.5.2,1,.6,1.5.4,3.2-1.2,6,.3,8.8,1.2a2.88,2.88,0,0,0,1.6.3,2.91,2.91,0,0,1,2.9.9c.4.5,1.1.4,1.7.4a14.15,14.15,0,0,1,6.1,1.2c.4.2.9.3,1.1.8s.1.9-.4,1a4.15,4.15,0,0,1-1.6-.3c-3.3-.7-6.5-.1-9.7.8-.5.1-1.2.3-1.3.8-.6,1.7-2.1,1.4-3.3,1.4a28.68,28.68,0,0,1-4.1-.5,4.45,4.45,0,0,0-3.2.4c-4,2.3-8.2,2.1-12.5,1.5-.3,0-.7-.1-.8-.4C11.9,10.1,9.8,8.6,10.3,6.1Z" transform="translate(-0.01 -0.02)"/>
  </g>
</svg>
