<svg id="Capa_1" data-name="Capa 1" xmlns="http://www.w3.org/2000/svg" viewBox="0 0 576.46 191.64">
  <defs>
    <style>
      .cls-1 {
        fill: #fff;
      }
    </style>
  </defs>
  <title>homakah</title>
  <g>
    <g>
      <path class="cls-1" d="M88.29,56.9V166.8H71.77V114H16.52V166.8H0V56.9H16.52v51.34H71.77V56.9Z" transform="translate(0 0)"/>
      <path class="cls-1" d="M438.63,166.8H422.56L409.5,91.43,368.66,166.8,331.27,96.38l-8.11,70.42h-6.75L329,56.9l44.89,85.28,46.4-85.28,18.92,109.75Z" transform="translate(0 0)"/>
      <path class="cls-1" d="M476.76,166.8,526,56.9l50.45,109.9H558.29l-9.46-20.72h-55.4l-9.31,20.72ZM496,140.38h50.15L520.76,85.12Z" transform="translate(0 0)"/>
    </g>
    <g>
      <path class="cls-1" d="M264.87,126c-.06-4.71.94-9.48-.66-14.17-.43-1.26-.82-3.07.86-4.15a6,6,0,0,1,6.39.34A10.94,10.94,0,0,1,276,116.4c.57,6.57.82,13.16,1.33,19.74.28,3.6-1.82,6.86-3.8,9.82-3.48,5.21-7.13,10.32-10.79,15.41a23.25,23.25,0,0,1-4,4.6c-3.13,2.56-6,5.06-7.71,9-1.11,2.63-4.32,3.71-7.05,4.71a20.56,20.56,0,0,0-5.53,3.37,36.32,36.32,0,0,1-15.3,6.55c-6.77,1.31-13.7,2.47-20.7,1.81a49,49,0,0,1-21.5-7c-3.88-2.41-14.09-7.22-15.5-8.67s-13.91-12.25-18.6-17.8-5.1-4.28-10.07-12.42c-1.5-2.45-2.31-5.28-3.31-10.21s-4-29.49-1.26-40.27S139,79,143.18,71.36c6.51-11.75,16.59-19.28,29.38-23.51,7.79-2.58,15.78-4,23.77-5.57s15.87.74,23.72,2a90.29,90.29,0,0,1,14.2,4.05,18.32,18.32,0,0,1,8,5.12,20.33,20.33,0,0,0,7.66,4.85c4,1.62,7.17,4.94,7.45,8.91s1.73,9-2.68,12.08c-4.18,2.86-8.69,5.28-14.08,3.25-6.16-2.33-12.56-4.12-18-8.14-2.54-1.89-5.77-1.94-8.7-2.77-4.9-1.39-9.88-2.94-15-2.46-13.06,1.21-24.79,4.66-32.15,17.22-3.41,5.84-7.19,11.48-10.3,17.52a20.07,20.07,0,0,0-2.24,8.29c-.24,4.56-.63,9.11-.85,13.66-.2,4.25.82,8.06,4.07,11.1a19,19,0,0,1,3.28,3.88c3.82,6.16,9.79,10.35,14.32,15.86.52.63,1.54.92,1.95,1.59,4.5,7.5,12.72,9.4,19.82,12.68a20.7,20.7,0,0,0,12,1.28,44.19,44.19,0,0,1,11.64-.88c2.32.22,3.65-1.6,5.53-2.3,8.59-3.19,17-7.05,24.11-12.77,8.18-6.61,15.51-14.34,14.8-26.26C264.8,128.73,264.87,127.37,264.87,126Z" transform="translate(0 0)"/>
      <path class="cls-1" d="M153.9,13.51a7.22,7.22,0,0,0,.18-2.4C153,8,153.63,6.15,157.25,6c.87,0,1.88-.48,1.94-1.36.33-4.16,3.49-4.17,6.39-4.48,3.77-.4,7.41-.21,10.56,2.36a6.36,6.36,0,0,0,6.71,1.07,8.6,8.6,0,0,1,6.89.3c1.09.43,2.22,1.42,3.35,1,7-2.71,13.16.56,19.45,2.74a7.77,7.77,0,0,0,3.44.7c2.44-.26,4.66-.15,6.39,2.11.85,1.1,2.48.83,3.85.91,4.57.29,9.16.52,13.38,2.65.9.45,2,.71,2.46,1.69s.31,2-1,2.3-2.32-.34-3.47-.58c-7.34-1.51-14.45-.3-21.49,1.74-1.16.33-2.58.61-3,1.76-1.34,3.82-4.63,3-7.3,3a49.72,49.72,0,0,1-9-1.21,9.77,9.77,0,0,0-7,.78c-8.77,5.13-18.19,4.55-27.69,3.35a2.91,2.91,0,0,1-1.79-.77C157.28,22.21,152.8,19,153.9,13.51Z" transform="translate(0 0)"/>
    </g>
  </g>
</svg>
