<?xml version="1.0" encoding="utf-8"?>
<!-- Generator: Adobe Illustrator 24.0.0, SVG Export Plug-In . SVG Version: 6.00 Build 0)  -->
<svg version="1.1" id="Capa_1" xmlns="http://www.w3.org/2000/svg" xmlns:xlink="http://www.w3.org/1999/xlink" x="0px" y="0px"
	 viewBox="0 0 265 116" style="enable-background:new 0 0 265 116;" xml:space="preserve">
<style type="text/css">
	.st0{fill:#767B60;}
</style>
<g>
	<g>
		<path class="st0" d="M40.9,26.2v50.4h-7.6V52.4H8v24.2H0.4V26.2H8v23.5h25.3V26.2H40.9z"/>
		<path class="st0" d="M201.5,76.6h-7.4l-6-34.6l-18.7,34.6l-17.1-32.3l-3.7,32.3h-3.1l5.8-50.4l20.6,39.1l21.3-39.1l8.7,50.3
			L201.5,76.6z"/>
		<path class="st0" d="M219,76.6l22.6-50.4l23.1,50.4h-8.3l-4.3-9.5h-25.4l-4.3,9.5H219z M227.8,64.5h23l-11.6-25.3L227.8,64.5z"/>
	</g>
	<g>
		<path class="st0" d="M121.9,57.9c0-2.2,0.4-4.3-0.3-6.5c-0.2-0.6-0.4-1.4,0.4-1.9c0.9-0.5,2.1-0.5,2.9,0.2c1.2,0.9,2,2.3,2.1,3.8
			c0.3,3,0.4,6,0.6,9c0.1,1.7-0.8,3.1-1.7,4.5c-1.6,2.4-3.3,4.7-4.9,7.1c-0.5,0.8-1.1,1.5-1.8,2.1c-1.4,1.2-2.8,2.3-3.5,4.1
			c-0.5,1.2-2,1.7-3.2,2.2c-0.9,0.4-1.8,0.9-2.5,1.5c-2.1,1.5-4.5,2.6-7,3c-3.1,0.6-6.3,1.1-9.5,0.8c-3.5-0.3-6.9-1.4-9.9-3.2
			c-1.8-1.1-6.5-3.3-7.1-4c-0.6-0.7-6.4-5.6-8.5-8.2c-2.2-2.5-2.3-2-4.6-5.7c-0.7-1.1-1.1-2.4-1.5-4.7c-0.5-2.3-1.8-13.5-0.6-18.5
			s3.1-7.4,5-10.9c3-5.4,7.6-8.8,13.5-10.8c3.6-1.2,7.2-1.8,10.9-2.6c3.7-0.7,7.3,0.3,10.9,0.9c2.2,0.4,4.4,1.1,6.5,1.9
			c1.4,0.4,2.7,1.3,3.7,2.3c1,1,2.2,1.8,3.5,2.2c1.8,0.7,3.3,2.3,3.4,4.1c0.1,1.8,0.8,4.1-1.2,5.5c-1.9,1.3-4,2.4-6.5,1.5
			c-2.8-1.1-5.8-1.9-8.3-3.7c-1.2-0.9-2.6-0.9-4-1.3c-2.2-0.6-4.5-1.3-6.9-1.1c-6,0.6-11.4,2.1-14.7,7.9c-1.6,2.7-3.3,5.3-4.7,8
			c-0.6,1.2-1,2.5-1,3.8c-0.1,2.1-0.3,4.2-0.4,6.3c-0.1,1.9,0.4,3.7,1.9,5.1c0.6,0.5,1.1,1.1,1.5,1.8c1.8,2.8,4.5,4.7,6.6,7.3
			c0.2,0.3,0.7,0.4,0.9,0.7c2.1,3.4,5.8,4.3,9.1,5.8c1.7,0.7,3.6,0.9,5.5,0.6c1.8-0.4,3.5-0.5,5.3-0.4c1.1,0.1,1.7-0.7,2.5-1.1
			c3.9-1.5,7.8-3.2,11.1-5.9c3.8-3,7.1-6.6,6.8-12C121.8,59.1,121.9,58.5,121.9,57.9z"/>
		<path class="st0" d="M71,6.3c0.1-0.4,0.1-0.7,0.1-1.1c-0.5-1.4-0.2-2.3,1.5-2.3c0.4,0,0.9-0.2,0.9-0.6c0.2-1.9,1.6-1.9,2.9-2.1
			c1.7-0.2,3.4-0.1,4.8,1.1c0.8,0.7,2,0.9,3.1,0.5c1-0.4,2.2-0.3,3.2,0.1c0.5,0.2,1,0.7,1.5,0.5c3.2-1.2,6,0.3,8.9,1.3
			c0.5,0.2,1,0.3,1.6,0.3c1.1-0.1,2.1-0.1,2.9,1c0.4,0.5,1.1,0.4,1.8,0.4c2.1,0.1,4.2,0.2,6.1,1.2c0.4,0.2,0.9,0.3,1.1,0.8
			s0.1,0.9-0.5,1.1c-0.6,0.1-1.1-0.2-1.6-0.3c-3.4-0.7-6.6-0.1-9.9,0.8C99,9,98.3,9.2,98.1,9.7c-0.6,1.8-2.1,1.4-3.3,1.4
			c-1.4-0.1-2.8-0.2-4.1-0.6c-1.1-0.3-2.2-0.2-3.2,0.4c-4,2.4-8.3,2.1-12.7,1.5c-0.3,0-0.6-0.1-0.8-0.4C72.5,10.3,70.5,8.8,71,6.3z"
			/>
	</g>
</g>
<g>
	<g>
		<g>
			<path class="st0" d="M248.5,107.6c-1.2,0.1-2.3,0-3.4-0.3c0.5,0.1,0.5,0.3-0.1,0.3l-0.5-0.3c1-0.2,2-0.4,3,0.1l0.6-0.2
				C248.4,107.2,248.4,107.4,248.5,107.6c0.2,0,0.5,0,0.7,0c-0.6-0.3-1.3-0.5-2-0.7c-2.9,0.1-5.6,0.1-8.2,0.1
				c-0.2,0.1-0.3,0.3-0.6,0.2c-0.2-0.1-0.4-0.2-0.6-0.2h-1.2l-0.4,0.1l0,0c-0.2,0.1-0.1,0.2,0,0.3c0.1,0.1,0.3,0.1,0.4,0.2
				c-0.1-0.1-0.3-0.1-0.4-0.2c-0.2-0.1-0.4-0.1-0.6-0.2c-0.2,0-0.3,0-0.5,0l0.4-0.1h0.1l0.5-0.1l0,0h0.1l0.2-0.1l-2.6,0
				c-0.2,0-0.4,0-0.5,0.1c-0.6,0.1-1.3,0.2-1.7-0.1h-0.5l0.1,0.1l-0.2-0.1l-2,0l-4-0.1c-8.6-0.3-16.6-0.1-25.5-0.2
				c-4.9-0.1-9.5-0.3-14.1-0.6c-9.1-0.6-17.4,0.4-26.7-1c-3.5-0.5-10.1-0.1-13.5,0c-4.5,1.1-2.1,3.7-1.9,3.9c2.8,2.2,4.9,1,10.4,2.1
				c-3.1-0.7,3.3-1.4,6.9,0.1c5.4,2.3,12.9,0.3,19.5,0.8c1.6,0.1,3.4,0,5.3,0c10.2,0.6,19.6-0.5,30.3-0.5c2.8-0.1,5.3-0.7,7.7-1
				c1.7-0.1,3.6,0.1,5,0.1c2,0,4-0.2,6-0.6c-2.1,0.1-3.5,0.3-5.8,0.5c-1.5,0.1,1-0.8,2.1-1c0.4-0.1,1.1,0.5,1.6,0.4
				c0.9-0.1,1.9-0.3,2.8-0.5c0.4-0.1,0.4,0.5,0.6,0.4c1.4-0.2,2.4-1,3.3-0.8c0.7,0.1,1.3,0.2,1.9,0.3c0.4,0,0.8,0,1.1,0l0.7-0.2
				C244.5,108.3,246.6,107.9,248.5,107.6L248.5,107.6z M226.5,107.1c-0.7,0.1-1.4,0-2.1-0.3C225.1,106.6,225.8,106.7,226.5,107.1z"
				/>
			<path class="st0" d="M167.5,112c-2.5,0-4.8-0.2-6.9-1.1c-2.8-1.1-7.2-0.9-7.6-0.5c0,0,0,0,0,0c0,0,0.1,0.1,0.8,0.3l0,0.1
				c-1.7-0.3-3.4-0.5-5.1-0.6c-2.1-0.1-3.6-0.2-5.3-1.5c-0.1-0.1-1-1-0.8-2c0.2-0.9,1.1-1.5,2.7-1.9l1.9-0.1c3.7-0.2,8.6-0.4,11.6,0
				c5.6,0.9,11,0.8,16.2,0.8c3.4,0,6.9,0,10.5,0.2c4.6,0.3,9.2,0.5,14.1,0.6c3.9,0.1,7.6,0.1,11.2,0.1c4.9,0,9.5,0,14.4,0.1l4,0.1
				l1.9,0l0,0h0.2h0.5l0,0l0,0c0.4,0.3,1,0.2,1.6,0.1c0.1,0,0.3,0,0.5-0.1h0.1l2.6,0h0.3h1c0.2,0,0.4,0.1,0.7,0.2
				c0.2,0,0.3,0,0.5-0.1l0.1-0.1l0,0l0,0c2.9,0,5.6,0,8.2-0.1l0,0c0.7,0.2,1.4,0.4,2,0.7l0.1,0.1H249c-0.2,0-0.4,0-0.6,0.1l0,0.1
				h-0.1c-2.2,0.3-4.2,0.7-5.8,1h-0.1l-0.7,0.2c-0.4,0-0.8,0-1.2,0c-0.7-0.1-1.2-0.2-1.9-0.3c-0.5,0-1.1,0.1-1.6,0.3
				c-0.6,0.2-1.1,0.4-1.7,0.5c-0.1,0-0.2-0.1-0.2-0.2c-0.1-0.2-0.2-0.3-0.3-0.2c-0.3,0.1-0.6,0.1-0.9,0.2c-0.6,0.2-1.3,0.3-1.9,0.3
				c-0.3,0-0.6,0-0.8-0.2c-0.2-0.1-0.5-0.2-0.7-0.2c-0.9,0.2-2.4,0.7-2.5,0.9c0.1,0,0.3,0,0.4,0c1.3-0.1,2.4-0.2,3.5-0.3
				c0.7-0.1,1.5-0.1,2.4-0.2v0.1c-2,0.3-4,0.5-6,0.6c-0.6,0-1.2,0-1.9-0.1c-1-0.1-2.1-0.1-3.1,0c-0.7,0.1-1.3,0.2-2,0.3
				c-1.9,0.4-3.8,0.6-5.7,0.7c-4.3,0-8.4,0.2-12.4,0.4c-6.1,0.3-11.8,0.5-17.9,0.1c-0.7,0-1.4,0-2.1,0c-1.1,0-2.2,0-3.2,0
				c-2.5-0.1-5-0.1-7.6,0.1C170.8,111.9,169.1,112,167.5,112z M155.4,110c1.8,0,3.5,0.3,5.2,0.9c3.4,1.4,7.5,1.2,11.9,0.9
				c2.5-0.2,5-0.3,7.6-0.1c1,0.1,2.1,0.1,3.2,0c0.7,0,1.4,0,2.1,0c6.1,0.4,11.9,0.1,17.9-0.1c3.9-0.2,8-0.4,12.2-0.4h0.2
				c1.9-0.1,3.8-0.3,5.6-0.7c0.7-0.1,1.4-0.2,2-0.3c1-0.1,2.1,0,3.1,0c0.7,0,1.3,0.1,1.9,0.1c1.5,0,2.9-0.1,4.3-0.3l-0.7,0.1
				c-1,0.1-2.1,0.2-3.5,0.3c-0.4,0-0.5,0-0.5-0.1c0-0.3,2-0.9,2.6-1c0.3,0,0.6,0,0.8,0.2c0.2,0.1,0.5,0.2,0.7,0.2l0,0
				c0.6,0,1.3-0.1,1.9-0.3c0.3-0.1,0.6-0.1,0.9-0.2c0.3-0.1,0.4,0.1,0.5,0.3c0.1,0.1,0.1,0.1,0.1,0.1c0.6-0.1,1.2-0.2,1.7-0.5
				c0.5-0.3,1.1-0.4,1.6-0.3c0.6,0.1,1.2,0.2,1.9,0.3c0.4,0,0.7,0,1.1,0l0.7-0.1h0.1c1.5-0.3,3.3-0.6,5.3-1c-0.8,0-1.7,0-2.5-0.2v0
				c0,0,0,0.2-0.5,0.2h0l0,0l-0.5-0.3l-0.1-0.1l0.1,0c1-0.2,2-0.4,3,0l0.5-0.2c-0.4-0.1-0.7-0.2-0.8-0.2c-2.6,0.1-5.3,0.1-8.2,0.1
				l-0.1,0.1c-0.2,0.1-0.4,0.2-0.6,0.1c-0.2-0.1-0.4-0.2-0.6-0.2h-1.1l-0.4,0.1l0,0c-0.1,0-0.1,0.1-0.1,0.1s0,0,0.1,0.1
				c0.1,0.1,0.3,0.1,0.4,0.2l-0.1,0.1l-0.1-0.1c-0.1,0-0.2-0.1-0.3-0.1c-0.2-0.1-0.4-0.1-0.6-0.2l0,0c-0.1,0-0.3,0-0.5,0v-0.1
				l0.4-0.1h0.1l0.3-0.1l-2.1,0h-0.1c-0.2,0-0.3,0-0.5,0.1c-0.6,0.1-1.3,0.2-1.7-0.1h-0.2l0.2,0.1l-0.3-0.1l-0.2-0.1l-2-0.1
				l-3.6-0.1c0.4,0.1,0.7,0.2,1.1,0.4l0.2,0.1l-0.2,0c-0.7,0.1-1.5,0-2.1-0.3l-0.1-0.1l0.1,0c0.2-0.1,0.3-0.1,0.5-0.1
				c-4.8-0.1-9.4-0.1-14.2-0.1c-3.6,0-7.3,0-11.2-0.1c-4.9-0.1-9.5-0.3-14.1-0.6c-3.6-0.2-7.1-0.2-10.5-0.2c-5.2,0-10.6,0-16.2-0.8
				c-3-0.4-7.9-0.2-11.6,0l-1.9,0.1c-1.6,0.4-2.5,1-2.7,1.9c-0.2,0.9,0.7,1.8,0.8,1.9c1.7,1.3,3.1,1.4,5.3,1.5
				c1.5,0.1,2.9,0.2,4.3,0.5c0,0-0.1-0.1-0.1-0.1c0-0.1,0-0.1,0.1-0.2C153.1,110.1,154.1,110,155.4,110z M245.2,107.2
				c1,0.3,2.1,0.4,3.2,0.3v0c0-0.2-0.1-0.3-0.3-0.3l-0.6,0.2l0,0l0,0C246.8,107.1,246,107.1,245.2,107.2L245.2,107.2z M244.6,107.3
				l0.3,0.2c0.3,0,0.4-0.1,0.4-0.1l0,0c0,0,0,0-0.2-0.1l-0.1,0v-0.1L244.6,107.3z M248.4,107.3c0,0.1,0.1,0.1,0.1,0.2c0,0,0,0,0,0.1
				l0.5,0C248.8,107.4,248.6,107.3,248.4,107.3L248.4,107.3z M224.5,106.9c0.6,0.2,1.1,0.3,1.7,0.2
				C225.7,106.8,225.1,106.7,224.5,106.9L224.5,106.9z M235.9,107l0.1,0c0,0,0,0,0,0l0,0H235.9z"/>
		</g>
		<g>
			<path class="st0" d="M153.7,110.8l0.4,0.1L153.7,110.8z"/>
			<path class="st0" d="M154.1,110.9l-0.4-0.1l0-0.1l0.1,0l0.2,0L154.1,110.9z"/>
		</g>
	</g>
	<g>
		<g>
			<path class="st0" d="M49.1,101.9l-0.2-0.1L49.1,101.9z"/>
			<path class="st0" d="M49,101.9L49,101.9l-0.2-0.1l0-0.1l0.2,0.1L49,101.9z"/>
		</g>
		<g>
			<path class="st0" d="M53.9,103.7c-1.5-2.1-2.3-0.9-4.9-1.8c1.5,0.6-1.4,1.5-3.1,0.1c-2.6-2.1-5.8,0-8.8-0.3c-0.8,0-1.6,0-2.4,0.1
				c-4.6-0.4-8.8,1-13.6,1.2c-1.3,0.1-2.3,0.8-3.4,1.2c-0.8,0.2-1.6-0.1-2.3,0c-0.9,0.1-1.8,0.3-2.6,0.7c0.9-0.2,1.6-0.4,2.6-0.6
				c0.7-0.1-0.4,0.8-0.8,1c-0.2,0.2-0.6-0.5-0.7-0.3c-0.4,0.1-0.8,0.3-1.2,0.6c-0.2,0.2-0.2-0.5-0.3-0.4c-0.6,0.2-1,1-1.4,0.9
				c-0.3-0.1-0.6-0.1-0.9-0.2c-0.2,0-0.3,0-0.5,0l-0.3,0.2c-0.5,0.2-0.9,0.5-1.4,0.7c-0.2,0.1-0.4,0.2-0.6,0.3l-0.5,0.2v0.1
				c0.5-0.1,1.1-0.1,1.6,0.2c-0.2-0.1-0.2-0.3,0-0.3l0.2,0.3c-0.4,0.2-0.9,0.4-1.3,0L7,107.7c-0.2-0.1-0.2-0.3-0.2-0.4
				c-0.1,0-0.2,0-0.3,0.1c0.3,0.3,0.6,0.5,0.9,0.6c1.3-0.1,2.5-0.2,3.7-0.3c0.1-0.1,0.1-0.3,0.3-0.2c0.1,0.1,0.2,0.2,0.3,0.2h0.5
				l0.2-0.1l0,0c0.1-0.1,0.1-0.2,0-0.3c-0.1-0.1-0.1-0.1-0.2-0.2c0,0.1,0.1,0.1,0.2,0.2c0.1,0.1,0.2,0.1,0.3,0.2
				c0.1,0,0.1,0,0.2-0.1l-0.2,0.1h0l-0.2,0.1l0,0l-0.1,0l-0.1,0.1h1.2c0.1,0,0.2,0,0.2-0.1c0.3-0.1,0.5-0.2,0.8,0.1h0.2
				c0,0,0,0,0-0.1l0.1,0.1h2.7c3.9,0.1,7.5-0.3,11.5-0.4c2.2,0,4.3,0.1,6.4,0.2c4.2,0.4,7.8-0.8,12.1,0.4c1.6,0.4,4.5-0.1,6.1-0.3
				C55.3,106.4,54,103.8,53.9,103.7z M16.7,107.2c0.3-0.1,0.7,0,1,0.2C17.3,107.7,17,107.5,16.7,107.2z"/>
			<path class="st0" d="M48.8,108.1c-0.5,0-1,0-1.5-0.1c-2.6-0.7-5-0.6-7.3-0.5c-1.6,0.1-3.2,0.1-4.7,0c-2.1-0.2-4.2-0.3-6.4-0.2
				c-1.7,0-3.4,0.1-5,0.2c-2.2,0.1-4.2,0.2-6.5,0.2h-3v0c-0.2-0.2-0.4-0.2-0.7-0.1c-0.1,0-0.1,0-0.2,0.1h-0.1h-1.2h-0.2h-0.5h0
				c-0.1,0-0.2-0.1-0.3-0.2c0,0-0.1,0-0.1,0.1l0,0.1v0h0c-1.3,0.1-2.5,0.1-3.7,0.3l0,0l0,0c-0.4-0.1-0.7-0.3-1-0.6l-0.1-0.1h0.1
				l0.2-0.1v0h0.1c0.2-0.1,0.4-0.1,0.5-0.2c0.2-0.1,0.4-0.2,0.6-0.3c0.5-0.2,1-0.5,1.4-0.7h0l0.3-0.2l0,0c0.2,0,0.4,0,0.5,0
				c0.3,0.1,0.5,0.1,0.9,0.2c0.2,0.1,0.4-0.1,0.6-0.4c0.2-0.2,0.5-0.4,0.7-0.5c0,0,0,0,0.1,0c0.1,0,0.1,0.1,0.1,0.2s0.1,0.2,0.1,0.2
				l0,0l0,0c0.1-0.1,0.3-0.1,0.4-0.2c0.3-0.2,0.5-0.3,0.9-0.4c0.1-0.1,0.3,0.1,0.4,0.2c0.1,0.1,0.2,0.2,0.3,0.2l0,0
				c0.4-0.2,1.1-0.8,1-0.9c0,0,0,0-0.2,0c-0.6,0.1-1.1,0.2-1.5,0.3c-0.3,0.1-0.7,0.2-1,0.3l0-0.1c0.8-0.4,1.7-0.6,2.6-0.7
				c0.3,0,0.6,0,0.9,0c0.5,0.1,0.9,0,1.4,0c0.3-0.1,0.6-0.2,0.9-0.4c0.8-0.4,1.6-0.7,2.5-0.9c1.8-0.1,3.7-0.3,5.5-0.6
				c2.7-0.4,5.3-0.8,8.1-0.6c0.3,0,0.6,0,0.9-0.1c0.5-0.1,1-0.1,1.5,0c1.1,0.1,2.3,0,3.4-0.3c1.9-0.4,3.8-0.7,5.5,0.6
				c0.9,0.7,2.1,0.9,3.2,0.5c0.1-0.1,0.2-0.1,0.2-0.2c0-0.1-0.1-0.2-0.4-0.3l0-0.1c0.7,0.3,1.5,0.4,2.3,0.5c1,0.1,1.7,0.1,2.6,1.4
				c0.4,0.7,0.6,1.6,0.5,2.5c-0.1,0.6-0.5,1.2-1,1.5h0l-0.8,0.1C51.3,108,50.1,108.1,48.8,108.1z M42.9,107.3c1.5,0,3,0.2,4.5,0.6
				c1.4,0.3,3.6,0,5.2-0.2l0.8-0.1c0.5-0.3,0.9-0.8,1-1.4c0.1-0.8-0.1-1.7-0.5-2.4l0,0c-0.9-1.3-1.5-1.3-2.5-1.4
				c-0.7,0-1.3-0.1-1.9-0.3c0,0,0.1,0.1,0.1,0.2c0,0.1,0,0.2-0.3,0.3c-1.1,0.4-2.4,0.2-3.3-0.5c-1.6-1.3-3.5-1-5.4-0.6
				c-1.1,0.3-2.3,0.4-3.4,0.3c-0.5,0-1,0-1.4,0c-0.3,0-0.6,0.1-1,0.1c-2.8-0.2-5.3,0.2-8,0.6c-1.8,0.3-3.7,0.5-5.6,0.6
				c-0.9,0.1-1.7,0.4-2.5,0.8c-0.3,0.1-0.6,0.3-0.9,0.4c-0.5,0.1-1,0.1-1.4,0c-0.3,0-0.6,0-0.8,0c-0.7,0.1-1.3,0.2-1.9,0.5l0.3-0.1
				c0.5-0.1,0.9-0.2,1.5-0.3c0.1,0,0.2,0,0.3,0.1c0.1,0.3-0.8,0.9-1.1,1.1c-0.1,0.1-0.3,0-0.5-0.2c-0.2-0.1-0.2-0.2-0.3-0.2l0,0l0,0
				c-0.3,0.1-0.6,0.2-0.8,0.3c-0.1,0.1-0.3,0.2-0.4,0.2c0,0-0.1,0-0.1,0c-0.1,0-0.1-0.2-0.2-0.3c0,0,0-0.1,0-0.1
				c-0.3,0.1-0.5,0.3-0.7,0.5c-0.3,0.2-0.5,0.5-0.7,0.4c-0.3-0.1-0.6-0.1-0.9-0.2c-0.2,0-0.3,0-0.5,0l-0.3,0.2h0
				c-0.4,0.2-0.9,0.5-1.4,0.7c-0.2,0.1-0.4,0.2-0.6,0.3l-0.3,0.1c0.4-0.1,0.7,0,1.1,0.2v0c0-0.1,0.1-0.2,0.2-0.2h0l0,0l0.2,0.3
				l0,0.1l-0.1,0c-0.5,0.2-0.9,0.4-1.4,0c-0.1,0-0.1,0.1-0.2,0.2c0.2,0.1,0.3,0.2,0.4,0.2c1.1-0.1,2.3-0.2,3.6-0.3l0,0
				c0.1-0.1,0.1-0.2,0.3-0.2l0,0c0.1,0.1,0.2,0.1,0.3,0.2h0.5c0.1,0,0.1,0,0.2-0.1c0.1,0,0.1-0.1,0-0.2c-0.1-0.1-0.1-0.1-0.2-0.2
				l0,0l0.1-0.1c0,0,0,0.1,0.1,0.1l0.1,0.1c0.1,0.1,0.2,0.1,0.2,0.1c0.1,0,0.1,0,0.2-0.1l0,0.1l-0.2,0.1h-0.1l-0.1,0.1h0.9h0
				c0.1,0,0.1,0,0.2-0.1c0.3-0.1,0.6-0.2,0.8,0.1h0.1l-0.1-0.2l0.2,0.1l0.1,0h2.5c-0.2-0.1-0.4-0.2-0.5-0.4l-0.1-0.1l0.1,0
				c0.4-0.1,0.8-0.1,1,0.2l0.1,0l-0.1,0c-0.1,0.1-0.2,0.1-0.2,0.1c2.2,0,4.2-0.1,6.4-0.2c1.6-0.1,3.3-0.2,5-0.2
				c2.2,0,4.3,0.1,6.4,0.2c1.6,0.1,3.1,0.1,4.7,0C40.9,107.4,41.9,107.3,42.9,107.3z M7.3,107.4L7.3,107.4c0.3,0.3,0.7,0.3,1,0.1
				l0,0c-0.4-0.2-0.9-0.3-1.4-0.2c0,0,0,0,0,0c0,0.1,0.1,0.2,0.1,0.3L7.3,107.4L7.3,107.4z M6.6,107.4c0.1,0.1,0.1,0.1,0.2,0.2
				c0,0,0-0.1,0-0.2v0L6.6,107.4z M12.5,107.6L12.5,107.6z M16.8,107.3c0.2,0.2,0.5,0.4,0.8,0.2C17.4,107.3,17.1,107.2,16.8,107.3
				L16.8,107.3z M8.3,107.4L8.3,107.4L8.3,107.4l0.2,0l-0.2-0.2C8.3,107.3,8.2,107.3,8.3,107.4C8.2,107.4,8.3,107.4,8.3,107.4z"/>
		</g>
	</g>
	<g>
		<path class="st0" d="M75.5,91.9c-3.3,6-6.5,12.1-10.7,17.6c-1.2,1.6-2.4,3.1-3.8,4.6l2.4-0.5c0-0.1,0-0.1,0-0.2
			c0.4-0.4,0.1-0.8-0.4-0.8c-0.7,0-1.4,0.4-1.8,0.9c-0.3,0.3-0.4,0.6-0.4,1c0.1,1.1,2.1-0.1,2.4-0.5c4.7-5.2,8.4-11.2,11.8-17.3
			c1-1.8,1.9-3.5,2.9-5.3c0.3-0.6-0.5-0.6-0.8-0.6C76.5,90.9,75.9,91.3,75.5,91.9z"/>
		<path class="st0" d="M82.9,97.3c-7.2,3-14.7,5.4-22.3,7.3l1.6,2.1c0.9-0.3,1.8,0.3,2.6,0.7c1,0.5,2,1,3,1.4
			c2.1,0.9,4.3,1.7,6.5,2.3c4.3,1.3,8.7,1.9,13.2,2c2.1,0,4.4-0.4,6-1.9c0.5-0.5,0.2-1.1-0.3-1.5c-0.4-0.3-1.4-0.9-1.8-0.4
			c-1.3,1.3-3,1.6-4.7,1.6c-2.1,0-4.2-0.2-6.3-0.5c-4.4-0.7-8.6-1.9-12.6-3.7c-1.1-0.5-2.2-1.1-3.4-1.6c-1.1-0.5-2.5-1-3.8-0.5
			c-0.6,0.2-0.6,0.9-0.2,1.3c0.4,0.6,1.1,0.9,1.8,0.8c7.6-1.8,15.1-4.3,22.3-7.3C86,98.8,84,96.9,82.9,97.3L82.9,97.3z"/>
		<path class="st0" d="M102.2,105c-1.8,0.4-3.4,1.2-4.7,2.4c-1.1,1-2.5,2.6-2.3,4.2c0.1,1,1,1.6,2,1.6c1.1,0,2.1-0.4,2.9-1.1
			c1.6-1.3,3.2-2.7,4.7-4.1l-2.4-0.3c0.5,1.4-0.3,3,0.6,4.4c1,1.5,2.9,2,4.5,1.8c1.8-0.2,3.5-1,5.2-1.8c1.6-0.8,3.2-1.7,4.7-2.7
			c0.4-0.2,0.5-0.7,0.3-1c-0.1-0.1-0.2-0.2-0.3-0.3c-0.6-0.3-1.4-0.3-2,0.1c-1.2,0.8-2.4,1.5-3.7,2.1c-1.3,0.7-2.6,1.2-4,1.6
			c-0.9,0.2-1.9,0-2.2-1c-0.1-0.6-0.2-1.2-0.1-1.8c0-0.7-0.1-1.4-0.3-2c-0.3-0.8-1.9-0.8-2.4-0.3c-1.1,1-2.3,2.1-3.5,3.1
			c-0.6,0.4-1.1,0.9-1.7,1.4c-0.1,0.1-0.2,0.1-0.2,0.1l0.6,0.1c0.1,0.1,0.1,0.2,0.1,0.1c0-0.1-0.1-0.4,0-0.5c0.2-1,1.2-2,1.9-2.6
			c0.9-0.7,2-1.3,3.1-1.5c0.5-0.1,1.2-0.6,0.9-1.2C103.6,104.9,102.7,104.8,102.2,105L102.2,105z"/>
		<path class="st0" d="M125.3,93.3c-1.7,6.7-4,13.2-6.9,19.5l2.7-0.4c0.7-2.7,2.7-5.1,5.1-6.3c0.1-0.1,0.1-0.1,0.2,0
			c0.2,0.3,0.3,0.6,0.3,1c0.1,0.8-0.1,1.7,0,2.5c0.1,1.6,0.8,3,2.3,3.5c2,0.7,4.1,0,6-0.8c0.4-0.2,1.3-0.6,1.1-1.2
			c-0.2-0.6-1.2-0.4-1.6-0.2c-1.3,0.6-2.9,1.3-4.1,0.2c-1.4-1.2-0.7-3.2-0.8-4.8c-0.1-0.9-0.4-1.7-1.3-2c-1-0.3-2.1,0.1-3,0.6
			c-1.5,0.8-2.9,1.8-4.1,3.1c-1.2,1.4-2.1,3.1-2.6,4.9c-0.2,0.6,0.8,0.6,1.1,0.6c0.6-0.1,1.2-0.4,1.6-0.9c3-6.4,5.3-13.1,7.1-19.9
			c0.2-0.6-0.9-0.6-1.3-0.5C126.1,92.3,125.5,92.7,125.3,93.3L125.3,93.3z"/>
	</g>
</g>
</svg>
