<?xml version="1.0" encoding="utf-8"?>
<!-- Generator: Adobe Illustrator 24.0.0, SVG Export Plug-In . SVG Version: 6.00 Build 0)  -->
<svg version="1.1" id="Capa_1" xmlns="http://www.w3.org/2000/svg" xmlns:xlink="http://www.w3.org/1999/xlink" x="0px" y="0px"
	 viewBox="0 0 165.7 52.5" style="enable-background:new 0 0 165.7 52.5;" xml:space="preserve">
<style type="text/css">
	.st0{fill:#767B60;}
</style>
<title>kah</title>
<g>
	<g>
		<path class="st0" d="M33.6,2.3c-7.1,13.2-14.3,26.4-23.3,38.4c-2.6,3.4-5.3,6.8-8.2,10l5.3-1c-0.1-0.1-0.1-0.3,0-0.4
			c0.8-0.9,0.3-1.8-0.8-1.8c-1.5,0.1-3,0.8-4,1.9C2,50,1.7,50.8,1.7,51.6c0.1,2.3,4.6-0.3,5.3-1c10.3-11.3,18.4-24.4,25.8-37.7
			c2.1-3.8,4.2-7.7,6.3-11.6c0.7-1.3-1-1.4-1.8-1.3C35.7,0.3,34.4,1.1,33.6,2.3z"/>
		<path class="st0" d="M49.7,14.3C33.9,20.8,17.6,26.2,1,30.2l3.6,4.5c2-0.7,3.9,0.6,5.7,1.5c2.2,1.1,4.4,2.1,6.6,3.1
			c4.6,2,9.4,3.6,14.2,5c9.4,2.8,19.1,4.2,28.8,4.4c4.6,0,9.6-0.8,13-4.2c1-1,0.4-2.3-0.6-3.2c-0.8-0.7-3-1.9-4-0.8
			C65.5,43.3,61.8,44,58,44c-4.6,0-9.2-0.4-13.8-1.2c-9.5-1.5-18.8-4.2-27.6-8c-2.5-1.1-4.9-2.3-7.3-3.5S3.8,29.1,1,30.2
			c-1.3,0.5-1.2,1.9-0.5,2.9c0.9,1.2,2.5,1.9,4,1.6c16.6-4,32.9-9.4,48.7-15.9C56.4,17.5,52.1,13.3,49.7,14.3L49.7,14.3z"/>
		<path class="st0" d="M91.7,30.9c-3.8,0.8-7.4,2.6-10.3,5.3c-2.3,2.1-5.5,5.6-5.1,9.1c0.3,2.2,2.2,3.4,4.3,3.6
			c2.4,0.1,4.6-0.8,6.4-2.4c3.5-2.8,6.9-5.8,10.3-8.9L92,37c1.2,3.1-0.6,6.6,1.4,9.6c2.1,3.2,6.2,4.3,9.9,3.9
			c4-0.4,7.8-2.2,11.3-3.9s6.9-3.6,10.2-5.8c0.8-0.5,1-1.5,0.6-2.3c-0.2-0.3-0.4-0.5-0.7-0.6c-1.4-0.7-3.1-0.7-4.4,0.2
			c-2.6,1.7-5.2,3.3-8,4.6c-2.8,1.5-5.7,2.7-8.7,3.5c-1.9,0.4-4.1,0-4.8-2.3c-0.3-1.3-0.3-2.7-0.2-4c0.1-1.5-0.1-3-0.6-4.5
			c-0.7-1.8-4.1-1.7-5.3-0.6c-2.5,2.3-5,4.5-7.6,6.7c-1.3,0.9-2.5,1.9-3.7,3c-0.2,0.2-0.4,0.2-0.3,0.2l1.4,0.2
			c0.2,0.3,0.3,0.3,0.2,0.1c0.1-0.2-0.1-0.9-0.1-1.2c0.5-2.2,2.5-4.4,4.2-5.8c2-1.6,4.3-2.8,6.8-3.3c1.1-0.2,2.7-1.3,2-2.6
			S92.9,30.7,91.7,30.9L91.7,30.9z"/>
		<path class="st0" d="M142.3,5.5c-3.7,14.6-8.8,28.9-15.1,42.6l5.8-0.8c1.6-5.8,5.8-11.2,11.2-13.7c0.2-0.1,0.2-0.2,0.5,0.1
			c0.4,0.6,0.7,1.4,0.6,2.2c0.1,1.8-0.1,3.7,0,5.5c0.1,3.5,1.6,6.5,5.1,7.7c4.3,1.6,9,0.1,13-1.7c0.9-0.4,2.8-1.4,2.3-2.7
			s-2.7-0.8-3.5-0.5c-2.9,1.3-6.3,2.8-9.1,0.4c-3-2.5-1.5-7.1-1.9-10.5c-0.2-2-0.8-3.8-2.9-4.3c-2.3-0.6-4.6,0.3-6.6,1.2
			c-3.4,1.7-6.4,4-8.9,6.8c-2.7,3.1-4.6,6.8-5.7,10.8c-0.3,1.2,1.8,1.3,2.4,1.2c1.4-0.1,2.6-0.9,3.4-2c6.5-14,11.7-28.6,15.4-43.6
			c0.4-1.4-2.1-1.3-2.8-1.2C144.1,3.3,142.6,4.1,142.3,5.5L142.3,5.5z"/>
	</g>
</g>
</svg>
