<?xml version="1.0" encoding="utf-8"?>
<!-- Generator: Adobe Illustrator 24.0.0, SVG Export Plug-In . SVG Version: 6.00 Build 0)  -->
<svg version="1.1" id="Capa_1" xmlns="http://www.w3.org/2000/svg" xmlns:xlink="http://www.w3.org/1999/xlink" x="0px" y="0px"
	 viewBox="0 0 485 485" style="enable-background:new 0 0 485 485;" xml:space="preserve">
<style type="text/css">
	.st0{fill-opacity:0.2;}
	.st1{fill:url(#SVGID_1_);}
	.st2{fill:url(#SVGID_2_);}
	.st3{fill-rule:evenodd;clip-rule:evenodd;fill:#FFFFFF;}
</style>
<g>
	<g transform="matrix(1 0 0 -1 -542.696 1013.504)">
		<g>
			<path id="e" d="M548.7,772.3c0-42,10.9-82.9,31.7-119l-33.7-123.4L672.6,563c34.7-19,73.8-29,113.5-29h0.1
				c130.9,0,237.5,106.8,237.5,238.1c0,63.6-24.7,123.4-69.5,168.4c-44.9,45-104.5,69.8-168,69.8
				C655.3,1010.4,548.7,903.6,548.7,772.3z"/>
		</g>
		<g>
			<path id="e_1_" class="st0" d="M548.7,772.3c0-42,10.9-82.9,31.7-119l-33.7-123.4L672.6,563c34.7-19,73.8-29,113.5-29h0.1
				c130.9,0,237.5,106.8,237.5,238.1c0,63.6-24.7,123.4-69.5,168.4c-44.9,45-104.5,69.8-168,69.8
				C655.3,1010.4,548.7,903.6,548.7,772.3z"/>
		</g>
	</g>
	
		<linearGradient id="SVGID_1_" gradientUnits="userSpaceOnUse" x1="-80.2874" y1="-331.4593" x2="-80.2874" y2="208.9359" gradientTransform="matrix(0.8515 0 0 -0.8553 311.0607 188.4008)">
		<stop  offset="0" style="stop-color:#20B038"/>
		<stop  offset="1" style="stop-color:#60D66A"/>
	</linearGradient>
	<path class="st1" d="M14.5,238.7c0,40.4,10.5,79.8,30.6,114.5L12.6,471.9l121.5-31.8c33.5,18.2,71.1,27.9,109.5,27.9h0.1
		c126.3,0,229-102.7,229.1-229c0-61.2-23.8-118.7-67-162C362.4,33.6,304.9,9.7,243.6,9.7C117.3,9.7,14.6,112.5,14.5,238.7"/>
	
		<linearGradient id="SVGID_2_" gradientUnits="userSpaceOnUse" x1="-70.71" y1="-331.843" x2="-70.71" y2="227.9606" gradientTransform="matrix(0.8515 0 0 -0.8553 302.8055 196.3726)">
		<stop  offset="0" style="stop-color:#F9F9F9"/>
		<stop  offset="1" style="stop-color:#FFFFFF"/>
	</linearGradient>
	<path class="st2" d="M6.3,238.7c0,41.8,10.9,82.6,31.7,118.6L4.3,480.2l125.8-33c34.7,18.9,73.7,28.9,113.4,28.9h0.1
		c130.8,0,237.3-106.4,237.3-237.2c0-63.4-24.6-123-69.4-167.9C366.7,26.2,307.1,1.4,243.7,1.4C112.8,1.4,6.4,107.8,6.3,238.7
		L6.3,238.7z M81.3,351.1l-4.7-7.5c-19.7-31.4-30.2-67.7-30.2-104.9c0.1-108.8,88.5-197.2,197.3-197.2c52.7,0,102.2,20.6,139.5,57.8
		c37.2,37.3,57.7,86.8,57.7,139.5c0,108.7-88.5,197.2-197.3,197.2h-0.1c-35.4,0-70.1-9.5-100.4-27.5l-7.2-4.3l-74.7,19.6L81.3,351.1
		z"/>
	<path class="st3" d="M184.4,139.5c-4.4-9.9-9.1-10.1-13.3-10.2c-3.5-0.1-7.4-0.1-11.4-0.1s-10.4,1.5-15.8,7.4
		c-5.4,5.9-20.8,20.3-20.8,49.5s21.3,57.4,24.2,61.3c3,4,41,65.7,101.3,89.5c50.1,19.8,60.3,15.8,71.2,14.8s35.1-14.3,40-28.2
		c4.9-13.8,4.9-25.7,3.5-28.2c-1.5-2.5-5.4-4-11.4-6.9c-5.9-3-35.1-17.3-40.5-19.3s-9.4-3-13.3,3c-4,5.9-15.3,19.3-18.8,23.2
		c-3.5,4-6.9,4.5-12.8,1.5s-25-9.2-47.7-29.4c-17.6-15.7-29.5-35.1-33-41.1c-3.5-5.9-0.4-9.1,2.6-12.1c2.7-2.7,5.9-6.9,8.9-10.4
		s3.9-5.9,5.9-9.9s1-7.4-0.5-10.4C201.1,180.5,189.6,151.2,184.4,139.5"/>
</g>
</svg>
